<?xml version="1.0" encoding="UTF-8"?>
<svg version="1.1" xmlns="http://www.w3.org/2000/svg" width="3840" height="2160">
<path d="M0 0 C1.06098372 0.00092179 2.12196745 0.00184359 3.2151022 0.00279331 C4.42811504 0.00141865 5.64112789 0.00004398 6.8908987 -0.00137234 C8.24737478 0.00216727 9.60385061 0.00580208 10.96032619 0.00952244 C12.37917485 0.00980431 13.79802365 0.00964658 15.21687222 0.00907993 C19.08033881 0.00879194 22.94377463 0.01468892 26.80723405 0.02165389 C30.84047653 0.02788716 34.87371965 0.02849121 38.90696621 0.0296793 C46.54970549 0.03279269 54.19243053 0.04100619 61.83516353 0.05102879 C70.53393099 0.06218967 79.23269911 0.06770031 87.93147194 0.07272422 C105.83033965 0.0831888 123.72919408 0.1007884 141.6280508 0.12304783 C141.99790505 0.97822089 142.3677593 1.83339396 142.74882126 2.71448135 C144.14238955 5.9358728 145.53650809 9.15702501 146.93098068 12.37802505 C147.53046064 13.76302181 148.12973123 15.14810921 148.72877502 16.53329468 C153.15702459 26.77231948 157.658129 36.97480809 162.27032375 47.13241673 C168.78219479 61.48115819 175.185983 75.87508528 181.5030508 90.31054783 C187.81237373 104.72655281 194.16639943 119.1216794 200.5655508 133.49804783 C207.10772327 148.19702503 213.63145845 162.90386603 220.1280508 177.62304783 C226.60623828 192.29945908 233.10762538 206.96535379 239.6280508 221.62304783 C246.54344592 237.16862026 253.43454242 252.72468915 260.3052969 268.29004002 C266.80407902 283.01127626 273.33217605 297.71930346 279.87319851 312.42181492 C287.09426271 328.6539876 294.28262342 344.90044168 301.45031643 361.15625095 C305.13077308 369.49954066 308.82030441 377.83677249 312.6280508 386.12304783 C314.7937781 382.87445688 316.33173772 379.51203229 317.9093008 375.95898533 C318.39743504 374.86792484 318.39743504 374.86792484 318.89543056 373.75482273 C319.97589914 371.3371931 321.05211097 368.91769599 322.1280508 366.49804783 C322.88878988 364.79211822 323.64961497 363.08622697 324.41052151 361.38037205 C332.8987964 342.33090734 341.26977848 323.22981874 349.6280508 304.12304783 C350.24864191 302.70474727 350.86924674 301.28645272 351.48986721 299.86816502 C353.76367636 294.67157554 356.03706114 289.47480075 358.30944729 284.27758884 C365.29262922 268.30809864 372.30473712 252.35129917 379.31359768 236.39306736 C382.7122657 228.65457546 386.10963298 220.91551251 389.50707912 213.17648411 C391.38068124 208.90864782 393.2543705 204.64084979 395.1280508 200.37304783 C395.87805122 198.66471468 396.62805122 196.95638134 397.3780508 195.24804783 C437.878051 102.99804737 437.878051 102.99804737 439.00294399 100.43579197 C439.75330086 98.7266452 440.5036569 97.01749806 441.25401211 95.30835056 C443.12354518 91.04995982 444.9930925 86.79157534 446.86266994 82.53320408 C451.09531057 72.89239146 455.32763921 63.25144203 459.55937099 53.61023045 C461.48336534 49.22690885 463.40770767 44.84374071 465.33288479 40.46093845 C466.06409383 38.79622837 466.79529515 37.13151489 467.5264883 35.46679783 C467.87850811 34.6653635 468.23052792 33.86392918 468.59321499 33.03820896 C470.50994698 28.67324752 472.42349082 24.306916 474.33256435 19.93859959 C475.13420416 18.10458818 475.93689125 16.27103465 476.73962307 14.43750095 C477.67690511 12.2964037 478.61241556 10.15452965 479.54577541 8.0117197 C479.94546535 7.09970798 480.3451553 6.18769627 480.75695705 5.24804783 C481.09799465 4.46687595 481.43903225 3.68570408 481.79040432 2.88086033 C482.6280508 1.12304783 482.6280508 1.12304783 483.6280508 0.12304783 C485.50099864 0.02652186 487.37763325 0.00117516 489.25306606 0.00279331 C490.47449306 0.00141865 491.69592007 0.00004398 492.95436001 -0.00137234 C494.32028127 0.00216727 495.68620229 0.00580208 497.05212307 0.00952244 C498.48082381 0.00980431 499.9095247 0.00964659 501.33822536 0.00907993 C505.22855052 0.00879194 509.11884511 0.01468896 513.00916314 0.02165389 C517.07043285 0.02788713 521.13170319 0.0284912 525.19297695 0.0296793 C532.88884013 0.0327927 540.58468918 0.04100622 548.28054613 0.05102879 C557.03977194 0.06218964 565.79899842 0.0677003 574.55822957 0.07272422 C592.58151156 0.08318882 610.60477953 0.10098887 628.6280508 0.12304783 C628.6280508 5.73304783 628.6280508 11.34304783 628.6280508 17.12304783 C625.88879299 17.14882908 623.14953518 17.17461033 620.32726955 17.20117283 C617.60297305 17.23984858 614.87884986 17.28492504 612.15466213 17.33056736 C610.29602579 17.35837738 608.43727995 17.37978508 606.57849026 17.39404392 C596.62540623 17.47485381 586.98246179 17.91421665 577.21008205 19.91992283 C576.44636791 20.07398594 575.68265377 20.22804905 574.89579678 20.38678074 C568.41528959 21.85726135 562.38473088 24.30053876 558.3780508 29.87304783 C557.91914455 30.48664158 557.4602383 31.10023533 556.9874258 31.73242283 C552.65652781 39.34882964 551.8281196 46.83326807 551.0030508 55.43554783 C550.88187893 56.57572361 550.76070705 57.71589939 550.6358633 58.89062595 C548.67580969 78.16093562 548.48240731 97.38464589 548.49865627 116.7382822 C548.49784761 119.47556737 548.49555193 122.21285088 548.49334621 124.95013523 C548.48893329 131.57070652 548.48984522 138.19126638 548.49275886 144.81183809 C548.49503217 150.20446009 548.49531712 155.59707893 548.49423504 160.98970127 C548.49408181 161.76198331 548.49392857 162.53426536 548.4937707 163.32994989 C548.49345091 164.89971999 548.4931267 166.4694901 548.4927981 168.03926021 C548.48995602 182.71225487 548.49320952 197.38524326 548.49859847 212.0582369 C548.50305821 224.58765619 548.50229495 237.11706621 548.49767971 249.64648533 C548.49229903 264.26035893 548.49023803 278.87422703 548.49329197 293.48810148 C548.49361046 295.05402374 548.49392483 296.619946 548.49423504 298.18586826 C548.49438931 298.95594336 548.49454359 299.72601847 548.49470254 300.51942918 C548.4955578 305.88756283 548.49412628 311.25569293 548.49175549 316.62382603 C548.48891791 323.19226927 548.48977724 329.7607006 548.49503623 336.32914251 C548.49762195 339.6662197 548.49820777 343.00326129 548.49538708 346.34034061 C545.0541271 397.94079165 545.0541271 397.94079165 562.30383205 443.94336033 C572.28547093 452.45019603 587.14933531 453.17345369 599.7218008 453.43945408 C600.96999599 453.47062572 600.96999599 453.47062572 602.24340725 453.5024271 C604.87154717 453.56720977 607.49977705 453.62647195 610.1280508 453.68554783 C611.92233051 453.72880105 613.7166015 453.77241737 615.5108633 453.8164072 C619.8831688 453.92349232 624.25555338 454.02309288 628.6280508 454.12304783 C628.6280508 459.73304783 628.6280508 465.34304783 628.6280508 471.12304783 C554.0480508 471.12304783 479.4680508 471.12304783 402.6280508 471.12304783 C402.6280508 465.51304783 402.6280508 459.90304783 402.6280508 454.12304783 C404.3193008 454.14625095 406.0105508 454.16945408 407.7530508 454.19336033 C437.55808857 455.23872331 437.55808857 455.23872331 464.2530508 443.81054783 C476.74069017 431.18746769 476.57301676 413.86450326 477.6280508 397.12304783 C477.69141748 396.1351087 477.69141748 396.1351087 477.7560643 395.12721121 C478.75631986 378.9651078 478.73446084 362.8169119 478.65957344 346.63191307 C478.64268033 342.72019256 478.63208521 338.80845383 478.62066555 334.89671421 C478.60011936 328.14446774 478.5757194 321.39224441 478.54858494 314.64002132 C478.50936043 304.87784184 478.47612975 295.11564891 478.44428968 285.35344288 C478.39245236 269.50896894 478.33587115 253.66451572 478.27624416 237.82006931 C478.21838559 222.44279884 478.16280005 207.06552287 478.11022854 191.68823338 C478.10697882 190.73791198 478.1037291 189.78759059 478.1003809 188.80847158 C478.08408938 184.04025223 478.0678421 179.27203273 478.05161679 174.50381315 C477.91728419 135.04353249 477.7752264 95.58328255 477.6280508 56.12304783 C475.86258499 60.05743583 474.09753655 63.99201074 472.33284569 67.92674637 C471.73465202 69.26039217 471.13635172 70.59399016 470.53793526 71.92753601 C465.53620308 83.07398925 460.58938838 94.24349322 455.6905508 105.43554783 C454.91916216 107.19535542 454.14767545 108.95512003 453.37609768 110.7148447 C451.12495859 115.85012933 448.87605217 120.98638897 446.6280508 126.12304783 C446.30987392 126.85005894 445.99169704 127.57707005 445.66387844 128.32611179 C443.09083613 134.20575798 440.51876918 140.0858305 437.94763088 145.96630955 C430.96408037 161.93651339 423.95168682 177.89406259 416.94250393 193.8530283 C413.54383591 201.5915202 410.14646863 209.33058315 406.74902248 217.06961155 C404.87542037 221.33744784 403.00173111 225.60524587 401.1280508 229.87304783 C400.37805039 231.58138098 399.62805039 233.28971431 398.8780508 234.99804783 C385.3780508 265.74804783 371.8780508 296.49804783 358.3780508 327.24804783 C358.00682095 328.09362751 357.63559109 328.93920719 357.25311184 329.8104105 C356.50291005 331.51920233 355.7527066 333.22799342 355.00250149 334.93678379 C353.13057519 339.20059618 351.25867757 343.46442115 349.38683987 347.72827244 C345.97520479 355.49954402 342.56333912 363.27071401 339.15043545 371.04142857 C337.2261684 375.42274069 335.30207439 379.80412879 333.3780508 384.18554783 C332.81300335 385.47224873 332.81300335 385.47224873 332.23654079 386.78494358 C328.16032427 396.06777446 324.08548765 405.35119233 320.02799892 414.64222813 C318.61002244 417.8888703 317.18899235 421.13408035 315.7596426 424.37573338 C313.01109489 430.61725943 310.30368353 436.8711387 307.68427944 443.16816807 C306.35799886 446.34766056 305.01194347 449.51858786 303.66354275 452.68875217 C303.02096887 454.21383475 302.38764572 455.74285206 301.76418972 457.27584934 C300.89963038 459.3996435 300.00405832 461.50770871 299.10070705 463.61523533 C298.59805325 464.82550388 298.09539944 466.03577244 297.57751369 467.2827158 C295.6280508 470.12304783 295.6280508 470.12304783 292.13757229 471.51416111 C286.51584043 472.48950714 281.7519901 472.8811576 276.6280508 470.12304783 C275.06091213 467.70092869 275.06091213 467.70092869 273.71008205 464.58789158 C272.92649319 462.81780735 272.92649319 462.81780735 272.12707424 461.01196384 C271.56468823 459.69491548 271.00252129 458.37777355 270.4405508 457.06054783 C269.83440845 455.67564826 269.2266172 454.29146939 268.61730862 452.90795994 C267.30022059 449.90920894 265.99368359 446.90615811 264.69494534 443.89941502 C262.59584298 439.04142465 260.4720139 434.19450761 258.34289455 429.34961033 C257.60509005 427.67041618 256.86729719 425.99121691 256.12951565 424.31201267 C255.57442318 423.04874149 255.57442318 423.04874149 255.00811672 421.75994968 C253.86855067 419.16390559 252.73163021 416.56671689 251.59533596 413.96923923 C246.24849574 401.75483668 240.80670814 389.5856751 235.3155508 377.43554783 C229.63079791 364.85636263 224.04792971 352.24379956 218.59728909 339.56128025 C214.07416808 329.07240367 209.39299145 318.65758486 204.6905508 308.24804783 C199.31133983 296.33893642 193.96852506 284.41734044 188.7530508 272.43554783 C183.20857328 259.70043568 177.58870605 247.00001619 171.9405508 234.31054783 C165.31507747 219.42405628 158.7073631 204.53000077 152.1280508 189.62304783 C145.64989785 174.9466209 139.14835377 160.28079647 132.6280508 145.62304783 C125.9223957 130.54771325 119.23302723 115.46530955 112.5655508 100.37304783 C112.19180325 99.52718113 111.81805569 98.68131443 111.43298244 97.80981541 C106.89475985 87.53761657 102.36717488 77.26076 97.84509182 66.98144627 C97.08875832 65.26234547 97.08875832 65.26234547 96.31714535 63.50851536 C95.08740667 60.71337733 93.85770926 57.91822115 92.6280508 55.12304783 C92.55911933 94.54603824 92.50638823 133.96902068 92.47485482 173.3920595 C92.47110348 178.06492159 92.46722044 182.73778357 92.46325588 187.41064548 C92.46246895 188.34077997 92.46168202 189.27091445 92.46087124 190.22923483 C92.4478798 205.21509214 92.4242612 220.2009143 92.39659242 235.18675087 C92.36836264 250.60706208 92.35183779 266.0273551 92.34578532 281.44769108 C92.34170495 290.93378954 92.32890307 300.41978859 92.3043014 309.90585639 C92.28822619 316.44435334 92.28369858 322.98280025 92.28754667 329.52131544 C92.2894351 333.27233884 92.28691522 337.02319084 92.27043438 340.77418232 C92.20565399 356.37485593 92.62071791 371.86647714 93.89933681 387.41580296 C93.95340322 388.12341282 94.00746962 388.83102268 94.0631744 389.56007527 C95.43703457 407.0708258 100.64001518 422.47011682 113.7218008 434.74414158 C129.27469843 447.47494084 146.89277931 452.45056719 166.6280508 454.12304783 C166.6280508 459.73304783 166.6280508 465.34304783 166.6280508 471.12304783 C110.5280508 471.12304783 54.4280508 471.12304783 -3.3719492 471.12304783 C-3.3719492 455.12304783 -3.3719492 455.12304783 -2.3719492 454.12304783 C-0.71922739 453.92735876 0.93445339 453.73777442 2.59118557 453.5795908 C23.3528833 451.53698162 42.4377262 443.72598393 56.6280508 428.12304783 C59.3841018 424.62595918 61.58811717 421.07712831 63.6280508 417.12304783 C64.33381252 415.8024033 64.33381252 415.8024033 65.05383205 414.45507908 C70.22869095 403.14366184 70.5589932 390.35385192 71.6280508 378.12304783 C71.71699989 377.21888284 71.80594898 376.31471785 71.8975935 375.38315392 C73.01736382 362.49034623 72.78415774 349.54985821 72.78918362 336.619874 C72.79328793 333.83394791 72.79882481 331.048025 72.80422878 328.26210117 C72.81773265 320.71963427 72.82382534 313.17717274 72.82823944 305.63469577 C72.83101736 300.90690263 72.83525758 296.17911148 72.83974361 291.45131969 C72.85192962 278.31134737 72.86222783 265.17137662 72.86561871 252.03139877 C72.86583827 251.19251998 72.86605784 250.35364118 72.86628406 249.48934181 C72.86650234 248.64866035 72.86672061 247.80797889 72.86694551 246.94182223 C72.86738894 245.23880303 72.8678355 243.53578383 72.86828518 241.83276463 C72.86850661 240.98804084 72.86872804 240.14331705 72.86895618 239.27299557 C72.87289128 225.63238401 72.89030878 211.9918263 72.9136447 198.35123547 C72.93751742 184.28084641 72.94982785 170.21048415 72.95098662 156.14007455 C72.95189492 148.26690353 72.95752376 140.39380332 72.97580624 132.52065182 C73.31896021 94.35564568 73.31896021 94.35564568 71.42004299 56.26489353 C71.3203685 55.04194427 71.22069401 53.818995 71.11799908 52.55898666 C70.07422592 42.74519268 67.35057501 32.26936998 59.67883205 25.51757908 C46.69256079 16.68691462 27.76917245 17.81117744 12.6280508 17.49804783 C11.06292858 17.45971565 9.497824 17.42065617 7.9327383 17.38086033 C4.16465846 17.28658703 0.39648182 17.20198465 -3.3719492 17.12304783 C-3.39879598 14.47714769 -3.41871276 11.83151687 -3.4344492 9.18554783 C-3.4428281 8.43080173 -3.45120701 7.67605564 -3.45983982 6.89843845 C-3.4684736 4.97310469 -3.42419252 3.04769202 -3.3719492 1.12304783 C-2.3719492 0.12304783 -2.3719492 0.12304783 0 0 Z " fill="#000000" transform="translate(933.3719491958618,548.8769521713257)"/>
<path d="M0 0 C0.763125 0.56976562 1.52625 1.13953125 2.3125 1.7265625 C14.93145948 11.73300302 22.83777167 28.31127348 25 44 C25.8111873 54.30795685 25.41713197 64.16196683 22 74 C21.6596875 74.98226563 21.319375 75.96453125 20.96875 76.9765625 C16.24677103 89.32389939 8.5023102 99.15210007 -0.60302734 108.55175781 C-1.93532594 109.93295238 -3.24373988 111.33706799 -4.55078125 112.7421875 C-24.05293176 133.16173811 -50.6117412 149.0276104 -76 161 C-76.66 161 -77.32 161 -78 161 C-74.85263878 166.86303947 -71.10112147 172.03328656 -67.0625 177.3125 C-62.1131619 183.84447178 -57.21606137 190.40445496 -52.4375 197.0625 C-48.00067197 203.24030151 -43.52120662 209.38365985 -39 215.5 C-32.80960133 223.87926892 -26.69525391 232.3110778 -20.60888672 240.76611328 C-18.45108682 243.76214805 -16.28917359 246.75520151 -14.12695312 249.74804688 C-12.50212904 251.99705308 -10.87801745 254.2465727 -9.25390625 256.49609375 C-7.07670977 259.51092519 -4.89677083 262.52374694 -2.71484375 265.53515625 C4.09499661 274.93883553 10.83348157 284.389173 17.51171875 293.88671875 C19.01464118 296.02078971 20.52219873 298.15150926 22.03125 300.28125 C28.77125549 309.79757058 35.41825984 319.37355721 42 329 C66.74881152 297.91840435 87.34042109 253.36105494 85 213 C83.73892573 203.77911751 78.56126608 195.54901286 71.3125 189.75 C61.15947032 182.87777723 50.82068296 179.55949934 39 177 C38.01515625 176.78472656 37.0303125 176.56945313 36.015625 176.34765625 C35.20609375 176.17105469 34.3965625 175.99445313 33.5625 175.8125 C30 175 30 175 29 174 C28.90018786 171.3226862 28.86120125 168.67695825 28.875 166 C28.87113281 165.24976563 28.86726563 164.49953125 28.86328125 163.7265625 C28.87338947 158.12661053 28.87338947 158.12661053 30 157 C31.99730833 156.90108272 33.99816863 156.87367726 35.9979248 156.87301636 C37.30204819 156.87019653 38.60617157 156.86737671 39.94981384 156.86447144 C41.40859999 156.86641604 42.867386 156.86846422 44.32617188 156.87060547 C45.85177146 156.86925149 47.37737072 156.86747158 48.90296936 156.86529541 C53.05781156 156.86072066 57.21262904 156.86251081 61.36747169 156.8656745 C65.70587864 156.86819788 70.0442834 156.86586062 74.38269043 156.86428833 C81.66968162 156.86246657 88.95666269 156.86487311 96.24365234 156.86962891 C104.68071856 156.87507154 113.11776062 156.87330889 121.55482626 156.8678025 C128.78537755 156.86327155 136.01592154 156.86262073 143.24647379 156.86524117 C147.57080895 156.86680404 151.89513273 156.86699743 156.21946716 156.86370468 C160.28397699 156.86082623 164.34845553 156.86280118 168.41296196 156.86859894 C169.90899542 156.86992668 171.40503149 156.86953219 172.90106392 156.86733627 C174.93473342 156.86462534 176.96840864 156.86861909 179.0020752 156.87301636 C180.14287788 156.87339338 181.28368057 156.87377041 182.45905304 156.87415886 C185 157 185 157 186 158 C186.07325168 160.86267567 186.09238205 163.700719 186.0625 166.5625 C186.05798828 167.36880859 186.05347656 168.17511719 186.04882812 169.00585938 C186.03700518 171.00393756 186.01906914 173.00197783 186 175 C185.44763672 175.1952124 184.89527344 175.3904248 184.32617188 175.59155273 C165.72721009 182.23486458 150.0547355 190.15803402 135 203 C134.32710937 203.56976562 133.65421875 204.13953125 132.9609375 204.7265625 C110.16422903 225.79461061 97.93480358 259.64612105 86.3125 287.5 C79.29153554 304.28206229 71.30185683 319.97116591 61.64526367 335.40112305 C61.07138916 336.31933838 60.49751465 337.23755371 59.90625 338.18359375 C59.39384766 338.99368896 58.88144531 339.80378418 58.35351562 340.63842773 C56.94354239 343.0985055 55.75846692 345.26098531 55 348 C55.72440017 350.0891727 55.72440017 350.0891727 57.26171875 351.93359375 C57.79829102 352.65796631 58.33486328 353.38233887 58.88769531 354.12866211 C59.77859863 355.27153687 59.77859863 355.27153687 60.6875 356.4375 C61.28530273 357.2322876 61.88310547 358.0270752 62.49902344 358.84594727 C64.31334413 361.24619248 66.15275252 363.62503953 68 366 C69.00132415 367.30206636 70.00262798 368.60414835 71.00390625 369.90625 C73.63231247 373.30090971 76.3098753 376.65418372 79 380 C79.75796875 380.95261719 80.5159375 381.90523437 81.296875 382.88671875 C86.91449915 389.86890763 92.86737577 396.47287947 99 403 C99.71671875 403.7940625 100.4334375 404.588125 101.171875 405.40625 C116.39538085 421.6599179 136.40350646 429.39068806 158.25 431.28125 C174.02485735 431.78470289 188.52465646 426.48986962 200.6015625 416.42578125 C205.54458132 411.42640879 209.85349791 405.29300418 213 399 C218.94 399 224.88 399 231 399 C228.33821395 417.63250236 214.94373145 435.95588532 200.39794922 447.24316406 C176.50422009 464.63197906 147.79541684 469.52370896 118.77807617 465.17944336 C88.66084748 459.73028064 62.98355924 444.91827663 41 424 C40.4622998 423.48953125 39.92459961 422.9790625 39.37060547 422.453125 C31.83126149 415.24834862 25.03334363 407.88217243 18.890625 399.44921875 C17.2335078 396.93560846 17.2335078 396.93560846 15 396 C14.6141272 396.87265503 14.6141272 396.87265503 14.22045898 397.76293945 C12.8915227 400.19883526 11.42885569 401.82978378 9.47265625 403.79296875 C8.41606812 404.85559937 8.41606812 404.85559937 7.33813477 405.93969727 C6.58717529 406.68147217 5.83621582 407.42324707 5.0625 408.1875 C4.29413818 408.95054443 3.52577637 409.71358887 2.73413086 410.49975586 C-2.91946645 416.05967007 -8.72359519 421.15050439 -15 426 C-15.77988281 426.64710938 -16.55976563 427.29421875 -17.36328125 427.9609375 C-51.05255172 455.86072614 -90.45977659 468.46740586 -134 466 C-165.73452114 462.5816302 -195.062981 447.97124978 -218 426 C-218.67289063 425.37867188 -219.34578125 424.75734375 -220.0390625 424.1171875 C-241.78854451 403.40752137 -256.28176565 372.19299001 -257.29057312 342.15805054 C-257.36865451 338.6049663 -257.3847344 335.0538417 -257.375 331.5 C-257.37445618 330.75188049 -257.37391235 330.00376099 -257.37335205 329.23297119 C-257.33297032 317.12717328 -256.53194206 305.65405558 -253 294 C-252.79101074 293.30358398 -252.58202148 292.60716797 -252.36669922 291.88964844 C-243.72485272 264.24868623 -224.14601837 241.70227186 -201.640625 224.08203125 C-199.22683771 222.17885281 -196.90007844 220.19969897 -194.58154297 218.18237305 C-177.51751726 203.40215566 -158.43946083 189.44806656 -139 178 C-139.59756036 173.85759007 -141.96972956 170.89934921 -144.3125 167.5625 C-160.90745149 143.18117665 -175.89854966 114.79747854 -179 85 C-179.13277344 83.78441406 -179.26554687 82.56882812 -179.40234375 81.31640625 C-181.72674253 56.60325182 -175.14398702 31.70451051 -159.625 12.125 C-158.1089613 10.39388315 -156.56659058 8.6855067 -155 7 C-154.15695313 6.07703125 -153.31390625 5.1540625 -152.4453125 4.203125 C-111.88354707 -38.35733612 -44.08017453 -35.09644331 0 0 Z M-121.1875 12.625 C-132.12146122 26.94172368 -135.53015293 43.82675882 -133.24169922 61.49414062 C-130.92836177 76.09816064 -125.12857172 90.08100342 -118.08886719 102.99902344 C-116.94784185 105.09584936 -115.83717232 107.20723861 -114.7265625 109.3203125 C-108.99610968 120.06623232 -102.39535831 130.06288196 -95.38769531 140.01367188 C-93.54757042 142.64760153 -91.76839721 145.31750375 -90 148 C-61.41911078 132.8164026 -31.8717797 109.54947835 -21 78 C-20.68160156 77.12859375 -20.36320312 76.2571875 -20.03515625 75.359375 C-14.69382757 58.12928249 -17.28413231 38.78195248 -24.75 22.6875 C-32.07775091 9.05788331 -42.41270649 0.2124753 -57 -5 C-80.46423643 -11.66962885 -104.94856594 -6.38718655 -121.1875 12.625 Z M-164.0625 221.625 C-186.54105325 244.25777596 -204.71077809 272.9648986 -205.25 305.8125 C-204.9735031 327.65575475 -198.56939582 349.47741305 -187 368 C-186.64631348 368.56702637 -186.29262695 369.13405273 -185.92822266 369.71826172 C-178.95622553 380.62811736 -170.04060664 389.79656241 -161 399 C-160.38084717 399.6381665 -159.76169434 400.27633301 -159.1237793 400.93383789 C-154.47116707 405.67926405 -149.56134801 409.36276025 -144 413 C-143.26394531 413.50402344 -142.52789063 414.00804687 -141.76953125 414.52734375 C-127.15547432 424.01013112 -109.29080613 429.04101411 -92 430 C-91.28457031 430.05285156 -90.56914062 430.10570312 -89.83203125 430.16015625 C-60.93699101 431.30402187 -33.66322805 417.67849636 -12.8125 398.5625 C-11.36314105 397.18541367 -9.91374137 395.80828278 -8.47753906 394.41748047 C-6.93022349 392.93305975 -5.35399142 391.48407654 -3.7734375 390.03515625 C-2.74368975 389.06627397 -1.71500633 388.096259 -0.6875 387.125 C0.69888672 385.82949219 0.69888672 385.82949219 2.11328125 384.5078125 C4.24814863 382.22800895 4.24814863 382.22800895 3.88720703 379.79272461 C2.7125194 376.09507691 0.78351325 373.0402439 -1.30859375 369.80859375 C-1.97380287 368.7637809 -1.97380287 368.7637809 -2.65245056 367.69786072 C-7.97523305 359.38818146 -13.51415221 351.222403 -19.0625 343.0625 C-20.17071442 341.42837379 -21.27870299 339.79409439 -22.38647461 338.15966797 C-24.58018012 334.9241432 -26.77559184 331.68978779 -28.97265625 328.45654297 C-31.60027316 324.58955988 -34.222903 320.71922921 -36.84375 316.84765625 C-45.46775283 304.11925967 -54.19994597 291.46990655 -63.00292969 278.86474609 C-65.04120868 275.94088721 -67.07235833 273.01219436 -69.1015625 270.08203125 C-81.17455558 252.65652926 -93.58749286 235.50556061 -106.18554688 218.45703125 C-109.95272413 213.35572986 -113.7105894 208.24755768 -117.47045898 203.14086914 C-118.02032471 202.39442139 -118.57019043 201.64797363 -119.13671875 200.87890625 C-119.61842529 200.2247876 -120.10013184 199.57066895 -120.59643555 198.89672852 C-121.05961182 198.27080811 -121.52278809 197.6448877 -122 197 C-122.51280518 196.25999756 -123.02561035 195.51999512 -123.55395508 194.75756836 C-124.0311499 194.1775708 -124.50834473 193.59757324 -125 193 C-137.21042367 193 -156.02934841 213.70554892 -164.0625 221.625 Z " fill="#000000" transform="translate(2438,1150)"/>
<path d="M0 0 C2.60535602 -0.00564395 5.21063933 -0.01665722 7.81597137 -0.02899933 C61.60147919 -0.25323009 123.26057069 2.39781303 165.71446991 39.36925507 C166.36931366 39.90292694 167.02415741 40.43659882 167.69884491 40.98644257 C188.59231798 58.08950681 200.5079211 85.01892172 203.71446991 111.36925507 C203.99767519 115.89447081 204.04899421 120.39852429 204.02696991 124.93175507 C204.02133026 126.15829803 204.01569061 127.384841 204.00988007 128.64855194 C203.70119532 151.96189129 198.22935403 174.0301507 186.71446991 194.36925507 C186.16017303 195.36312225 185.60587616 196.35698944 185.03478241 197.38097382 C180.53139415 204.93330676 174.78259172 211.0747108 168.71446991 217.36925507 C168.11892303 218.027966 167.52337616 218.68667694 166.90978241 219.36534882 C139.4346223 248.95924018 92.4500692 252.90075323 54.71446991 254.36925507 C48.18283744 254.52244184 41.64972885 254.48708801 35.11681366 254.46691132 C33.30265085 254.46504003 31.48848753 254.4636195 29.67432404 254.4626236 C24.96123035 254.45885423 20.2481688 254.44907353 15.53508759 254.43791962 C10.7010059 254.4275836 5.86691889 254.4231002 1.03282928 254.41808319 C-8.40663775 254.40744466 -17.84608122 254.39043774 -27.28553009 254.36925507 C-27.20103285 272.67828418 -27.10569033 290.98722481 -26.99800301 309.29613209 C-26.94822697 317.80038788 -26.90178545 326.30463568 -26.86365509 334.80895233 C-26.83034859 342.23539046 -26.79031633 349.66175929 -26.74274004 357.08812016 C-26.71785156 361.00751951 -26.69596778 364.9268752 -26.68218613 368.84633064 C-26.62784797 383.66999245 -26.46569687 398.45686151 -25.44715118 413.25279999 C-25.34438842 414.83713695 -25.34438842 414.83713695 -25.23954964 416.45348072 C-24.22764691 429.36329564 -21.67449738 440.47273016 -12.09803009 449.68175507 C-0.05567582 459.21528553 17.37248249 458.68966042 31.96446991 458.99425507 C33.49964562 459.03254522 35.03480238 459.07160282 36.56993866 459.11144257 C40.28466975 459.20761683 43.99926018 459.2881183 47.71446991 459.36925507 C48.04446991 464.97925507 48.37446991 470.58925507 48.71446991 476.36925507 C-23.22553009 476.36925507 -95.16553009 476.36925507 -169.28553009 476.36925507 C-169.28553009 460.36925507 -169.28553009 460.36925507 -168.28553009 459.36925507 C-166.82592293 459.30625991 -165.36333381 459.3099469 -163.90271759 459.34191132 C-162.98998077 459.35576874 -162.07724396 459.36962616 -161.13684845 459.3839035 C-160.15466339 459.39969452 -159.17247833 459.41548553 -158.16053009 459.43175507 C-142.35131044 459.53878936 -122.94941085 459.2074505 -110.28553009 448.36925507 C-99.55997093 437.41868417 -99.23503339 422.79199224 -98.28553009 408.36925507 C-98.20231349 407.21764798 -98.11909689 406.0660409 -98.03335857 404.87953663 C-97.09634679 390.98549031 -97.1351898 377.09278068 -97.14014637 363.17320335 C-97.14035315 359.53898047 -97.13480554 355.90476517 -97.13008881 352.27054596 C-97.1218399 345.17257847 -97.11903657 338.07461929 -97.11847643 330.9766474 C-97.11799838 325.19500234 -97.11592933 319.41335998 -97.1127758 313.63171577 C-97.10398383 297.17303172 -97.09935397 280.71435413 -97.10010628 264.25566771 C-97.10016621 262.92925307 -97.10016621 262.92925307 -97.10022736 261.57604218 C-97.10028868 260.24797273 -97.10028868 260.24797273 -97.10035124 258.8930736 C-97.10075697 244.57104232 -97.09120187 230.24903743 -97.07708899 215.92701378 C-97.06265065 201.15590994 -97.05582292 186.3848189 -97.05668277 171.61370784 C-97.05701225 163.34726744 -97.05437612 155.08085467 -97.04350471 146.8144207 C-97.03430071 139.77169508 -97.03230403 132.72900961 -97.03901414 125.68628051 C-97.04223073 122.1079388 -97.0425179 118.52967365 -97.03366089 114.95133972 C-97.0011322 100.8758112 -97.22626136 86.87098237 -98.17571259 72.82367706 C-98.25324385 71.67596602 -98.3307751 70.52825498 -98.4106558 69.34576482 C-99.49754643 48.60246724 -99.49754643 48.60246724 -109.97303009 31.43175507 C-114.42692823 27.90506249 -118.7554394 26.44773748 -124.28553009 25.36925507 C-125.24845978 25.17718475 -126.21138947 24.98511444 -127.20349884 24.78722382 C-141.04442336 22.53178594 -155.29478521 22.713364 -169.28553009 22.36925507 C-169.28553009 16.75925507 -169.28553009 11.14925507 -169.28553009 5.36925507 C-142.16646159 4.00286516 -115.04663053 2.72329964 -87.91053009 1.74425507 C-87.01255077 1.71184471 -86.11457146 1.67943436 -85.18938065 1.64604187 C-56.79458236 0.63061406 -28.41324202 0.04569613 0 0 Z M-27.28553009 19.36925507 C-27.28553009 90.97925507 -27.28553009 162.58925507 -27.28553009 236.36925507 C39.80445662 239.90683591 39.80445662 239.90683591 99.313591 212.01476288 C121.7215703 189.34349516 129.83996945 158.92858602 129.70323944 127.813591 C129.18668368 100.38820768 124.23126821 71.69703721 105.71446991 50.36925507 C105.29294647 49.79433319 104.87142303 49.21941132 104.43712616 48.62706757 C89.73842301 29.23728894 61.68496656 22.49356093 38.93480682 19.35051727 C28.16762835 17.9996154 17.43113567 17.98692317 6.594841 18.08800507 C3.16195239 18.11974057 -0.27047658 18.12905233 -3.70349884 18.13488007 C-5.90793154 18.14403157 -8.1123596 18.15440134 -10.31678009 18.16613007 C-11.84014984 18.17250488 -11.84014984 18.17250488 -13.39429474 18.17900848 C-14.34389069 18.18861603 -15.29348663 18.19822357 -16.27185822 18.20812225 C-17.09818756 18.21495026 -17.92451691 18.22177826 -18.77588654 18.22881317 C-21.63332353 18.3887179 -24.46256172 18.89876034 -27.28553009 19.36925507 Z " fill="#000000" transform="translate(651.285530090332,543.630744934082)"/>
<path d="M0 0 C2.51000629 2.5165249 4.99710847 5.05378898 7.47363281 7.60327148 C17.4156435 -10.46393575 23.06505645 -29.92382944 25.47363281 -50.39672852 C26.47363281 -51.39672852 26.47363281 -51.39672852 30.07128906 -51.49438477 C31.55960148 -51.48771072 33.04789713 -51.47575035 34.53613281 -51.45922852 C35.67405273 -51.45246094 35.67405273 -51.45246094 36.83496094 -51.44555664 C38.71455153 -51.43373532 40.5941018 -51.41579929 42.47363281 -51.39672852 C43.64725731 -37.26153506 43.89091224 -23.09868769 44.22753906 -8.92407227 C44.27655754 -6.91663115 44.32557838 -4.90919009 44.37482017 -2.90175444 C44.52974364 3.41650295 44.6813394 9.7348341 44.83081055 16.05322266 C44.96571894 21.75384037 45.10439934 27.45435038 45.24682617 33.15478516 C46.02445412 64.30428267 46.76100669 95.44137109 46.47363281 126.60327148 C44.8830465 126.78404563 43.29175573 126.95862819 41.70019531 127.13061523 C40.81412598 127.22850342 39.92805664 127.3263916 39.01513672 127.42724609 C36.03119851 127.63391463 33.37940902 127.29148164 30.47363281 126.60327148 C28.80000246 121.19736687 27.64671737 115.74456255 26.52099609 110.20068359 C22.22203615 89.15577503 16.47211318 69.13123882 7.47363281 49.60327148 C7.15281738 48.90121582 6.83200195 48.19916016 6.50146484 47.47583008 C-10.91124884 9.81166167 -41.79917614 -16.83088661 -80.52636719 -31.39672852 C-120.75958745 -45.11070591 -165.58003704 -46.40358396 -204.4362793 -27.63354492 C-217.04888272 -21.24140764 -228.04656354 -12.82122326 -238.52636719 -3.39672852 C-239.19023437 -2.80504883 -239.85410156 -2.21336914 -240.53808594 -1.60375977 C-250.79473989 8.07909536 -258.44769359 20.51912805 -265.52636719 32.60327148 C-265.91179688 33.2574707 -266.29722656 33.91166992 -266.69433594 34.58569336 C-286.50976133 68.70474492 -294.6244292 109.64512986 -297.52636719 148.60327148 C-297.61176758 149.69349609 -297.69716797 150.7837207 -297.78515625 151.90698242 C-298.61975028 163.63616944 -298.7693922 175.34710652 -298.77636719 187.10327148 C-298.77704193 188.13318207 -298.77771667 189.16309265 -298.77841187 190.22421265 C-298.71408142 252.42213428 -286.22382168 313.41289365 -243.52636719 360.60327148 C-242.72714844 361.48756836 -241.92792969 362.37186523 -241.10449219 363.28295898 C-216.78742662 388.82403792 -180.43267918 405.01350895 -145.17871094 405.90405273 C-142.60716597 405.923374 -140.03546091 405.92684211 -137.46386719 405.91577148 C-136.78827759 405.91394867 -136.11268799 405.91212585 -135.41662598 405.9102478 C-97.17124862 405.73738798 -58.94802469 393.44822671 -29.52636719 368.60327148 C-28.71425781 367.93811523 -27.90214844 367.27295898 -27.06542969 366.58764648 C-15.98058769 357.14629841 -7.62559665 345.23619375 -0.52636719 332.60327148 C-0.11418945 331.87849609 0.29798828 331.1537207 0.72265625 330.40698242 C15.43152851 304.2877213 24.55691909 276.50353295 28.93066406 246.89233398 C29.47363281 243.60327148 29.47363281 243.60327148 30.47363281 241.60327148 C35.75363281 241.60327148 41.03363281 241.60327148 46.47363281 241.60327148 C46.47363281 296.38327148 46.47363281 351.16327148 46.47363281 407.60327148 C41.19363281 407.60327148 35.91363281 407.60327148 30.47363281 407.60327148 C30.04308594 406.30518555 29.61253906 405.00709961 29.16894531 403.66967773 C28.60470513 401.98058679 28.03957785 400.29179196 27.47363281 398.60327148 C27.22323242 397.8554541 26.97283203 397.10763672 26.71484375 396.3371582 C23.6919331 387.43198662 20.40643628 378.87719768 15.78613281 370.66577148 C15.41794434 370.01020264 15.04975586 369.35463379 14.67041016 368.67919922 C12.62761572 365.18509093 10.48294241 362.31368803 7.47363281 359.60327148 C6.77238281 360.38831055 6.07113281 361.17334961 5.34863281 361.98217773 C0.00999934 367.9148335 -5.3212849 373.56034508 -11.52636719 378.60327148 C-12.30705566 379.25247559 -12.30705566 379.25247559 -13.10351562 379.91479492 C-33.74450636 397.07168727 -56.88407296 410.41478733 -82.52636719 418.60327148 C-83.58887695 418.95228516 -83.58887695 418.95228516 -84.67285156 419.30834961 C-89.90196058 420.99997842 -95.16708108 422.38838845 -100.52636719 423.60327148 C-101.39358398 423.80082031 -102.26080078 423.99836914 -103.15429688 424.2019043 C-162.03547171 436.88304558 -229.80814064 424.69454675 -280.36621094 392.39624023 C-289.5939804 386.31192633 -298.04197509 379.26217124 -306.16308594 371.77905273 C-307.77211508 370.29768211 -309.40072353 368.83736244 -311.04589844 367.39624023 C-355.30742983 328.57391393 -375.36972084 269.71702863 -379.3190918 212.41503906 C-383.15795782 141.81879037 -365.13296607 64.90066828 -317.49511719 10.85327148 C-307.70485574 0.02262803 -297.36608126 -9.83973864 -285.52636719 -18.39672852 C-284.96578613 -18.80697266 -284.40520508 -19.2172168 -283.82763672 -19.63989258 C-204.25372811 -77.25058135 -87.08064944 -73.68809467 0 0 Z " fill="#000000" transform="translate(3170.5263671875,1185.396728515625)"/>
<path d="M0 0 C1.67799755 1.50713761 3.34647801 3.02495838 5.00390625 4.5546875 C7.74839807 7.07702821 10.57899164 9.48643286 13.43359375 11.8828125 C15.972017 14.30561399 18.10740725 16.96031104 20.3203125 19.68359375 C30.4027826 1.12946238 35.70796652 -18.41763842 38.3203125 -39.31640625 C43.9303125 -39.31640625 49.5403125 -39.31640625 55.3203125 -39.31640625 C56.44736427 -25.00376019 56.73996884 -10.68587818 57.07421875 3.6640625 C57.12303205 5.70870663 57.17224789 7.7533408 57.22149986 9.79797441 C57.37642089 16.23121604 57.52803425 22.66452964 57.67749023 29.09790039 C57.81254221 34.90918953 57.95121561 40.72037776 58.09350586 46.53149414 C59.59741668 107.99731833 59.59741668 107.99731833 59.3203125 138.68359375 C54.0403125 138.68359375 48.7603125 138.68359375 43.3203125 138.68359375 C42.9490625 137.05421875 42.5778125 135.42484375 42.1953125 133.74609375 C41.75352389 131.84475116 41.31156166 129.94344849 40.86816406 128.04248047 C40.47676659 126.35723877 40.08843544 124.67128372 39.70214844 122.98486328 C30.64428735 83.52976968 18.5511645 46.70520875 -9.6796875 16.68359375 C-10.205625 16.09320312 -10.7315625 15.5028125 -11.2734375 14.89453125 C-36.29724883 -12.04436768 -78.91927518 -27.96818394 -115.13232422 -29.45849609 C-157.74873086 -30.51732219 -194.54075963 -20.97919929 -226.34692383 8.96337891 C-239.02753373 21.25824537 -248.61108544 36.05799993 -256.6796875 51.68359375 C-257.00743164 52.2986377 -257.33517578 52.91368164 -257.67285156 53.54736328 C-273.21430657 82.92488026 -280.2177221 116.9134037 -283.6796875 149.68359375 C-283.78265137 150.61526367 -283.88561523 151.54693359 -283.99169922 152.50683594 C-287.25001669 183.27811842 -287.70610217 215.98218191 -283.6796875 246.68359375 C-283.55078125 247.70646484 -283.421875 248.72933594 -283.2890625 249.78320312 C-277.74892944 292.5909905 -264.60933747 333.81352594 -235.6796875 366.68359375 C-234.82890625 367.66714844 -233.978125 368.65070313 -233.1015625 369.6640625 C-223.10404791 381.03488189 -211.63971517 389.94726878 -198.6796875 397.68359375 C-197.56464844 398.36292969 -196.44960937 399.04226563 -195.30078125 399.7421875 C-159.84656328 420.46687611 -116.72482892 421.77557254 -77.80297852 411.72509766 C-69.87808948 409.5669982 -62.24120875 406.88248405 -54.6796875 403.68359375 C-53.99310059 403.39645508 -53.30651367 403.10931641 -52.59912109 402.81347656 C-36.14418636 395.8234354 -22.44019455 386.12951203 -9.6796875 373.68359375 C-9.03902344 373.10480469 -8.39835937 372.52601563 -7.73828125 371.9296875 C2.05827069 362.86048977 9.20926847 350.41907602 15.3203125 338.68359375 C15.77164551 337.81895508 16.22297852 336.95431641 16.68798828 336.06347656 C28.36586859 313.40122252 36.2075022 290.29781934 40.83154297 265.24121094 C41.57182253 261.36750029 42.44360747 257.52851534 43.3203125 253.68359375 C48.6003125 253.68359375 53.8803125 253.68359375 59.3203125 253.68359375 C59.3203125 308.46359375 59.3203125 363.24359375 59.3203125 419.68359375 C54.0403125 419.68359375 48.7603125 419.68359375 43.3203125 419.68359375 C42.85882813 418.17152344 42.39734375 416.65945313 41.921875 415.1015625 C38.6603443 404.71100296 35.22725277 394.64704604 30.1328125 384.99609375 C29.52783936 383.84113403 29.52783936 383.84113403 28.91064453 382.6628418 C26.52008392 378.30780457 24.01413599 375.01000318 20.3203125 371.68359375 C19.83377197 372.19108154 19.34723145 372.69856934 18.84594727 373.22143555 C-18.85643679 412.31938636 -67.89015738 437.97552631 -122.95898438 439.79174805 C-172.39282069 440.66331468 -226.37615205 433.29483859 -267.6796875 403.68359375 C-268.58332031 403.049375 -269.48695313 402.41515625 -270.41796875 401.76171875 C-280.35565863 394.66925958 -289.77906959 387.04133709 -298.6796875 378.68359375 C-299.20578613 378.19149414 -299.73188477 377.69939453 -300.27392578 377.19238281 C-309.87219473 368.14013147 -317.99493045 358.3944464 -325.6796875 347.68359375 C-326.12795898 347.06935547 -326.57623047 346.45511719 -327.03808594 345.82226562 C-334.98997543 334.85455734 -340.97421759 322.94322222 -346.6796875 310.68359375 C-346.99421875 310.0086084 -347.30875 309.33362305 -347.6328125 308.63818359 C-358.21208379 285.41493653 -363.14949057 258.95892941 -365.6796875 233.68359375 C-365.79183594 232.59433594 -365.90398437 231.50507812 -366.01953125 230.3828125 C-369.39466614 190.29730633 -364.73320346 150.00080803 -352.6796875 111.68359375 C-352.40930664 110.81476563 -352.13892578 109.9459375 -351.86035156 109.05078125 C-341.7378439 77.03540819 -326.01120838 46.80452164 -303.6796875 21.68359375 C-302.81085938 20.69230469 -301.94203125 19.70101563 -301.046875 18.6796875 C-296.21766468 13.25236398 -291.29807164 8.28130477 -285.6796875 3.68359375 C-284.64832979 2.80481389 -283.61709015 1.92589546 -282.5859375 1.046875 C-210.26978125 -59.63999314 -96.87937812 -65.40594144 0 0 Z " fill="#000000" transform="translate(397.6796875,1175.31640625)"/>
<path d="M0 0 C54.12 0 108.24 0 164 0 C164 4.29 164 8.58 164 13 C162.39253906 13.02578125 160.78507813 13.0515625 159.12890625 13.078125 C144.07566804 13.40564383 144.07566804 13.40564383 129.25 15.8125 C128.57912354 15.96557617 127.90824707 16.11865234 127.21704102 16.27636719 C121.56053492 17.75318537 118.22082029 20.32573218 114.8125 25 C100.05441731 57.56956181 109 142.59682259 109 162 C170.71 162 232.42 162 296 162 C295.87625 145.87125 295.7525 129.7425 295.625 113.125 C295.59100098 108.08879395 295.55700195 103.05258789 295.52197266 97.86376953 C295.40425145 71.56545453 295.40425145 71.56545453 294.1484375 45.3046875 C294.04687851 43.85728683 294.04687851 43.85728683 293.94326782 42.38064575 C293.21620993 34.18397289 291.49187612 26.57136329 285.72265625 20.43359375 C276.87654693 13.07186559 262.12666364 13.64074658 251.375 13.375 C250.08464844 13.33632812 248.79429687 13.29765625 247.46484375 13.2578125 C244.31011012 13.16433891 241.1550755 13.08111831 238 13 C238 8.71 238 4.42 238 0 C292.12 0 346.24 0 402 0 C403 9 403 9 402 13 C401.3922876 13.0093457 400.7845752 13.01869141 400.15844727 13.02832031 C389.78730573 13.22759627 379.51358559 13.44626013 369.375 15.8125 C368.69638916 15.96557617 368.01777832 16.11865234 367.31860352 16.27636719 C361.59860028 17.74545893 358.25683474 20.27634093 354.8125 25 C341.52766525 50.15123297 348.78094947 96.48985644 348.93327808 123.93877625 C348.96702461 130.34609444 348.98992382 136.75345401 349.0145874 143.16081238 C349.06036383 154.57880374 349.1166398 165.99670641 349.1774039 177.41462507 C349.23195885 187.7191794 349.27587273 198.02373432 349.31201172 208.32836914 C349.35883754 221.67790928 349.41555667 235.02736814 349.48018646 248.37683678 C349.5044712 253.43728604 349.52495252 258.49772861 349.54221344 263.55820656 C349.563002 269.52006842 349.59338207 275.48181021 349.63079643 281.44359016 C349.64293285 283.61376629 349.65191977 285.78396301 349.65729713 287.95416641 C349.68502827 298.36994589 349.89579313 308.70598801 350.88128662 319.08061218 C350.99383455 320.30316828 350.99383455 320.30316828 351.10865617 321.55042249 C351.94496293 329.39395143 354.2857405 335.02723959 359.625 340.875 C369.71341532 347.2269652 380.25290227 348.12595569 391.875 348.5625 C392.94492187 348.60568359 394.01484375 348.64886719 395.1171875 348.69335938 C397.74467754 348.79892817 400.37225422 348.90103791 403 349 C403.02686553 350.97909398 403.04633375 352.95828971 403.0625 354.9375 C403.07410156 356.03964844 403.08570313 357.14179687 403.09765625 358.27734375 C403 361 403 361 402 362 C399.88639683 362.09688731 397.7694933 362.12186842 395.65367126 362.12025452 C394.98311425 362.12110894 394.31255724 362.12196337 393.62168032 362.12284368 C391.35835602 362.12450037 389.09510466 362.11897407 386.83178711 362.11352539 C385.21589662 362.11324353 383.60000601 362.11340122 381.9841156 362.1139679 C377.5834776 362.11425593 373.18286661 362.10835829 368.78223491 362.10139394 C364.1884479 362.09516134 359.59466034 362.09455668 355.00086975 362.09336853 C346.29565229 362.09025494 337.59044732 362.08204117 328.88523537 362.07201904 C318.97730082 362.06085877 309.06936569 362.05534767 299.16142642 362.05032361 C278.77427711 362.03985858 258.38713978 362.02205821 238 362 C238 357.71 238 353.42 238 349 C239.80984375 348.96261719 241.6196875 348.92523437 243.484375 348.88671875 C245.90626898 348.82100845 248.32814309 348.75456291 250.75 348.6875 C251.93722656 348.66494141 253.12445312 348.64238281 254.34765625 348.61914062 C265.18252228 348.29350257 274.75188236 346.83033503 284 341 C284.66 341 285.32 341 286 341 C286.28875 340.40832031 286.5775 339.81664062 286.875 339.20703125 C287.83516649 337.3233713 288.90720445 335.49744264 290 333.6875 C293.04923857 327.55501648 293.44861546 320.73881235 294 314 C294.08123108 313.01555908 294.16246216 312.03111816 294.24615479 311.0168457 C295.21539174 297.56413857 295.22696528 284.10718905 295.31640625 270.625 C295.33485135 268.29817392 295.35369009 265.97135093 295.3729248 263.64453125 C295.44086767 255.09639061 295.50124193 246.54819116 295.5625 238 C295.706875 218.86 295.85125 199.72 296 180 C234.29 180 172.58 180 109 180 C109.12375 200.728125 109.2475 221.45625 109.375 242.8125 C109.40899902 249.32202393 109.44299805 255.83154785 109.47802734 262.53833008 C109.51800172 268.44839593 109.51800172 268.44839593 109.56045532 274.35844421 C109.57797167 276.96098561 109.59256665 279.56337453 109.60269165 282.16593933 C108.21322767 310.02461279 108.21322767 310.02461279 116 336 C116.61875 337.0725 117.2375 338.145 117.875 339.25 C123.29882792 345.37312649 134.86471717 347.61945785 142.77075195 348.20532227 C143.75003662 348.24197998 144.72932129 348.2786377 145.73828125 348.31640625 C146.80498047 348.35830078 147.87167969 348.40019531 148.97070312 348.44335938 C150.62489258 348.50233398 150.62489258 348.50233398 152.3125 348.5625 C153.43462891 348.60568359 154.55675781 348.64886719 155.71289062 348.69335938 C158.47512585 348.79914711 161.23754739 348.90004983 164 349 C164 353.29 164 357.58 164 362 C109.88 362 55.76 362 0 362 C0 357.71 0 353.42 0 349 C1.4746875 348.97421875 2.949375 348.9484375 4.46875 348.921875 C25.88076007 348.6227235 25.88076007 348.6227235 45 340 C50.35929753 334.33445689 52.26953159 328.16061492 53.125 320.5625 C53.27195312 319.32628906 53.41890625 318.09007812 53.5703125 316.81640625 C54.95335967 302.26606719 55.14916979 287.79589855 55.14526367 273.19165039 C55.14826218 270.93431544 55.15166628 268.676981 55.15544128 266.41964722 C55.16421668 260.33026456 55.1666167 254.24089599 55.16725707 248.15150762 C55.16797143 244.33334348 55.17011304 240.51518284 55.17275429 236.69701958 C55.18151248 224.02454476 55.18617665 211.35208008 55.18542381 198.67960305 C55.18538386 197.99924762 55.1853439 197.31889218 55.18530273 196.61791992 C55.18524141 195.59610874 55.18524141 195.59610874 55.18517885 194.5536549 C55.18477319 183.5364191 55.19432743 172.5192176 55.2084411 161.5019917 C55.22289163 150.13004614 55.22952444 138.7581224 55.22884732 127.38616556 C55.22859428 121.02571379 55.23133708 114.66530087 55.24202538 108.30485725 C55.25182218 102.31205887 55.25170763 96.31933556 55.24450874 90.32653427 C55.24347701 88.14878032 55.24573978 85.9710214 55.2518692 83.79327583 C55.28190862 72.364163 54.99257385 61.02510483 54.1098175 49.62669373 C54.03228625 48.6104955 53.95475499 47.59429728 53.87487429 46.54730517 C53.19687806 34.35228461 53.19687806 34.35228461 48.25 23.5625 C47.78078125 22.94503906 47.3115625 22.32757812 46.828125 21.69140625 C35.43084413 11.14648613 14.2967773 13.32543685 0 13 C0 8.71 0 4.42 0 0 Z " fill="#000000" transform="translate(541,1241)"/>
<path d="M0 0 C2.93129185 -0.0022278 5.86222861 -0.02067493 8.79345703 -0.03930664 C27.37121568 -0.09530685 45.78297568 1.18663713 64.07861328 4.49780273 C65.91721924 4.82699707 65.91721924 4.82699707 67.79296875 5.1628418 C97.15492898 10.57457817 125.77413479 21.91275233 144.51611328 46.43530273 C158.1738266 66.36213036 162.38498706 88.00203014 158.64111328 111.85327148 C154.11579992 134.50696846 138.93779547 154.05432328 120.11767578 166.76733398 C103.90796108 177.22347235 85.13152035 182.50945548 66.25830078 185.64233398 C63.35275702 186.02517634 63.35275702 186.02517634 61.26611328 187.18530273 C62.01892578 187.72155273 62.77173828 188.25780273 63.54736328 188.81030273 C76.3242146 198.14801756 87.57030925 209.32945813 97.34423828 221.76733398 C99.15305652 224.04306262 101.04643727 226.17377401 103.01611328 228.31030273 C108.5408302 234.46579442 113.42448271 241.12896019 118.40527344 247.72436523 C121.74225915 252.13748724 125.09929506 256.53534949 128.45361328 260.93530273 C129.81819743 262.7256667 131.18278078 264.51603127 132.54736328 266.30639648 C133.18802734 267.1467041 133.82869141 267.98701172 134.48876953 268.8527832 C136.00993677 270.84910626 137.5288934 272.84708463 139.04736328 274.84545898 C145.6077766 283.44002643 152.38499064 291.84606728 159.26611328 300.18530273 C159.75305664 300.77956055 160.24 301.37381836 160.74169922 301.98608398 C185.4330598 332.0156591 210.16718109 349.31178144 249.26611328 354.18530273 C249.26611328 358.47530273 249.26611328 362.76530273 249.26611328 367.18530273 C236.7308686 367.46443808 224.19637357 367.67710907 211.65864372 367.8070488 C205.83543312 367.86944392 200.0143621 367.95394081 194.19238281 368.09057617 C188.56412157 368.22182505 182.9379058 368.2928886 177.30823135 368.32382965 C175.17033839 368.34585163 173.03254633 368.38885759 170.89553452 368.45406342 C160.18213654 368.76768953 151.53658141 368.98998905 143.23535156 361.5222168 C141.1430701 359.49290145 139.2026946 357.36208684 137.26611328 355.18530273 C136.15610652 354.02366155 135.04133962 352.86655014 133.92184448 351.71405029 C128.52004047 346.13870727 123.51648168 340.22416297 118.66064453 334.16967773 C116.88370643 331.95502731 115.09115526 329.76037893 113.27783203 327.57592773 C105.74749691 318.47205561 98.72597169 309.08998619 91.88671875 299.45874023 C89.75632775 296.47015919 87.59885993 293.50165329 85.44189453 290.53222656 C80.90775395 284.28749087 76.43269511 278.00779601 72.03271484 271.66772461 C65.05369356 261.6139217 57.79946447 251.82952918 50.26611328 242.18530273 C49.52917236 241.2378418 49.52917236 241.2378418 48.77734375 240.27124023 C39.95727211 228.93411286 31.02540986 217.73686694 21.26611328 207.18530273 C20.67056641 206.51241211 20.07501953 205.83952148 19.46142578 205.14624023 C13.92699482 199.15273205 6.88595398 195.63508252 -1.29931641 194.97998047 C-2.71325684 194.9249939 -2.71325684 194.9249939 -4.15576172 194.86889648 C-5.18056641 194.82700195 -6.20537109 194.78510742 -7.26123047 194.74194336 C-8.32470703 194.70262695 -9.38818359 194.66331055 -10.48388672 194.62280273 C-11.56283203 194.57961914 -12.64177734 194.53643555 -13.75341797 194.49194336 C-16.413451 194.38601284 -19.07357484 194.28393852 -21.73388672 194.18530273 C-21.6492931 208.63464514 -21.55379941 223.08388215 -21.44635963 237.53307343 C-21.39663722 244.24492873 -21.35042976 250.95677055 -21.31201172 257.66870117 C-21.27469626 264.16570912 -21.2282222 270.66259696 -21.17582321 277.15950012 C-21.15752149 279.61812702 -21.14232795 282.0767794 -21.13054276 284.53544617 C-21.06963787 296.82093687 -20.84255518 309.07073325 -19.95800781 321.32788086 C-19.89787821 322.29223808 -19.8377486 323.25659531 -19.77579689 324.25017548 C-19.13362801 332.02713634 -16.86030107 339.86180665 -11.55029297 345.83764648 C-3.73589132 351.63542835 6.51301511 353.27455966 15.97314453 353.50170898 C16.69853928 353.52249008 17.42393402 353.54327118 18.17131042 353.56468201 C20.47365441 353.62972488 22.7761061 353.68885047 25.07861328 353.74780273 C26.64568142 353.79103108 28.21273893 353.83464671 29.77978516 353.87866211 C33.60845264 353.98535942 37.43722778 354.08675242 41.26611328 354.18530273 C41.26611328 358.47530273 41.26611328 362.76530273 41.26611328 367.18530273 C-16.15388672 367.18530273 -73.57388672 367.18530273 -132.73388672 367.18530273 C-132.73388672 355.18530273 -132.73388672 355.18530273 -131.73388672 354.18530273 C-129.89899681 354.07547776 -128.06023444 354.02937472 -126.22216797 354.00952148 C-104.29601743 354.02923762 -104.29601743 354.02923762 -84.73388672 345.18530273 C-83.11560737 343.58740995 -83.11560737 343.58740995 -81.98388672 341.87280273 C-81.59716797 341.34041992 -81.21044922 340.80803711 -80.81201172 340.25952148 C-77.81936465 334.50192875 -77.20720059 328.17543483 -76.62506104 321.81030273 C-76.4986789 320.44107666 -76.4986789 320.44107666 -76.36974359 319.04418945 C-75.41880247 307.7665188 -75.45357318 296.49487083 -75.47509766 285.18530273 C-75.47238011 282.75325415 -75.46881493 280.32120639 -75.46447754 277.88916016 C-75.45637532 272.02351317 -75.45746292 266.15792404 -75.46330282 260.29227543 C-75.46785692 255.516542 -75.46841622 250.74082288 -75.46625519 245.96508789 C-75.46594872 245.28015605 -75.46564226 244.59522421 -75.4653265 243.88953686 C-75.46468692 242.49723943 -75.46403849 241.104942 -75.46338132 239.71264458 C-75.45770559 226.71847767 -75.4641923 213.72433917 -75.47498205 200.73017693 C-75.48391504 189.62926716 -75.48236221 178.52839925 -75.47314453 167.42749023 C-75.4623928 154.47342747 -75.45825466 141.51938948 -75.46436906 128.56532288 C-75.46500602 127.17872111 -75.46563477 125.79211935 -75.46625519 124.40551758 C-75.46656374 123.72363971 -75.46687229 123.04176184 -75.46719019 122.339221 C-75.4689025 117.58038923 -75.46603402 112.82157344 -75.46129608 108.06274414 C-75.4554673 101.63405525 -75.45961947 95.20544447 -75.47108459 88.77676392 C-75.47370186 86.43445973 -75.47301716 84.09214882 -75.46855927 81.74984741 C-75.44944117 70.67316195 -75.59332277 59.66282091 -76.56256104 48.62280273 C-76.63165357 47.78410645 -76.70074611 46.94541016 -76.77193236 46.08129883 C-77.5247224 38.57196676 -79.48041196 31.41844043 -84.66748047 25.72436523 C-94.05635866 18.73151456 -107.995266 19.0273982 -119.17138672 18.62280273 C-120.28449219 18.57961914 -121.39759766 18.53643555 -122.54443359 18.49194336 C-125.27412863 18.3865045 -128.00399289 18.28546277 -130.73388672 18.18530273 C-130.73388672 13.89530273 -130.73388672 9.60530273 -130.73388672 5.18530273 C-122.95343206 4.20219756 -115.19122514 3.80782953 -107.35888672 3.46655273 C-105.94864051 3.40330796 -104.53840305 3.33986758 -103.12817383 3.27624512 C-100.16625927 3.14328165 -97.20426246 3.01239627 -94.2421875 2.88305664 C-90.55502128 2.72194028 -86.86808207 2.5562008 -83.18118858 2.38897419 C-55.46976471 1.13487773 -27.74428679 -0.0023405 0 0 Z M-21.73388672 15.18530273 C-21.73388672 69.63530273 -21.73388672 124.08530273 -21.73388672 180.18530273 C-10.17992965 180.20677022 -10.17992965 180.20677022 1.34814453 179.85327148 C2.13146652 179.81599442 2.91478851 179.77871735 3.72184753 179.74031067 C5.35592203 179.66071403 6.98990177 179.5791477 8.6237793 179.49560547 C11.06473945 179.37349677 13.50607791 179.26660513 15.94775391 179.15991211 C38.84767063 178.06117145 65.75344604 174.78076783 82.26611328 157.18530273 C99.91258141 136.37827315 101.38782803 109.28627822 100.26611328 83.18530273 C99.81463377 78.03419425 98.73643803 73.14172004 97.26611328 68.18530273 C96.92580078 67.02514648 96.58548828 65.86499023 96.23486328 64.66967773 C90.76732609 47.89763799 82.14622952 33.64364141 66.26611328 25.18530273 C39.58261854 12.37722526 6.98652362 13.27060871 -21.73388672 15.18530273 Z " fill="#000000" transform="translate(2159.73388671875,651.814697265625)"/>
<path d="M0 0 C72.27 0 144.54 0 219 0 C219 5.28 219 10.56 219 16 C217.08415144 17.91584856 213.52735633 17.1608969 210.9140625 17.17578125 C209.41892857 17.19580861 207.92381114 17.21709807 206.42871094 17.23950195 C205.64330933 17.25067047 204.85790771 17.26183899 204.04870605 17.27334595 C187.79769241 17.47236965 187.79769241 17.47236965 171.75 19.8125 C170.68386475 20.04223511 170.68386475 20.04223511 169.59619141 20.27661133 C162.26933092 22.09437138 156.62647934 25.3498869 152.38804722 31.6491766 C147.87151857 39.29845618 147.1559254 48.5208743 146.34008789 57.18920898 C146.27722221 57.85526496 146.21435654 58.52132093 146.14958584 59.20756042 C144.09958392 81.75800608 144.55381165 104.47103907 144.55975223 127.09056783 C144.55798379 133.01663617 144.54122309 138.94264736 144.52429188 144.86868899 C144.49103911 156.61402887 144.46920293 168.35935733 144.45629883 180.10473633 C144.45514459 181.15098798 144.45514459 181.15098798 144.45396704 182.21837603 C144.4508656 185.04343731 144.4477828 187.8684986 144.444727 190.69355992 C144.43619251 198.47092107 144.42528561 206.24827817 144.41333008 214.02563477 C144.41226206 214.72255305 144.41119404 215.41947132 144.41009366 216.13750834 C144.39186053 227.85126722 144.36579927 239.56499945 144.33519894 251.27873224 C144.31872655 257.81351293 144.30659769 264.34824076 144.30496025 270.88304329 C144.29133832 324.00997785 144.29133832 324.00997785 142 349 C141.84304563 350.72944949 141.84304563 350.72944949 141.68292046 352.49383736 C138.39884258 387.8514808 125.80702992 417.61446387 102 444 C101.29617188 444.78761719 100.59234375 445.57523438 99.8671875 446.38671875 C74.40428044 473.35029143 36.17723617 487.08757418 0 491 C-0.9178125 491.10957031 -1.835625 491.21914062 -2.78125 491.33203125 C-39.5642917 494.96193668 -84.97237194 492.51703234 -115 468.4375 C-116.68117939 466.9748491 -118.34951751 465.49720385 -120 464 C-120.96486328 463.17435547 -120.96486328 463.17435547 -121.94921875 462.33203125 C-131.51625978 453.62494896 -137.47878516 441.76176025 -138.30859375 428.921875 C-138.76743026 417.60852981 -137.03793069 408.23728403 -130 399 C-129.46375 398.175 -128.9275 397.35 -128.375 396.5 C-122.60291663 390.42412277 -114.63731788 386.42112918 -106.30078125 385.6640625 C-93.4930905 385.53861989 -84.69697486 387.40253228 -75.1640625 396.6328125 C-67.73351706 404.76080986 -65.55832696 412.77740573 -65.74609375 423.73046875 C-66.1914785 429.46565386 -67.95702993 434.45413902 -70.125 439.74609375 C-72.55982264 445.84160459 -73.92567807 450.56848697 -72 457 C-69.32202164 462.57019499 -65.50374126 465.48448636 -60 468 C-35.38861114 476.37236744 -8.60724766 474.99043054 15 464 C39.72564795 451.18761879 57.55688091 429.44615166 66 403 C68.9087179 392.21830434 69.93613841 381.33412877 70.88037109 370.24365234 C71.12288696 367.39977865 71.37866698 364.55734546 71.63671875 361.71484375 C71.80287076 359.83861123 71.96825892 357.96231088 72.1328125 356.0859375 C72.20573517 355.27063568 72.27865784 354.45533386 72.35379028 353.61532593 C73.84003058 335.9849787 74.1529422 318.3709812 74.16113281 300.68701172 C74.1657748 298.31561203 74.17080124 295.94421307 74.17617798 293.57281494 C74.18917293 287.18762277 74.19572164 280.80244105 74.20018864 274.41723776 C74.20314095 270.40802083 74.20722011 266.39880664 74.21169281 262.38959122 C74.2238647 251.22497397 74.23416806 240.06035852 74.2375679 228.89573479 C74.23778747 228.18495795 74.23800703 227.47418111 74.23823325 226.74186558 C74.23845153 226.029676 74.23866981 225.31748641 74.2388947 224.58371532 C74.23933812 223.14125943 74.23978468 221.69880354 74.24023438 220.25634766 C74.2404558 219.54088501 74.24067723 218.82542236 74.24090537 218.08827902 C74.24484193 206.53094155 74.26227035 194.97366755 74.2855939 183.41635452 C74.30950851 171.4668036 74.32177877 159.51728426 74.32293582 147.56770909 C74.32384142 140.892338 74.32964054 134.21706759 74.34775543 127.54171371 C74.54408367 93.28550052 74.54408367 93.28550052 72.66699219 59.09814453 C72.60863646 58.42153393 72.55028073 57.74492332 72.49015665 57.04780936 C71.31526313 43.98502038 69.09767135 34.09767135 59.6875 24.6875 C43.37922098 14.44741782 18.58890694 17.42862771 0 17 C0 11.39 0 5.78 0 0 Z " fill="#000000" transform="translate(213,549)"/>
<path d="M0 0 C0.72515808 0.00093658 1.45031616 0.00187317 2.19744873 0.00283813 C57.51835569 0.15707717 108.83220577 18.88916905 149.0625 57.1875 C149.83078125 57.89132812 150.5990625 58.59515625 151.390625 59.3203125 C163.06452268 70.36432362 171.76923573 83.97314982 179.0625 98.1875 C179.38057617 98.79916016 179.69865234 99.41082031 180.02636719 100.04101562 C202.88244231 144.51124748 204.71995387 204.0025434 189.74609375 251.20703125 C181.75450756 275.22888227 170.36286712 296.26746572 153.1171875 314.9453125 C151.34560243 316.87856313 149.66467659 318.85039334 148 320.875 C118.39395497 355.6240069 68.09331325 372.11815167 24.078125 375.71875 C-32.89319164 379.94244369 -89.19455948 367.66171979 -133.375 330.0625 C-143.7714035 320.98824148 -152.75757592 311.2803331 -160.9375 300.1875 C-161.3603125 299.61966797 -161.783125 299.05183594 -162.21875 298.46679688 C-192.95586026 256.63551088 -199.87600819 201.00081668 -192.57910156 150.71777344 C-187.33029134 117.28832818 -173.19029453 86.79220118 -149.9375 62.1875 C-148.74484478 60.79606891 -147.55709687 59.40041206 -146.375 58 C-115.53182607 22.80084251 -64.90019439 3.95371558 -19.2824707 0.37939453 C-12.85846577 0.01086173 -6.43240057 -0.01078241 0 0 Z M-92.18676758 51.07470703 C-125.51747337 85.71973839 -132.58633267 138.86507611 -132.32861328 184.79199219 C-132.31250115 188.18725716 -132.32860388 191.58133247 -132.34765625 194.9765625 C-132.38347136 231.84142234 -126.93119913 269.56237406 -108.9375 302.1875 C-108.42316406 303.12980469 -107.90882812 304.07210938 -107.37890625 305.04296875 C-103.82642539 311.25258976 -99.54731955 316.73080072 -94.9375 322.1875 C-93.9784375 323.34958984 -93.9784375 323.34958984 -93 324.53515625 C-73.90111036 346.98405274 -44.59452799 357.98684493 -15.9375 361.1875 C-14.96554687 361.29835938 -13.99359375 361.40921875 -12.9921875 361.5234375 C21.37839039 364.77589628 54.76358994 359.26768289 82.3671875 337.41796875 C83.25664063 336.68191406 84.14609375 335.94585938 85.0625 335.1875 C85.91070313 334.50300781 86.75890625 333.81851562 87.6328125 333.11328125 C120.75199753 305.02945821 131.99764648 259.17582734 135.5234375 217.76953125 C139.74208335 161.67175527 134.97993402 98.45772305 97.32421875 53.76953125 C75.11518206 28.4151733 45.25267593 16.82551349 12.13110352 14.52685547 C-27.42800846 12.34723215 -63.87913365 22.54992089 -92.18676758 51.07470703 Z " fill="#000000" transform="translate(1782.9375,649.8125)"/>
<path d="M0 0 C1.65264894 1.51342422 3.29865485 3.0341388 4.9375 4.5625 C5.68902344 5.25988281 6.44054688 5.95726562 7.21484375 6.67578125 C39.11234311 37.33998538 54.22135667 82.95412071 55.15625 126.39453125 C56.06525246 179.76954456 42.5163782 229.09369313 4.98828125 268.44140625 C-30.58799299 305.07763922 -80.40542723 323.35262183 -131.0625 324.5625 C-131.84802246 324.58296387 -132.63354492 324.60342773 -133.44287109 324.62451172 C-192.19120062 325.95945029 -244.06394863 308.98233769 -287.0625 268.5625 C-288.09310547 267.63050781 -288.09310547 267.63050781 -289.14453125 266.6796875 C-320.68344455 237.06630786 -336.74899473 190.30961529 -338.18676758 147.89672852 C-338.28170308 143.72289673 -338.30908096 139.54981831 -338.3125 135.375 C-338.31317474 134.6294989 -338.31384949 133.8839978 -338.31454468 133.11590576 C-338.24566078 84.88559238 -323.11940652 40.35128847 -289.0625 5.5625 C-288.38960937 4.83933594 -287.71671875 4.11617187 -287.0234375 3.37109375 C-260.72292829 -24.32837871 -222.85422338 -40.86796973 -186.0625 -48.4375 C-185.19093262 -48.61684082 -184.31936523 -48.79618164 -183.42138672 -48.98095703 C-118.71596796 -61.45623114 -49.24243719 -43.60399019 0 0 Z M-231.0625 -5.4375 C-231.71347656 -4.86773438 -232.36445313 -4.29796875 -233.03515625 -3.7109375 C-264.8719483 25.64213318 -273.86761227 75.48806787 -275.85375977 116.65039062 C-275.94140845 118.95429885 -276.0070713 121.25758995 -276.0625 123.5625 C-276.08441406 124.46452148 -276.10632812 125.36654297 -276.12890625 126.29589844 C-277.09929787 174.57288164 -272.53481424 231.56690005 -239.0625 269.5625 C-237.99902344 270.82320312 -237.99902344 270.82320312 -236.9140625 272.109375 C-216.97947202 295.1915324 -187.05154636 307.16998049 -157.0625 309.5625 C-122.03098133 311.96123868 -87.76764547 308.46083159 -60.0625 284.5625 C-58.78052734 283.48548828 -58.78052734 283.48548828 -57.47265625 282.38671875 C-45.99507123 272.43004638 -37.56115943 261.66138257 -30.0625 248.5625 C-29.43472656 247.47582031 -28.80695312 246.38914062 -28.16015625 245.26953125 C0.12349988 192.61447074 -0.06142902 114.27420114 -16.57373047 58.22875977 C-26.98198703 24.63731268 -45.79102108 -6.25525617 -77.5 -23.3125 C-94.43495744 -32.02927312 -114.00599557 -36.89572052 -133.0625 -37.4375 C-133.74070801 -37.45796387 -134.41891602 -37.47842773 -135.11767578 -37.49951172 C-170.87942788 -38.43390429 -204.29756044 -30.11439463 -231.0625 -5.4375 Z " fill="#000000" transform="translate(3643.0625,1286.4375)"/>
<path d="M0 0 C13.93390895 -0.48854352 27.86575419 -0.86065504 41.80651093 -1.08805561 C48.28181765 -1.19725885 54.751231 -1.34506761 61.22314453 -1.58422852 C67.48071599 -1.81399682 73.73265908 -1.93826666 79.99412537 -1.9924221 C82.37097329 -2.0309569 84.7475433 -2.10622732 87.1219635 -2.22033119 C105.15501666 -3.05171258 105.15501666 -3.05171258 111.52658081 2.00531387 C116.23051661 6.93685284 119.85929498 12.44436833 123.33488464 18.28324318 C125.99256388 22.61944017 129.06448013 26.63116484 132.125 30.6875 C133.27531009 32.25253161 134.42397878 33.81877224 135.5703125 35.38671875 C139.52903764 40.74669257 143.63629395 45.98636555 147.74829102 51.22900391 C152.56295435 57.3880606 157.20661933 63.66207444 161.82470703 69.96923828 C167.19980923 77.30055964 172.71325179 84.51963074 178.25341797 91.7265625 C187.23457705 103.41688307 196.14494742 115.14977294 204.85131836 127.04638672 C208.81088011 132.43714924 212.87264036 137.73686999 217 143 C221.72949963 149.03096739 226.34862004 155.12759914 230.875 161.3125 C238.4419682 171.65041078 246.21244641 181.82774101 254 192 C262.38087782 202.94727103 270.70954566 213.92134483 278.85205078 225.04736328 C282.81135042 230.43781641 286.87294694 235.73714514 291 241 C299.67434178 252.06356465 307.94218375 263.41836695 316.20947266 274.78735352 C316.92173004 275.76680435 317.63398743 276.74625519 318.36782837 277.75538635 C318.90644501 278.49610886 319.44506165 279.23683136 320 280 C320.09143285 250.97174146 320.16213255 221.94349709 320.20426132 192.91512311 C320.20926359 189.48085006 320.21444093 186.0465773 320.21972656 182.61230469 C320.2207758 181.92866026 320.22182505 181.24501583 320.22290608 180.5406549 C320.24026743 169.50012562 320.27178129 158.45968044 320.30861118 147.4192009 C320.34614 136.07380048 320.36796194 124.72846205 320.37635398 113.38299561 C320.38155269 107.01749435 320.39370671 100.65218326 320.42292023 94.28674316 C320.45023876 88.28511017 320.4584119 82.28374417 320.45243073 76.2820549 C320.45352364 74.08923259 320.46137876 71.89640056 320.4768219 69.70363235 C321.00327826 47.99892357 321.00327826 47.99892357 312 29 C312 28.34 312 27.68 312 27 C311.44828125 26.72929688 310.8965625 26.45859375 310.328125 26.1796875 C308.7173515 25.36349019 307.12420708 24.51189885 305.546875 23.6328125 C291.11078681 15.85022865 276.07678205 14.25188057 260 13 C260 8.71 260 4.42 260 0 C303.23 0 346.46 0 391 0 C391 4.29 391 8.58 391 13 C389.3809375 13.27972656 387.761875 13.55945313 386.09375 13.84765625 C362.63348348 17.65446297 362.63348348 17.65446297 343.4765625 30.7890625 C335.68213267 42.46008707 335.69926679 58.02314701 335.7215271 71.56625366 C335.7128385 73.50142442 335.7128385 73.50142442 335.70397437 75.47568953 C335.68835117 79.01276767 335.68475359 82.54976602 335.68332577 86.08687449 C335.67960039 89.9176342 335.6644297 93.7483517 335.65071106 97.5790863 C335.6285321 104.20156782 335.61346278 110.82403413 335.60334396 117.44654465 C335.58870373 127.02135392 335.56315223 136.59611015 335.53501268 146.17088814 C335.48964134 161.70863789 335.45298679 177.24639532 335.421875 192.78417969 C335.39164977 207.86980536 335.35728136 222.9554123 335.31738281 238.04101562 C335.31492126 238.97226711 335.31245972 239.9035186 335.30992357 240.86298983 C335.2975482 245.53521543 335.28509182 250.20744081 335.27259517 254.87966609 C335.16917212 293.58641805 335.07992133 332.29319279 335 371 C333.08678185 371.10454416 331.17190878 371.17908653 329.25683594 371.2409668 C327.65772369 371.30806099 327.65772369 371.30806099 326.02630615 371.37651062 C322.35187385 370.91936494 321.2649792 369.9118934 318.890625 367.14453125 C317.63788635 365.3945941 316.42617459 363.61478952 315.25 361.8125 C313.8839293 359.87291086 312.51670907 357.93413092 311.1484375 355.99609375 C310.46362305 354.99819824 309.77880859 354.00030273 309.07324219 352.97216797 C305.82828951 348.32025395 302.34641882 343.85881078 298.875 339.375 C293.20917972 331.96553282 287.65641386 324.47947008 282.14794922 316.95263672 C277.62936004 310.80072971 272.96214241 304.77661781 268.25170898 298.77099609 C263.43704565 292.6119394 258.79338067 286.33792556 254.17529297 280.03076172 C248.80019077 272.69944036 243.28674821 265.48036926 237.74658203 258.2734375 C228.76542295 246.58311693 219.85505258 234.85022706 211.14868164 222.95361328 C206.62982523 216.80139661 201.96239435 210.77693904 197.25170898 204.77099609 C192.43704565 198.6119394 187.79338067 192.33792556 183.17529297 186.03076172 C177.80019077 178.69944036 172.28674821 171.48036926 166.74658203 164.2734375 C157.673056 152.46288754 148.67145484 140.60747064 139.86303711 128.59765625 C135.47647487 122.62425152 130.9895858 116.74071414 126.45214844 110.88085938 C118.13965379 100.11430611 109.9082423 89.28914229 101.875 78.3125 C96.80911771 71.3920018 91.62846845 64.57533916 86.31982422 57.83911133 C82.39520409 52.84618313 78.57190473 47.7816735 74.76611328 42.69799805 C74.21065323 41.95667381 73.65519318 41.21534958 73.082901 40.45156097 C71.72158829 38.63463251 70.36063107 36.81743895 69 35 C68.95415994 69.26846609 68.91894905 103.53692515 68.89786934 137.80541531 C68.89536811 141.85684919 68.89277945 145.90828301 68.89013672 149.9597168 C68.88934979 151.16949972 68.88934979 151.16949972 68.88854696 152.4037227 C68.87985912 165.43981576 68.86409813 178.47589107 68.84569441 191.51197363 C68.82695015 204.90156189 68.81587373 218.29114089 68.81182301 231.68074173 C68.80908732 239.93388886 68.80046643 248.1869858 68.78416707 256.44011747 C68.77354424 262.10991473 68.77041129 267.77968628 68.77299725 273.44949276 C68.77427035 276.71409447 68.77128985 279.97859124 68.76158905 283.24318123 C67.61867747 309.70699025 67.61867747 309.70699025 77.80078125 333.17578125 C91.36090101 346.73590101 112.89485461 348.3643472 131 349 C131 353.29 131 357.58 131 362 C86.45 362 41.9 362 -4 362 C-4 357.71 -4 353.42 -4 349 C-2.76507812 348.85304688 -1.53015625 348.70609375 -0.2578125 348.5546875 C17.35018299 346.29132751 35.82411563 343.04656348 47.80859375 328.80859375 C50.79813886 324.27036626 51.54235266 319.47166306 52.10882568 314.15986633 C52.19308044 313.37628826 52.2773352 312.5927102 52.36414313 311.78538734 C53.37906348 301.35585214 53.2796599 290.9102539 53.25878906 280.44213867 C53.26150562 278.12875763 53.26507026 275.81537746 53.26940918 273.5019989 C53.27845788 267.27042665 53.27501979 261.0389213 53.26865101 254.80734801 C53.26354997 248.25090223 53.26829395 241.69446178 53.27142334 235.13801575 C53.2756816 223.42591773 53.26910754 211.71384757 53.25890467 200.00175438 C53.24997764 189.4278311 53.25151877 178.85395178 53.26074219 168.2800293 C53.27149743 155.9445568 53.27540117 143.60911224 53.26951766 131.27363569 C53.26641966 124.76467512 53.26592815 118.25574468 53.27259064 111.74678612 C53.27842393 105.62100187 53.27425925 99.49529952 53.26280212 93.369524 C53.26018687 91.13848887 53.26086598 88.90744669 53.26532745 86.67641449 C54.47815624 51.00197785 54.47815624 51.00197785 40.9375 19.6875 C31.56435689 14.30292843 19.63684265 13.92802084 9.0625 13.4375 C7.75055664 13.37272461 7.75055664 13.37272461 6.41210938 13.30664062 C4.27488005 13.20153099 2.13745762 13.10036015 0 13 C0 8.71 0 4.42 0 0 Z " fill="#000000" transform="translate(3260,657)"/>
<path d="M0 0 C46.18187541 -1.18565816 86.15914086 14.44881845 119.83642578 46.06201172 C121.85060631 48.04845204 123.84465377 50.05297001 125.83642578 52.06201172 C131.19287035 39.3795708 134.17270902 26.54560452 136.83642578 13.06201172 C141.12642578 13.06201172 145.41642578 13.06201172 149.83642578 13.06201172 C149.83642578 53.32201172 149.83642578 93.58201172 149.83642578 135.06201172 C145.54642578 135.06201172 141.25642578 135.06201172 136.83642578 135.06201172 C136.54509766 133.53833984 136.25376953 132.01466797 135.95361328 130.44482422 C130.98915356 105.12607966 123.48317203 81.37668511 106.83642578 61.06201172 C106.00945055 60.01004811 105.18263708 58.95795731 104.35595703 57.90576172 C85.51532291 34.36015457 57.91226827 19.43074917 27.91015625 16.02636719 C-5.08989362 12.7908444 -38.24638874 19.85587703 -64.36791992 41.15405273 C-67.02664842 43.39472017 -69.59768687 45.71508009 -72.16357422 48.06201172 C-73.39720703 49.17189453 -73.39720703 49.17189453 -74.65576172 50.30419922 C-85.33121832 60.38862708 -92.14385598 72.85111458 -98.16357422 86.06201172 C-98.62505859 87.06103516 -99.08654297 88.06005859 -99.56201172 89.08935547 C-110.11714666 114.13258964 -113.25602473 143.49971427 -113.36669922 170.46435547 C-113.37371353 171.61251236 -113.38072784 172.76066925 -113.38795471 173.94361877 C-113.40536399 177.62895674 -113.41180678 181.31413414 -113.41357422 184.99951172 C-113.41424896 186.25666992 -113.41492371 187.51382813 -113.4156189 188.80908203 C-113.37312597 238.5615428 -107.49506987 291.04792711 -71.85107422 328.81201172 C-49.38729181 350.28182145 -19.59898688 360.86254843 11.14892578 361.37451172 C35.75092524 360.75512603 63.72042725 354.43544579 81.76611328 336.45263672 C95.63729058 320.43535275 99.2119717 301.84438635 99.15209961 281.1574707 C99.14895473 278.89533527 99.17242689 276.63453206 99.19775391 274.37255859 C99.25675463 260.70826942 98.9128555 244.82882482 89.27392578 234.24951172 C80.44974473 227.59778133 66.93011472 227.91747042 56.39892578 227.49951172 C55.38121094 227.45632813 54.36349609 227.41314453 53.31494141 227.36865234 C50.82223242 227.26332661 48.32934492 227.16224029 45.83642578 227.06201172 C45.83642578 222.77201172 45.83642578 218.48201172 45.83642578 214.06201172 C97.64642578 214.06201172 149.45642578 214.06201172 202.83642578 214.06201172 C202.83642578 218.35201172 202.83642578 222.64201172 202.83642578 227.06201172 C201.48291016 227.15998047 200.12939453 227.25794922 198.73486328 227.35888672 C178.99076646 228.20250091 178.99076646 228.20250091 162.28727722 237.30952454 C157.03599953 243.65255636 155.92383393 250.68069581 155.12939453 258.67529297 C155.00807663 259.83418533 154.88675873 260.9930777 154.76176453 262.18708801 C153.26851429 278.00203292 153.26970735 293.88372255 153.16687012 309.75598145 C153.13646437 313.98113985 153.09015077 318.20612573 153.04541016 322.43115234 C152.96069599 330.6413516 152.89278528 338.85156892 152.83642578 347.06201172 C151.96079987 347.05643753 151.08517395 347.05086334 150.18301392 347.04512024 C149.02530487 347.04078476 147.86759583 347.03644928 146.67480469 347.03198242 C145.53105377 347.02640823 144.38730286 347.02083405 143.20889282 347.01509094 C138.48321937 347.08083874 133.88502655 347.57962171 129.21142578 348.24951172 C128.26614014 348.38478271 127.32085449 348.52005371 126.34692383 348.65942383 C112.09297421 350.82063369 98.9908161 354.90166205 85.52392578 359.99951172 C34.84041762 379.17409511 -22.76852999 383.86455724 -73.16650391 361.15966797 C-88.78778716 353.8813127 -102.92084153 345.07979417 -116.16357422 334.06201172 C-117.47648437 332.98113281 -117.47648437 332.98113281 -118.81591797 331.87841797 C-122.81824407 328.49508079 -122.81824407 328.49508079 -124.16357422 327.06201172 C-124.16357422 326.40201172 -124.16357422 325.74201172 -124.16357422 325.06201172 C-124.82357422 325.06201172 -125.48357422 325.06201172 -126.16357422 325.06201172 C-127.64404297 323.59326172 -127.64404297 323.59326172 -129.35107422 321.56201172 C-132.02233255 318.39328067 -132.02233255 318.39328067 -134.79248047 315.31201172 C-167.80922194 279.66984261 -178.79732417 231.23056766 -177.32763672 184.02490234 C-175.23914694 133.57792901 -154.58812155 85.66422279 -119.50390625 49.45361328 C-118.30861786 48.21260348 -117.13852896 46.94743488 -115.97216797 45.67919922 C-88.14654223 16.21677196 -45.49403465 1.96403109 -5.84716797 0.15185547 C-3.89803446 0.10431563 -1.94891283 0.05585916 0 0 Z " fill="#000000" transform="translate(2612.16357421875,649.93798828125)"/>
<path d="M0 0 C85.14 0 170.28 0 258 0 C259.55042224 3.10084447 259.53321845 6.46307643 259.84790039 9.87451172 C259.92607498 10.68767853 260.00424957 11.50084534 260.08479309 12.33865356 C260.3429989 15.03530759 260.59541606 17.73246942 260.84765625 20.4296875 C261.02529322 22.30057539 261.20322989 24.17143484 261.38145447 26.04226685 C261.75458184 29.96788969 262.12501986 33.89375388 262.4934082 37.81982422 C262.96576344 42.85306444 263.44326711 47.88579891 263.92260075 52.91837883 C264.29044738 56.78379935 264.65630406 60.64940606 265.02148247 64.5150795 C265.19687381 66.37067957 265.37271029 68.22623763 265.54899788 70.08175278 C265.7950721 72.67655955 266.03864953 75.27158846 266.28149414 77.86669922 C266.39134644 79.01860748 266.39134644 79.01860748 266.50341797 80.19378662 C266.80914053 83.48640998 267 86.68894235 267 90 C262.94638511 90.77211712 259.12876411 91.28150664 255 91 C252.26373518 88.26373518 252.10906774 85.29121706 251.375 81.625 C246.85851253 61.07884698 237.63046367 36.65521335 219.5234375 24.6015625 C218.69070313 24.07304688 217.85796875 23.54453125 217 23 C216.37351562 22.59523438 215.74703125 22.19046875 215.1015625 21.7734375 C199.35044082 12.76297051 175.51899228 13.71464128 157.8359375 13.5859375 C156.36498065 13.56892456 154.89403297 13.55109993 153.4230957 13.5324707 C148.07383498 13.4702343 142.7244031 13.42347846 137.375 13.375 C125.37125 13.25125 113.3675 13.1275 101 13 C101 62.5 101 112 101 163 C140.40359301 166.21470263 140.40359301 166.21470263 181.5625 154.75 C192.19844045 142.75047744 190.50491501 125.07795412 191 110 C195.07173736 109.28246307 198.85703932 108.80730415 203 109 C205.167829 111.167829 204.26237435 116.21819036 204.31640625 119.23046875 C204.33723267 120.2164505 204.35805908 121.20243225 204.3795166 122.21829224 C204.44674518 125.54127293 204.50519036 128.86433421 204.5625 132.1875 C204.59426834 133.89684219 204.59426834 133.89684219 204.62667847 135.64071655 C205.21946044 168.09055015 205.09221816 200.54630302 205 233 C200.38 233 195.76 233 191 233 C191.04125 231.535625 191.0825 230.07125 191.125 228.5625 C191.09153845 215.54595842 190.52758427 197.49190157 182.25 186.875 C172.49760805 177.24390646 157.97551659 177.70879582 145.140625 177.5859375 C143.87023376 177.56657135 142.59984253 177.5472052 141.29095459 177.5272522 C137.95712624 177.47803578 134.62339581 177.43659064 131.28942871 177.39910889 C127.86994079 177.35868578 124.45060954 177.30777096 121.03125 177.2578125 C114.35426848 177.16234453 107.67721708 177.07714162 101 177 C101.08443949 192.41383617 101.17976282 207.82757782 101.28752708 223.2412672 C101.33733542 230.40048851 101.38377752 237.55970014 101.421875 244.71899414 C101.45514691 250.96977253 101.49516226 257.22046799 101.54279006 263.47115403 C101.56771162 266.77108931 101.58857943 270.07096369 101.60334396 273.37096214 C99.88944571 307.12068994 99.88944571 307.12068994 110.40234375 337.80078125 C121.71908656 347.3817229 137.33414026 347.14944958 151.42578125 347.203125 C152.60859177 347.20882507 153.79140228 347.21452515 155.01005554 347.22039795 C157.50872922 347.22980981 160.0074151 347.23636669 162.50610352 347.24023438 C166.26276366 347.2498724 170.0188601 347.28090555 173.77539062 347.3125 C201.72542395 347.43496411 229.30367113 345.11809639 250.4140625 324.8125 C267.39293738 306.34604998 277.40925292 282.4990487 283.9921875 258.6015625 C284.89597568 255.37174584 285.93940824 252.18177527 287 249 C291.29 249 295.58 249 300 249 C299.38761086 262.89900722 298.59884865 276.77420301 297.625 290.65234375 C297.49418701 292.53608913 297.36349296 294.41984277 297.23291016 296.30360413 C296.96213978 300.20177865 296.6896864 304.0998308 296.41601562 307.99780273 C296.06614226 312.98370371 295.72105349 317.96992325 295.37722778 322.95624447 C295.10989659 326.82457259 294.83986305 330.69270849 294.56903076 334.56079292 C294.44057155 336.40067989 294.31299548 338.24062875 294.18634033 340.08064079 C294.00982107 342.63982042 293.82960381 345.19871407 293.6484375 347.75756836 C293.59749939 348.50716827 293.54656128 349.25676819 293.49407959 350.02908325 C293.20146214 354.10085559 292.6743545 357.95387297 292 362 C193.66 362 95.32 362 -6 362 C-6 357.71 -6 353.42 -6 349 C-4.8140625 348.96261719 -3.628125 348.92523437 -2.40625 348.88671875 C18.34993917 348.64448499 18.34993917 348.64448499 36.7578125 340.5625 C43.73694945 332.58634349 45.6335755 322.89869501 46.23339844 312.58007812 C46.30859585 311.40348885 46.38379326 310.22689957 46.46126938 309.01465607 C47.58593776 288.52123218 47.29062815 267.95338136 47.26865101 247.43743324 C47.26351511 241.12588972 47.26830319 234.81435143 47.27142334 228.50280762 C47.2752716 217.23810729 47.26913559 205.97343545 47.25890467 194.70874184 C47.24997318 184.56183448 47.25152647 174.41497294 47.26074219 164.26806641 C47.27152309 152.39281256 47.27538827 140.51758077 47.26951766 128.64232111 C47.26643209 122.38982707 47.26589283 116.13736434 47.27259064 109.88487244 C50.83375951 63.39314413 50.83375951 63.39314413 38 21 C29.97725764 14.53723532 18.49052021 13.9174017 8.625 13.4375 C7.79355469 13.39431641 6.96210937 13.35113281 6.10546875 13.30664062 C4.07046772 13.20138195 2.03525297 13.10026928 0 13 C0 8.71 0 4.42 0 0 Z " fill="#000000" transform="translate(1705,1241)"/>
<path d="M0 0 C10.51143877 8.40276108 10.51143877 8.40276108 14.625 13.5 C14.625 14.16 14.625 14.82 14.625 15.5 C15.285 15.5 15.945 15.5 16.625 15.5 C16.88410156 14.97277344 17.14320313 14.44554687 17.41015625 13.90234375 C18.32744236 12.08841784 19.27879409 10.29166249 20.24609375 8.50390625 C24.43952383 0.55893442 26.93978697 -6.57828398 28.625 -15.5 C32.915 -15.5 37.205 -15.5 41.625 -15.5 C41.625 15.85 41.625 47.2 41.625 79.5 C37.335 79.5 33.045 79.5 28.625 79.5 C28.2846875 78.241875 27.944375 76.98375 27.59375 75.6875 C19.16578317 45.5368705 2.30882065 18.3552791 -25.375 2.5 C-36.30171425 -3.44898887 -48.92191054 -7.06027226 -61.375 -7.5 C-62.63828125 -7.56316406 -63.9015625 -7.62632813 -65.203125 -7.69140625 C-82.25092251 -8.29462388 -97.38580389 -4.5212075 -110.625 6.75 C-121.60300347 17.22346765 -127.38554781 29.2951253 -127.91577148 44.43701172 C-128.05201739 61.68360029 -122.47816953 75.14188729 -110.375 87.5 C-107.48936737 89.9802851 -104.46738445 92.22261591 -101.375 94.4375 C-100.53614258 95.0444873 -99.69728516 95.65147461 -98.83300781 96.27685547 C-91.57639662 101.46744404 -84.18773815 106.19767248 -76.375 110.5 C-75.59334473 110.9345752 -74.81168945 111.36915039 -74.00634766 111.81689453 C-62.34372511 118.24797867 -50.42111984 123.88519153 -38.1875 129.125 C-26.0852194 134.31045736 -14.21635393 139.86607073 -2.4375 145.75 C-1.70367096 146.11409973 -0.96984192 146.47819946 -0.21377563 146.85333252 C7.90819187 150.89186727 15.89062334 155.12299858 23.73046875 159.6875 C24.41366684 160.0823761 25.09686493 160.4772522 25.80076599 160.88409424 C48.12702479 174.09344412 62.96951115 195.64275757 69.625 220.5 C76.83122184 248.71491188 72.91769806 278.21067506 58.625 303.5 C56.15655902 307.34371524 53.49158052 310.94500989 50.625 314.5 C49.94824219 315.34175781 49.27148438 316.18351562 48.57421875 317.05078125 C30.10799 338.75788378 1.6896289 351.05580682 -26.375 353.5 C-64.46041422 355.32063423 -99.08937328 346.74534254 -128.375 321.5 C-132.52383742 317.64717644 -136.46855235 313.59649105 -140.375 309.5 C-147.88553884 319.00756073 -150.40251157 331.00216177 -153.375 342.5 C-157.995 342.5 -162.615 342.5 -167.375 342.5 C-167.375 303.89 -167.375 265.28 -167.375 225.5 C-162.755 225.5 -158.135 225.5 -153.375 225.5 C-152.8903125 227.42199219 -152.405625 229.34398437 -151.90625 231.32421875 C-145.07648188 257.95635463 -137.20625379 283.96557134 -119.375 305.5 C-118.31345703 306.80710937 -118.31345703 306.80710937 -117.23046875 308.140625 C-100.98915576 327.22050981 -78.41871597 336.15456803 -53.91015625 338.18359375 C-31.68675067 339.80093054 -11.03832993 335.76653572 6.625 321.5 C7.40359375 320.88382813 8.1821875 320.26765625 8.984375 319.6328125 C21.55026397 309.13312675 29.54359653 293.717602 31.625 277.5 C33.00225183 258.7800324 29.68889841 241.84878578 17.25390625 227.125 C-0.79518487 209.10272773 -24.97565873 197.13985376 -48.24414062 187.3984375 C-56.65760916 183.85105388 -65.02078763 180.18432246 -73.375 176.5 C-74.14247559 176.16242676 -74.90995117 175.82485352 -75.70068359 175.47705078 C-95.01242109 166.91132495 -115.58120945 156.64096023 -131.5625 142.6875 C-132.15562988 142.17179443 -132.74875977 141.65608887 -133.35986328 141.12475586 C-150.48307909 125.91062635 -161.81599037 103.26171723 -164.375 80.5 C-165.84896432 52.31517291 -161.13131301 29.1801827 -142.375 7.5 C-141.53388672 6.50806641 -141.53388672 6.50806641 -140.67578125 5.49609375 C-105.14836356 -33.07397433 -39.25481709 -30.54085663 0 0 Z " fill="#000000" transform="translate(1565.375,1256.5)"/>
<path d="M0 0 C3.96 0 7.92 0 12 0 C13.1015625 2.63151042 14.203125 5.26302083 15.3046875 7.89453125 C15.83015671 9.1498188 15.83015671 9.1498188 16.36624146 10.4304657 C17.51417542 13.17275238 17.51417542 13.17275238 18.66210938 15.91503906 C19.06236328 16.87120117 19.46261719 17.82736328 19.875 18.8125 C24.02636719 28.72965495 28.17773438 38.6468099 32.32910156 48.56396484 C32.70117233 49.45279861 33.0732431 50.34163239 33.45658875 51.25740051 C34.19830377 53.02927926 34.94001318 54.80116035 35.68171692 56.57304382 C37.53694629 61.00505022 39.39227709 65.43701411 41.24780273 69.86889648 C44.61667543 77.9156424 47.98488504 85.96266206 51.34936523 94.01124573 C59.32269705 113.0850077 67.32220478 132.14713886 75.375 151.1875 C81.98373949 166.81421342 88.5432034 182.46076277 95.0625 198.125 C95.68747375 199.62639023 95.68747375 199.62639023 96.32507324 201.15811157 C97.99504068 205.16997333 99.66484477 209.18190305 101.33450317 213.19389343 C113.42474662 242.24419861 125.59210541 271.25682838 138.06098938 300.14703369 C140.08988267 304.85670328 142.08004162 309.57954464 144.03515625 314.3203125 C150.50638256 329.92093463 156.47896195 342.11275557 172.69140625 349.171875 C179.02177164 351.65719626 185.29095533 352.9544346 192 354 C192 358.29 192 362.58 192 367 C144.81 367 97.62 367 49 367 C49 362.71 49 358.42 49 354 C50.66546875 353.89042969 52.3309375 353.78085938 54.046875 353.66796875 C56.28128973 353.5083677 58.5156626 353.34817998 60.75 353.1875 C62.38775391 353.08211914 62.38775391 353.08211914 64.05859375 352.97460938 C77.57653728 352.36166676 77.57653728 352.36166676 89.1875 346.4375 C92.73893052 341.66143826 92.58755208 337.82536392 92 332 C89.53535702 319.74601664 84.34720716 308.44551768 79.3578949 297.05111694 C74.93090402 286.93329419 70.7369889 276.72418796 66.5625 266.5 C65.55211398 264.02694029 64.54168896 261.55389654 63.53114319 259.0809021 C62.8961694 257.52617293 62.26182422 255.97118686 61.62815857 254.41592407 C60.24277967 251.01935373 58.84896575 247.62743007 57.41748047 244.25 C56.95873535 243.1671875 56.49999023 242.084375 56.02734375 240.96875 C55.631521 240.04513672 55.23569824 239.12152344 54.82788086 238.16992188 C54 236 54 236 54 234 C52.7243795 234.10597 52.7243795 234.10597 51.42298889 234.21408081 C38.20020173 235.18467121 24.99869369 235.1454103 11.74609375 235.1328125 C9.2298227 235.13348744 6.71355171 235.13445905 4.19728088 235.13571167 C-1.71186213 235.13736379 -7.6209871 235.13390507 -13.53012747 235.1285609 C-18.90592281 235.12425348 -24.28169456 235.12731932 -29.65748841 235.1321975 C-35.50837178 235.13729193 -41.35924245 235.13674149 -47.21012688 235.13381577 C-49.6856175 235.13315016 -52.16110898 235.1339621 -54.63659859 235.13629532 C-58.08921713 235.13883826 -61.54177103 235.13495921 -64.99438477 235.12939453 C-66.01006531 235.13141876 -67.02574585 235.13344299 -68.07220459 235.13552856 C-73.15751297 235.12036576 -77.98827874 234.87667119 -83 234 C-83.35964844 235.15113281 -83.71929688 236.30226563 -84.08984375 237.48828125 C-85.55723206 241.89044619 -87.24828346 246.18704463 -89.00390625 250.48046875 C-89.42556564 251.5119957 -89.42556564 251.5119957 -89.85574341 252.56436157 C-90.45033842 254.01803838 -91.04501631 255.47168128 -91.63977051 256.92529297 C-96.70048303 269.33237385 -101.50491476 281.78914951 -105.75 294.5 C-106.35823608 296.30247192 -106.35823608 296.30247192 -106.97875977 298.14135742 C-111.17280393 310.94809 -114.33071885 323.08871517 -109 336 C-104.86552927 343.70949163 -98.34917339 348.07128396 -90.2265625 351 C-84.52432524 352.66115595 -78.91117795 353.51547722 -73 354 C-73 358.29 -73 362.58 -73 367 C-109.3 367 -145.6 367 -183 367 C-183 362.71 -183 358.42 -183 354 C-181.99582031 353.79246094 -180.99164062 353.58492187 -179.95703125 353.37109375 C-170.32553815 351.25325437 -162.36945935 348.37871072 -154 343 C-153.27554688 342.54625 -152.55109375 342.0925 -151.8046875 341.625 C-134.94967026 329.06903574 -125.80683848 300.1457871 -118.34378052 281.32395935 C-114.13885454 270.72899391 -109.76228185 260.21351757 -105.30712891 249.72167969 C-103.22381403 244.81500416 -101.14738093 239.90541598 -99.0703125 234.99609375 C-98.43370697 233.49198441 -98.43370697 233.49198441 -97.78424072 231.95748901 C-93.49457689 221.81678592 -89.2449517 211.6594812 -85 201.5 C-78.46929549 185.87401963 -71.89724915 170.26593541 -65.30224609 154.66699219 C-59.50637448 140.95648072 -53.74063735 127.23372502 -48 113.5 C-39.93541326 94.2086068 -31.81200441 74.94241996 -23.66973877 55.68370056 C-20.64734151 48.53413088 -17.62961557 41.38259817 -14.61328125 34.23046875 C-13.29421316 31.10348099 -11.97509868 27.9765128 -10.65597534 24.84954834 C-9.80642237 22.83535387 -8.95707529 20.82107254 -8.10794067 18.80670166 C-6.93453732 16.02322562 -5.76032797 13.24009092 -4.5859375 10.45703125 C-4.06082329 9.21049019 -4.06082329 9.21049019 -3.52510071 7.93876648 C-1.11388879 2.22777758 -1.11388879 2.22777758 0 0 Z M-15 69 C-22.68231646 87.37242682 -30.3301756 105.75813138 -37.875 124.1875 C-43.42479011 137.74320395 -49.00881896 151.2841648 -54.625 164.8125 C-62.38749877 183.51560954 -62.38749877 183.51560954 -70.12493896 202.22909546 C-70.7460897 203.73360979 -71.36786729 205.23786549 -71.99029541 206.74185181 C-72.8402589 208.79596397 -73.68801945 210.85097079 -74.53515625 212.90625 C-75.013479 214.06447266 -75.49180176 215.22269531 -75.98461914 216.41601562 C-77.06095476 218.69239964 -77.06095476 218.69239964 -77 220 C-35.75 220 5.5 220 48 220 C43.32523868 207.43590911 43.32523868 207.43590911 38.328125 195.015625 C38.00858856 194.2487587 37.68905212 193.4818924 37.35983276 192.69178772 C36.67874009 191.057679 35.99646485 189.4240627 35.31304932 187.79092407 C33.43397518 183.29951937 31.56501157 178.80390738 29.6953125 174.30859375 C29.3073349 173.37625412 28.9193573 172.44391449 28.5196228 171.48332214 C24.34566227 161.44369737 20.2336969 151.37896583 16.125 141.3125 C10.03364068 126.39703931 3.92173927 111.49020264 -2.22271729 96.5965271 C-3.0687448 94.54549556 -3.91425143 92.49424908 -4.75921631 90.44277954 C-5.93170494 87.59663863 -7.10617334 84.7513232 -8.28125 81.90625 C-8.62934723 81.06047897 -8.97744446 80.21470795 -9.33609009 79.3433075 C-9.65894989 78.56292618 -9.98180969 77.78254486 -10.31445312 76.97851562 C-10.59325317 76.30292603 -10.87205322 75.62733643 -11.15930176 74.93127441 C-12.03693228 72.91515818 -12.99985466 70.95785034 -14 69 C-14.33 69 -14.66 69 -15 69 Z " fill="#000000" transform="translate(1161,1236)"/>
<path d="M0 0 C3.63 0 7.26 0 11 0 C17.20462666 13.91155466 23.24299625 27.87364439 29.03759766 41.96118164 C29.55496471 43.21893264 30.0723813 44.47666325 30.58984375 45.734375 C30.85524963 46.37950546 31.12065552 47.02463593 31.394104 47.6893158 C35.09927698 56.68389433 38.86532514 65.65310546 42.625 74.625 C43.39787725 76.46988538 44.17074503 78.31477473 44.94360352 80.15966797 C46.51328058 83.9063458 48.0832343 87.65290759 49.65332031 91.39941406 C53.06488747 99.54061374 56.4727271 107.68337345 59.88076782 115.8260498 C61.00394294 118.50942005 62.12730745 121.19271092 63.25073242 123.87597656 C66.61865714 131.9203505 69.98587009 139.96501852 73.34936523 148.01124573 C81.71357102 168.02005433 90.10919035 188.01495915 98.55969238 207.98748779 C104.39583479 221.78405164 110.17153682 235.60476363 115.91644287 249.43954468 C122.43160155 265.12676408 128.99885632 280.7876775 135.75 296.375 C136.06480316 297.10211182 136.37960632 297.82922363 136.70394897 298.57836914 C138.481327 302.67907828 140.26937547 306.77496092 142.06619263 310.8671875 C143.08392985 313.19169546 144.09335793 315.51973944 145.10327148 317.84765625 C145.81203142 319.46888373 146.52109051 321.08998046 147.23046875 322.7109375 C147.55420471 323.46136322 147.87794067 324.21178894 148.21148682 324.98495483 C150.71554985 330.67724892 153.64149152 335.51123724 158 340 C158.52980469 340.556875 159.05960938 341.11375 159.60546875 341.6875 C168.30486559 349.95296018 179.58051649 352.1044582 191 354 C191 358.29 191 362.58 191 367 C143.81 367 96.62 367 48 367 C48 355 48 355 49 354 C51.69000782 353.83660245 54.36997519 353.72061053 57.0625 353.625 C63.36385755 353.33013688 69.53679878 352.79518288 75.75 351.6875 C77.62945313 351.35298828 77.62945313 351.35298828 79.546875 351.01171875 C84.45369529 349.57408701 87.89324875 347.49946944 90.9375 343.375 C93.30973712 335.83965855 90.68776223 327.87108371 88.1875 320.625 C87.88110596 319.72402588 87.57471191 318.82305176 87.2590332 317.89477539 C84.29997979 309.44003022 80.79011457 301.24564921 77.20263672 293.04199219 C71.18656877 279.26080543 65.54996326 265.32631875 59.87963867 251.40014648 C59.49754242 250.4622377 59.11544617 249.52432892 58.72177124 248.55799866 C57.99732835 246.77902196 57.27375968 244.99968893 56.55117798 243.21995544 C56.06818741 242.03285728 56.06818741 242.03285728 55.57543945 240.82177734 C55.15340996 239.78263687 55.15340996 239.78263687 54.72285461 238.72250366 C54.19376813 237.46173366 53.6114693 236.22293859 53 235 C8.12 235 -36.76 235 -83 235 C-105.64673541 280.14135501 -105.64673541 280.14135501 -110.9296875 333.39453125 C-107.02254131 342.05216939 -101.87537929 346.40392675 -93.375 350.25 C-87.1012977 352.60263836 -80.62503193 353.22058448 -74 354 C-73.67 358.29 -73.34 362.58 -73 367 C-109.3 367 -145.6 367 -183 367 C-183 362.71 -183 358.42 -183 354 C-182.07960938 353.79246094 -181.15921875 353.58492187 -180.2109375 353.37109375 C-164.86771584 349.63684734 -151.33588799 344.10295206 -142.6875 330.25 C-141.97484985 329.11921021 -141.97484985 329.11921021 -141.24780273 327.96557617 C-139.81069279 325.65585787 -138.39935394 323.33276029 -137 321 C-136.4136377 320.02571045 -136.4136377 320.02571045 -135.81542969 319.03173828 C-129.78559254 308.81406995 -125.44984991 297.96467425 -121.1315918 286.93945312 C-116.57248361 275.31390118 -111.75231967 263.80779869 -106.875 252.3125 C-106.05413109 250.37600544 -105.23333075 248.43948181 -104.41259766 246.50292969 C-103.16936034 243.56950168 -101.92610485 240.63608167 -100.68240356 237.70285034 C-96.42202298 227.6489719 -92.20928829 217.57534892 -88 207.5 C-81.88206193 192.86316791 -75.73629763 178.23835987 -69.5625 163.625 C-69.16918488 162.69399475 -68.77586975 161.7629895 -68.37063599 160.80377197 C-65.18232653 153.2575923 -61.99226107 145.71215524 -58.80212402 138.16674805 C-56.01309487 131.56984554 -53.22476175 124.97264946 -50.4375 118.375 C-49.84740646 116.97825043 -49.84740646 116.97825043 -49.24539185 115.55328369 C-43.84388254 102.76518376 -38.46685169 89.96705911 -33.11190796 77.15939331 C-26.7200137 61.87165236 -20.3203245 46.58718753 -13.88916016 31.31591797 C-13.05552911 29.33536001 -12.22282558 27.35441136 -11.39111328 25.37304688 C-10.23468102 22.6186954 -9.07480499 19.86581857 -7.9140625 17.11328125 C-7.40741562 15.90367485 -7.40741562 15.90367485 -6.89053345 14.66963196 C-4.77836759 9.67409111 -2.47086078 4.82865992 0 0 Z M-15 69 C-17.637337 74.16011613 -20.05231496 79.32421047 -22.22265625 84.6953125 C-22.52018295 85.42386444 -22.81770966 86.15241638 -23.12425232 86.90304565 C-23.76826327 88.4808761 -24.4108843 90.05927445 -25.05224609 91.63818359 C-26.82142811 95.99315894 -28.6011531 100.34383074 -30.37890625 104.6953125 C-30.94063034 106.07157806 -30.94063034 106.07157806 -31.51370239 107.47564697 C-35.41458553 117.02847129 -39.3557526 126.56453168 -43.30014038 136.09945679 C-50.44893768 153.38097468 -57.57104595 170.673229 -64.66210938 187.97851562 C-65.11831665 189.09164627 -65.11831665 189.09164627 -65.58374023 190.2272644 C-66.17618154 191.67345797 -66.7681544 193.11984353 -67.35961914 194.56643677 C-68.89497586 198.3187101 -70.44239673 202.06549362 -72.00585938 205.80615234 C-72.33201233 206.58935349 -72.65816528 207.37255463 -72.99420166 208.17948914 C-73.61997098 209.68105071 -74.24854686 211.18144663 -74.88031006 212.68049622 C-76.45595175 216.2195397 -76.45595175 216.2195397 -77 220 C-36.08 220 4.84 220 47 220 C45.15211614 213.84038714 43.45339834 208.3466311 40.98828125 202.51953125 C40.70351425 201.84171097 40.41874725 201.16389069 40.12535095 200.4655304 C39.51245674 199.00794494 38.897334 197.55129483 38.28015137 196.09552002 C36.58365535 192.09290657 34.9047307 188.08290864 33.22265625 184.07421875 C32.87250458 183.24108154 32.52235291 182.40794434 32.16159058 181.54956055 C28.47183664 172.76284891 24.85767786 163.94565304 21.25 155.125 C16.86614391 144.41343167 12.4706585 133.70686966 8.046875 123.01171875 C7.62666077 121.99561523 7.20644653 120.97951172 6.77349854 119.93261719 C4.73248254 114.99817645 2.68997388 110.06435988 0.64550781 105.13134766 C-4.3263361 93.12283585 -9.20092722 81.07859276 -14 69 C-14.33 69 -14.66 69 -15 69 Z " fill="#000000" transform="translate(3023,652)"/>
<path d="M0 0 C9.64363721 6.7229928 16.28831041 15.8126117 18.484375 27.40625 C20.09992747 39.01429367 17.39113325 49.55981351 10.7421875 59.20703125 C4.23098828 67.49996707 -4.65711567 73.10076435 -15.19921875 74.6796875 C-28.17706709 75.65703163 -38.38388625 73.36256574 -48.3828125 64.8125 C-56.87797728 56.97295549 -61.58449494 47.29796759 -62.19921875 35.6796875 C-61.58466183 22.09797964 -57.11038427 11.98291908 -47.19921875 2.6796875 C-44.66065923 0.66790417 -42.10484917 -0.89543604 -39.19921875 -2.3203125 C-38.57015625 -2.63871094 -37.94109375 -2.95710938 -37.29296875 -3.28515625 C-25.56224568 -8.18047722 -10.68500964 -6.41480152 0 0 Z " fill="#000000" transform="translate(3789.19921875,1539.3203125)"/>
</svg>
