<?xml version="1.0" encoding="UTF-8"?>
<svg version="1.1" xmlns="http://www.w3.org/2000/svg" width="980" height="980">
<path d="M0 0 C4.00574853 0.00020605 8.01149009 -0.00533413 12.01723528 -0.01005757 C19.84774013 -0.01832211 27.67823745 -0.02111054 35.5087463 -0.02166995 C41.88493672 -0.02214729 48.26112468 -0.02421287 54.63731432 -0.02737057 C72.77300607 -0.03616717 90.90869193 -0.04079173 109.04438582 -0.0400401 C110.50730556 -0.03998016 110.50730556 -0.03998016 111.99977922 -0.03991902 C113.46451631 -0.0398577 113.46451631 -0.0398577 114.95884404 -0.03979514 C130.756045 -0.03938937 146.55322204 -0.04894396 162.35041609 -0.06305739 C178.62775815 -0.07748324 194.90508859 -0.08432411 211.18243718 -0.08346361 C220.29786407 -0.08313368 229.41326592 -0.08578995 238.528687 -0.09664166 C246.2950271 -0.10582903 254.06133082 -0.10785551 261.82767406 -0.10113224 C265.7764991 -0.09790743 269.72525468 -0.09766012 273.67407274 -0.10648549 C320.65544274 -0.2046303 363.21519779 2.21117671 398.73513079 35.95788372 C431.2620239 69.81566444 432.64471428 113.44148103 432.6305145 157.75945497 C432.63030847 161.77949942 432.63584849 165.79953693 432.64057207 169.81957805 C432.64883663 177.67782137 432.65162503 185.53605719 432.65218445 193.39430449 C432.65266176 199.79243333 432.65472715 206.19055972 432.65788507 212.58868778 C432.66668139 230.78478271 432.67130623 248.98087178 432.6705546 267.17696885 C432.67049467 268.64476316 432.67049467 268.64476316 432.67043352 270.14220989 C432.6703722 271.61182636 432.6703722 271.61182636 432.67030964 273.11113205 C432.6699038 288.96397401 432.67946035 304.81679215 432.69357189 320.66962723 C432.70799416 337.00233505 432.71483882 353.33503131 432.71397811 369.66774565 C432.71364808 378.8149987 432.71630908 387.9622268 432.72715616 397.10947406 C432.73633873 404.90219314 432.7383738 412.69487596 432.73164674 420.48759816 C432.72841969 424.45047607 432.72818321 428.41328475 432.73699999 432.37615573 C432.76726275 446.95140129 432.65201449 461.48151316 431.61057329 476.02848613 C431.49741849 477.62688122 431.49741849 477.62688122 431.38197774 479.25756711 C429.12391859 507.06865605 418.406805 532.66345151 399.48513079 553.14538372 C398.8418886 553.86983684 398.19864641 554.59428997 397.53591204 555.34069622 C374.11495995 580.43820236 340.32059234 588.52260023 307.29648852 590.04977429 C296.49659195 590.41706014 285.67638621 590.29422953 274.87105954 590.29076743 C270.85101508 590.2905614 266.83097757 590.29610142 262.81093645 590.300825 C254.95269313 590.30908956 247.09445732 590.31187796 239.23621001 590.31243738 C232.83808117 590.31291468 226.43995479 590.31498008 220.04182673 590.318138 C201.84573179 590.32693432 183.64964273 590.33155916 165.45354565 590.33080753 C164.47501611 590.33076757 163.49648657 590.33072762 162.48830462 590.33068645 C161.01868815 590.33062513 161.01868815 590.33062513 159.51938245 590.33056257 C143.66654049 590.33015673 127.81372235 590.33971328 111.96088728 590.35382482 C95.62817945 590.36824709 79.2954832 590.37509175 62.96276885 590.37423104 C53.8155158 590.37390101 44.6682877 590.37656201 35.52104044 590.38740909 C27.72832136 590.39659166 19.93563854 590.39862673 12.14291634 590.39189967 C8.18003843 590.38867262 4.21722975 590.38843614 0.25435877 590.39725292 C-46.37076028 590.4942207 -88.53037148 587.80840497 -123.76486921 554.33288372 C-156.29176233 520.47510299 -157.6744527 476.8492864 -157.66025293 432.53131247 C-157.66004689 428.51126801 -157.66558692 424.4912305 -157.6703105 420.47118938 C-157.67857506 412.61294606 -157.68136346 404.75471025 -157.68192288 396.89646294 C-157.68240018 390.4983341 -157.68446558 384.10020771 -157.6876235 377.70207965 C-157.69641982 359.50598472 -157.70104466 341.30989566 -157.70029303 323.11379858 C-157.70025307 322.13526904 -157.70021311 321.1567395 -157.70017195 320.14855754 C-157.70013107 319.16881323 -157.70009019 318.18906892 -157.70004807 317.17963538 C-157.69964223 301.32679342 -157.70919877 285.47397528 -157.72331031 269.6211402 C-157.73773258 253.28843238 -157.74457725 236.95573612 -157.74371654 220.62302178 C-157.74338651 211.47576873 -157.74604751 202.32854063 -157.75689459 193.18129337 C-157.76607715 185.38857429 -157.76811222 177.59589147 -157.76138517 169.80316927 C-157.75815812 165.84029136 -157.75792164 161.87748268 -157.76673841 157.9146117 C-157.79698893 143.34227018 -157.68243509 128.81431187 -156.64421797 114.2700938 C-156.56930512 113.20554444 -156.49439227 112.14099508 -156.41720933 111.04418665 C-153.86586235 79.55596138 -140.34501521 50.11051924 -116.51486921 29.14538372 C-82.95063177 0.74091398 -41.85363254 -0.01345906 0 0 Z " fill="#E6001D" transform="translate(352.51486921310425,194.85461628437042)"/>
<path d="M0 0 C0.78161499 0.00376648 1.56322998 0.00753296 2.36853027 0.01141357 C46.99690806 0.26388046 86.72011964 12.91152717 119.1875 44.25 C120.06277344 45.06210937 120.93804688 45.87421875 121.83984375 46.7109375 C128.32699698 52.88822671 133.45942939 59.68178212 138.1875 67.25 C138.56793457 67.85585938 138.94836914 68.46171875 139.34033203 69.0859375 C145.8307952 79.58834035 150.5375234 90.4643279 154.1875 102.25 C154.4134082 102.96365723 154.63931641 103.67731445 154.87207031 104.41259766 C163.87118328 134.23684687 157.91088189 168.91877986 150.1875 198.25 C149.92694824 199.24209473 149.66639648 200.23418945 149.39794922 201.25634766 C140.42829934 234.82911007 118.3967355 267.42187572 88.1484375 285.15039062 C78.0146664 290.83297342 67.47099892 295.40091652 56.1875 298.25 C55.56689697 298.42515137 54.94629395 298.60030273 54.30688477 298.78076172 C33.67700093 304.11858048 10.11907164 301.17178925 -8.546875 291.2421875 C-15.90507914 286.75333091 -22.80519172 281.32929791 -27.8125 274.25 C-27.8125 273.59 -27.8125 272.93 -27.8125 272.25 C-28.4725 272.25 -29.1325 272.25 -29.8125 272.25 C-30.03164063 273.35472656 -30.25078125 274.45945312 -30.4765625 275.59765625 C-33.11027352 288.61705295 -36.36333447 301.42551323 -39.8125 314.25 C-40.30354012 316.09761514 -40.79442813 317.94527072 -41.28515625 319.79296875 C-44.3450493 331.23564061 -47.682312 342.57599267 -51.171875 353.89453125 C-52.34245423 357.69491404 -53.47548818 361.50300047 -54.5715332 365.32543945 C-66.21805361 405.82368401 -66.21805361 405.82368401 -74.8125 422.25 C-75.33972656 423.37019531 -75.86695313 424.49039062 -76.41015625 425.64453125 C-80.7801747 434.84946373 -86.13075238 443.23471013 -91.80029297 451.68457031 C-92.8759095 453.28506059 -92.8759095 453.28506059 -93.8125 455.25 C-100.4125 455.25 -107.0125 455.25 -113.8125 455.25 C-116.98522232 426.69549911 -115.63953086 399.38731766 -108.23876953 371.69482422 C-106.50174031 365.14616083 -104.92637679 358.55908449 -103.33984375 351.97265625 C-93.83805995 312.64572411 -93.83805995 312.64572411 -89.69709778 298.05241394 C-86.96770967 288.3677395 -84.58313019 278.59263329 -82.15576172 268.82885742 C-81.31617576 265.45228287 -80.47284009 262.07666206 -79.62890625 258.70117188 C-77.0564199 248.39490264 -74.51128413 238.08269701 -72.046875 227.75 C-71.85226685 226.93464279 -71.65765869 226.11928558 -71.45715332 225.27922058 C-69.91942758 218.79180387 -68.46796042 212.28619432 -67.07043457 205.76716614 C-65.91778271 200.46056543 -65.91778271 200.46056543 -64.8125 198.25 C-64.06340773 191.50096675 -65.64128744 186.06190684 -67.8125 179.75 C-74.2666227 158.9839116 -72.18388393 136.74619062 -62.6875 117.25 C-56.2120723 106.30443834 -46.40417251 96.58877072 -33.8125 93.25 C-25.05142448 91.81454778 -15.65685825 91.8835157 -7.921875 96.64453125 C-0.58725914 102.22698888 3.40983155 107.41481732 6.1875 116.25 C6.5175 117.24 6.8475 118.23 7.1875 119.25 C8.21900976 135.61887617 5.73218662 150.76558004 0.24609375 166.19921875 C-1.76684329 172.00033989 -3.40854452 177.92146515 -5.11083984 183.81982422 C-5.60168538 185.51985083 -6.09434854 187.21935321 -6.58837891 188.91845703 C-7.39549207 191.69471121 -8.19832945 194.47216977 -9 197.25 C-9.24991699 198.10972412 -9.49983398 198.96944824 -9.75732422 199.85522461 C-15.31722583 218.39735768 -15.31722583 218.39735768 -12.3046875 236.9921875 C-6.14527496 247.45111154 0.72519615 253.46316427 12.1875 257.25 C13.1775 257.58 14.1675 257.91 15.1875 258.25 C26.62706061 259.42458447 36.86412263 258.59552965 47.1875 253.25 C48.06664062 252.80398438 48.94578125 252.35796875 49.8515625 251.8984375 C73.39597514 238.85060511 84.78235077 213.08904893 91.98583984 188.35693359 C92.74201551 185.65998368 93.47416286 182.95856754 94.1875 180.25 C94.36893555 179.56325195 94.55037109 178.87650391 94.73730469 178.16894531 C102.64509248 147.30411584 103.01081984 111.0643553 86.82666016 82.96264648 C75.06018851 63.51521722 54.78393599 51.08607392 33.1875 45.25 C32.053125 44.87875 30.91875 44.5075 29.75 44.125 C9.13035417 39.06052559 -12.34662607 40.04342609 -32.8125 45.25 C-33.49070801 45.42128418 -34.16891602 45.59256836 -34.86767578 45.76904297 C-61.46910823 52.82075959 -85.86975631 70.95557701 -100.15185547 94.45361328 C-113.75237333 118.0433237 -121.89659465 146.54613874 -114.96484375 173.64233398 C-111.67957802 185.19132247 -107.36868401 194.99126446 -99.1328125 203.88671875 C-95.41308185 210.54481651 -98.74481238 219.139977 -100.5625 226 C-100.81515625 227.02738281 -101.0678125 228.05476562 -101.328125 229.11328125 C-101.5859375 230.10199219 -101.84375 231.09070313 -102.109375 232.109375 C-102.45500488 233.44693848 -102.45500488 233.44693848 -102.80761719 234.81152344 C-104.00586697 237.71922967 -105.39686289 239.25605083 -107.8125 241.25 C-114.90660851 242.72793927 -120.90914394 238.91128861 -126.8125 235.25 C-130.41643181 232.49188892 -133.62682752 229.47765828 -136.8125 226.25 C-137.58464844 225.48816406 -138.35679687 224.72632813 -139.15234375 223.94140625 C-159.53679738 202.72066734 -164.59881857 172.37100439 -164.03515625 144.05078125 C-163.82014604 137.31415497 -163.21378075 130.85831264 -161.8125 124.25 C-161.544375 122.97382813 -161.27625 121.69765625 -161 120.3828125 C-154.95124068 93.36393394 -140.89543204 70.00581398 -121.8125 50.25 C-120.95011719 49.32445312 -120.08773437 48.39890625 -119.19921875 47.4453125 C-107.79289588 35.51514369 -94.39920056 26.81490187 -79.8125 19.25 C-79.15588379 18.90340332 -78.49926758 18.55680664 -77.82275391 18.19970703 C-62.71482361 10.31038066 -45.96967936 4.34804545 -28.9453125 2.63671875 C-25.66440899 2.30522509 -25.66440899 2.30522509 -21.98046875 1.22265625 C-14.78772157 -0.42279752 -7.33732447 -0.05310185 0 0 Z " fill="#FEFDFD" transform="translate(492.8125,329.75)"/>
</svg>
