<?xml version="1.0" standalone="no"?><!DOCTYPE svg PUBLIC "-//W3C//DTD SVG 1.1//EN" "http://www.w3.org/Graphics/SVG/1.1/DTD/svg11.dtd"><svg t="1724644146805" class="icon" viewBox="0 0 1024 1024" version="1.1" xmlns="http://www.w3.org/2000/svg" p-id="4081" xmlns:xlink="http://www.w3.org/1999/xlink" width="256" height="256"><path d="M512 256H384a42.666667 42.666667 0 0 0-42.666667 42.666667v426.666666a42.666667 42.666667 0 0 0 85.333334 0v-128h85.333333a170.666667 170.666667 0 0 0 0-341.333333z m0 256h-85.333333V341.333333h85.333333a85.333333 85.333333 0 0 1 0 170.666667z m298.666667-426.666667H213.333333a128 128 0 0 0-128 128v597.333334a128 128 0 0 0 128 128h597.333334a128 128 0 0 0 128-128V213.333333a128 128 0 0 0-128-128z m42.666666 725.333334a42.666667 42.666667 0 0 1-42.666666 42.666666H213.333333a42.666667 42.666667 0 0 1-42.666666-42.666666V213.333333a42.666667 42.666667 0 0 1 42.666666-42.666666h597.333334a42.666667 42.666667 0 0 1 42.666666 42.666666z" p-id="4082" fill="#15ffee"></path></svg>