<?xml version="1.0" encoding="UTF-8"?>
<svg version="1.1" xmlns="http://www.w3.org/2000/svg" width="555" height="555">
<path d="M0 0 C1.66777214 -0.0018704 3.33554384 -0.00417202 5.00331485 -0.00686532 C9.56747396 -0.01296145 14.13161469 -0.01285231 18.69577694 -0.01167095 C23.62574481 -0.01146638 28.55570686 -0.01699102 33.485672 -0.02172852 C43.13778517 -0.03002381 52.78989224 -0.03278286 62.44200869 -0.03334089 C70.29108117 -0.03381662 78.14015164 -0.0358742 85.98922348 -0.03904152 C108.26079141 -0.04784531 130.53235453 -0.05246137 152.80392422 -0.05171105 C154.00379982 -0.05167109 155.20367542 -0.05163113 156.43991089 -0.05158997 C158.24193139 -0.05152864 158.24193139 -0.05152864 160.08035634 -0.05146609 C179.54286429 -0.05105977 199.00535288 -0.06062631 218.46785523 -0.07472833 C238.46946994 -0.08910619 258.47107522 -0.09599773 278.47269523 -0.09513456 C289.69493101 -0.09480306 300.91714649 -0.09752948 312.13937759 -0.10831261 C321.69547074 -0.11743619 331.25153439 -0.11957764 340.80763002 -0.11280318 C345.67844324 -0.10954726 350.54919993 -0.10944764 355.42000771 -0.11815643 C359.88863493 -0.1260636 364.35716121 -0.12454733 368.8257861 -0.1158723 C370.43276034 -0.11434653 372.03974227 -0.11611817 373.64670743 -0.12173238 C400.37293999 -0.20883741 422.90678839 5.04572942 442.71725464 24.25480652 C459.65768008 42.28709532 463.85038347 63.43378132 463.79045105 87.26879883 C463.79347623 88.98438374 463.79736755 90.6999673 463.80204362 92.4155485 C463.81228508 97.1025553 463.81015166 101.78948526 463.80586302 106.47649825 C463.80338878 111.54206954 463.81241862 116.60762268 463.81990051 121.67318726 C463.83263018 131.58672097 463.83444336 141.50022758 463.83210025 151.41376809 C463.83031498 159.47447402 463.83207121 167.53517174 463.83632469 175.59587669 C463.83691988 176.74447025 463.83751507 177.8930638 463.83812829 179.07646322 C463.83934009 181.41007084 463.84055422 183.74367847 463.84177067 186.07728609 C463.85263955 207.94715785 463.85048681 229.81701418 463.84438583 251.68688681 C463.83921734 271.67697622 463.85047148 291.66701689 463.86948404 311.65709666 C463.88887421 332.20230906 463.89711637 352.74749841 463.89336079 373.29272002 C463.89145053 384.81951005 463.89391929 396.3462586 463.90807533 407.87304115 C463.92000511 417.686044 463.9213761 427.49897983 463.90928517 437.31198362 C463.9034077 442.31435209 463.90226567 447.31659807 463.91428757 452.31895828 C463.92518414 456.90654099 463.92199839 461.4938995 463.90802588 466.08147188 C463.90538931 467.73278224 463.90771246 469.38411039 463.91576175 471.03540323 C464.01531554 492.99942244 459.14824077 512.15740629 444.52975464 529.13371277 C443.84268433 529.93293152 443.15561401 530.73215027 442.44772339 531.55558777 C429.10619021 545.91196856 409.92949051 554.40595282 390.43298423 555.40919757 C385.95181274 555.55246096 381.47207727 555.53453596 376.98921204 555.5146637 C375.26619915 555.51812818 373.54318849 555.52289801 371.82018238 555.52884543 C367.1265835 555.54127639 362.43316949 555.53522139 357.73957026 555.52588677 C352.66179682 555.51906401 347.58405388 555.52959339 342.50628662 555.53782654 C332.575437 555.5511315 322.64465559 555.54830068 312.71380334 555.53958862 C304.63980938 555.53280009 296.56583446 555.5319004 288.49183846 555.53516006 C287.34058729 555.53561976 286.18933612 555.53607946 285.00319855 555.53655309 C282.6641128 555.53751231 280.32502704 555.53848495 277.9859413 555.53947087 C256.07840225 555.54801518 234.17090093 555.53820549 212.26336808 555.52206977 C193.48341099 555.50866568 174.70350955 555.5109973 155.92355347 555.52482605 C134.09025328 555.54089572 112.25698611 555.54719317 90.42368084 555.53798926 C88.09373892 555.53703366 85.76379699 555.53609054 83.43385506 555.53516006 C81.71449626 555.53446582 81.71449626 555.53446582 79.96040295 555.53375756 C71.89965932 555.53117197 63.83893671 555.53552933 55.77819633 555.54259872 C45.94986189 555.55102926 36.12159928 555.54870086 26.29327302 555.53275649 C21.28290992 555.52489498 16.27266642 555.52174595 11.26230431 555.53170395 C6.66872034 555.54069527 2.07536596 555.53564547 -2.51819741 555.51977129 C-4.17276283 555.51644221 -5.82734796 555.51807495 -7.48190052 555.52539866 C-27.05076951 555.60531982 -45.94009832 551.79755751 -61.47024536 539.13371277 C-62.71547974 538.13211121 -62.71547974 538.13211121 -63.98587036 537.11027527 C-80.44492379 523.12512865 -89.33731226 504.45578121 -91.47024536 483.13371277 C-91.55612411 480.68537713 -91.5974823 478.2351555 -91.59887981 475.78531456 C-91.60063285 475.08804495 -91.60238589 474.39077533 -91.60419205 473.67237633 C-91.60882405 471.34846357 -91.60639381 469.02461414 -91.60395813 466.70069885 C-91.60582752 465.01260344 -91.60812873 463.32450846 -91.61082345 461.63641417 C-91.61693215 457.00686734 -91.61680895 452.3773386 -91.61562908 447.74778867 C-91.61542483 442.75102031 -91.62094614 437.75425773 -91.62568665 432.75749207 C-91.63398894 422.97075311 -91.63674131 413.18402018 -91.63729902 403.397278 C-91.63777444 395.43992157 -91.63983045 387.48256713 -91.64299965 379.52521133 C-91.65180551 356.95500815 -91.6564192 334.38480972 -91.65566918 311.8146048 C-91.65562922 310.59813797 -91.65558926 309.38167114 -91.6555481 308.12834167 C-91.65550722 306.91038598 -91.65546633 305.69243028 -91.65542421 304.43756683 C-91.65501789 284.70521987 -91.66458421 264.972892 -91.67868646 245.24055056 C-91.69305875 224.97006589 -91.69995616 204.69959053 -91.69909269 184.42910063 C-91.69876098 173.05263883 -91.70149627 161.67619704 -91.71227074 150.29973984 C-91.721387 140.61215503 -91.72354177 130.92459931 -91.71676131 121.23701207 C-91.71350165 116.29760179 -91.71341939 111.35824726 -91.72211456 106.41884232 C-91.73000508 101.8897932 -91.72852218 97.36084383 -91.71983043 92.83179708 C-91.71830103 91.2005727 -91.72009028 89.56934078 -91.72569051 87.9381253 C-91.76589514 75.38791399 -91.50993295 62.67323138 -86.72024536 50.88371277 C-86.45566528 50.21243347 -86.19108521 49.54115417 -85.91848755 48.84953308 C-78.04561559 29.45219611 -63.93359762 15.59623191 -45.12258911 6.63761902 C-30.40191207 0.57616377 -15.72566186 -0.01676984 0 0 Z M-40.47024536 47.13371277 C-41.08641724 47.65836121 -41.70258911 48.18300964 -42.33743286 48.72355652 C-49.64386869 55.38715142 -54.01211257 64.77541469 -54.72324502 74.64502501 C-54.72465387 75.89403791 -54.72606272 77.1430508 -54.72751427 78.42991257 C-54.73102034 79.13368062 -54.73452642 79.83744868 -54.73813874 80.56254303 C-54.74742325 82.9146134 -54.74253711 85.26643455 -54.7376709 87.61851501 C-54.74140865 89.32438618 -54.74601067 91.03025563 -54.75140154 92.73612237 C-54.76363156 97.4193414 -54.76337107 102.10248899 -54.76101279 106.78572035 C-54.76060463 111.83835418 -54.77164376 116.8909651 -54.78112793 121.94358826 C-54.79773895 131.84108807 -54.80323752 141.73856407 -54.80435269 151.63607666 C-54.80530312 159.68168141 -54.80941317 167.72727829 -54.81575394 175.77288055 C-54.83336667 198.58554197 -54.84259276 221.39818457 -54.84109299 244.21085283 C-54.84101308 245.44062122 -54.84093316 246.67038961 -54.84085083 247.93742371 C-54.84076907 249.1686943 -54.84068731 250.39996489 -54.84060307 251.66854671 C-54.83979017 271.62287007 -54.85892866 291.57711795 -54.88712756 311.53141949 C-54.91585604 332.02221446 -54.92966787 352.51297261 -54.92794001 373.00378823 C-54.9272761 384.50706689 -54.93276914 396.01026641 -54.95429611 407.51352692 C-54.9725074 417.3077476 -54.97685563 427.10185328 -54.96327727 436.89608356 C-54.95674739 441.89188283 -54.95663126 446.88746147 -54.97398376 451.88323975 C-54.98971846 456.46038376 -54.98684673 461.03713227 -54.9694155 465.61426666 C-54.96634649 467.26633011 -54.96997425 468.91842311 -54.98113565 470.57045171 C-55.0704027 484.72537836 -52.53231347 496.34517259 -42.69290161 507.07121277 C-29.94429608 519.1680491 -13.58768557 519.43876542 3.03291321 519.38768005 C4.67980161 519.3899883 6.32668898 519.39316726 7.97357422 519.39713454 C12.47062037 519.40544126 16.96758103 519.40137611 21.46462739 519.39516211 C26.32565698 519.39062163 31.18667226 519.3976293 36.04769897 519.40312195 C45.55950711 519.41200079 55.07128362 519.41010061 64.58309298 519.40429667 C72.31629845 519.39977398 80.04949508 519.3991699 87.78270149 519.4013443 C88.88469135 519.40165077 89.98668121 519.40195723 91.1220647 519.40227298 C93.36097479 519.40291246 95.59988487 519.40356088 97.83879495 519.40421817 C118.81824881 519.40991711 139.79768517 519.40337054 160.77713615 519.39261743 C178.76377621 519.38368357 196.75039044 519.38523346 214.73703003 519.39445496 C235.64152405 519.40516743 256.54600274 519.40936652 277.45049912 519.40323043 C279.68133008 519.40259335 281.91216105 519.40196461 284.14299202 519.4013443 C285.78925835 519.40088147 285.78925835 519.40088147 287.46878259 519.4004093 C295.18881675 519.3986852 302.90884117 519.40159134 310.62887383 519.40630341 C320.04264219 519.41192314 329.45637723 519.41037287 338.8701418 519.39974192 C343.66971089 519.39449974 348.46922447 519.39240361 353.26879311 519.39904022 C357.66872217 519.40503203 362.06854465 519.40167161 366.46846414 519.39108512 C368.05378953 519.38886471 369.63912406 519.38995653 371.22444349 519.39483669 C388.92401152 519.44511078 403.01733251 518.08622513 416.33444214 505.45793152 C426.32125815 494.88470104 426.97296345 483.15680736 426.92416382 469.30123901 C426.9290565 467.58197803 426.93524804 465.86272034 426.94262171 464.1434682 C426.95899654 459.43246376 426.95670829 454.72162694 426.95124674 450.01060402 C426.94857352 444.9245748 426.96311383 439.83858995 426.9753418 434.75257874 C426.99638561 424.79351277 427.00093725 414.83450503 426.99915391 404.87541946 C426.99784576 396.77933345 427.00165315 388.68326559 427.00907898 380.587183 C427.0111782 378.25419468 427.0132758 375.92120636 427.0153718 373.58821803 C427.01641533 372.42698516 427.01745885 371.26575229 427.018534 370.06933055 C427.03743215 348.11228683 427.03638748 326.15527652 427.02956468 304.19822804 C427.02398953 284.11859009 427.04481426 264.03907974 427.07792515 243.95947161 C427.11167155 223.33413141 427.12682929 202.70885232 427.12220812 182.08348399 C427.1199644 170.50697079 427.12519246 158.93057552 427.15010071 147.35408592 C427.17112605 137.49843478 427.17469348 127.64296625 427.15580112 117.78730758 C427.14665099 112.76094972 427.14547827 107.73493223 427.16615677 102.708601 C427.18489685 98.10241562 427.18032929 93.49684866 427.15761095 88.89068661 C427.15343287 87.22924479 427.15759849 85.56775527 427.17120689 83.90636393 C427.27690556 70.05259538 424.57056031 58.33140603 414.52975464 48.13371277 C402.91872583 37.97406256 390.28551901 36.53802675 375.4883728 36.6257782 C373.7830205 36.6211622 372.07767218 36.61480461 370.3723321 36.60686922 C365.71365204 36.59024877 361.05530187 36.59838896 356.39662099 36.61081409 C351.36176834 36.61989222 346.32697104 36.60588119 341.29212952 36.59489441 C331.43972884 36.57713405 321.58745024 36.58093812 311.73504484 36.59254497 C303.72579345 36.60158879 295.7165762 36.60279919 287.70732117 36.59844971 C286.56618753 36.59783677 285.42505389 36.59722384 284.24934044 36.59659234 C281.93094662 36.5953134 279.6125528 36.59401655 277.294159 36.59270197 C255.56885535 36.58130344 233.84361928 36.59439848 212.11832672 36.61590344 C193.48834568 36.63377374 174.85846435 36.63066943 156.22848511 36.61222839 C134.57943439 36.59080885 112.93044287 36.58240201 91.28138304 36.59467745 C88.9716514 36.59595161 86.66191976 36.59720909 84.35218811 36.59844971 C83.21583897 36.59906681 82.07948983 36.59968391 80.90870586 36.60031971 C72.91167219 36.60376935 64.91467616 36.59795258 56.91764832 36.58853149 C47.16821406 36.57729811 37.41890858 36.58037978 27.66948903 36.60165447 C22.69784277 36.61214679 17.726411 36.6163177 12.75476646 36.60305786 C8.19872635 36.5910905 3.64309845 36.59776782 -0.91290456 36.61896807 C-2.55608221 36.62341578 -4.19929507 36.62120931 -5.84244984 36.61146492 C-18.96457311 36.53964993 -30.3677055 38.05892047 -40.47024536 47.13371277 Z " fill="#FFFFFF" transform="translate(91.47024536132813,-0.1337127685546875)"/>
<path d="M0 0 C26.8125 -0.0825 53.625 -0.165 81.25 -0.25 C89.70270508 -0.28641602 98.15541016 -0.32283203 106.86425781 -0.36035156 C117.22021484 -0.37841797 117.22021484 -0.37841797 122.07489014 -0.3817749 C125.45113736 -0.38548764 128.82713065 -0.40042167 132.20330811 -0.42230225 C136.52135594 -0.44991257 140.83903905 -0.45793286 145.15716696 -0.4522891 C146.7347002 -0.45346775 148.31224732 -0.46129659 149.88970423 -0.47686052 C164.51386673 -0.61434658 175.87428983 2.11849405 187 12 C194.66905878 20.2270984 199.25847301 30.54971596 199.24050903 41.84007263 C199.24221788 42.49125488 199.24392673 43.14243713 199.24568737 43.81335217 C199.24895738 45.97521139 199.23802024 48.1367538 199.22705078 50.29858398 C199.22648613 51.85624687 199.22680429 53.4139103 199.22793579 54.97157288 C199.22850819 59.18594699 199.21677218 63.4002066 199.20278788 67.61455417 C199.19026168 72.02412249 199.18910853 76.43369361 199.18673706 80.84327698 C199.18052784 89.18707099 199.16412458 97.53081242 199.14403808 105.8745833 C199.12166171 115.37637125 199.11068128 124.87816173 199.10064721 134.37996948 C199.07975785 153.9200155 199.04308859 173.45998945 199 193 C185.47 193 171.94 193 158 193 C157.9906543 188.61388428 157.98130859 184.22776855 157.97167969 179.70874023 C157.93792647 165.22393336 157.88258779 150.73926854 157.81609726 136.25457668 C157.77630825 127.47171667 157.74391507 118.68894625 157.72900391 109.90600586 C157.71598665 102.2497115 157.68902019 94.59361426 157.64538693 86.93743092 C157.62277366 82.88446751 157.60708923 78.83174722 157.60811615 74.77871513 C157.60886285 70.96103944 157.59090856 67.14390114 157.55883217 63.32636452 C157.55033854 61.92801744 157.54857964 60.52961006 157.55419731 59.13124847 C157.72154911 48.79337194 157.72154911 48.79337194 153 40 C144.08958596 35.0275393 144.08958596 35.0275393 120 36 C120 87.81 120 139.62 120 193 C106.47 193 92.94 193 79 193 C79 141.19 79 89.38 79 36 C66.46 36 53.92 36 41 36 C41 87.81 41 139.62 41 193 C27.47 193 13.94 193 0 193 C0 129.31 0 65.62 0 0 Z " fill="#FFFFFF" transform="translate(253,144)"/>
<path d="M0 0 C0.82003006 -0.00014603 1.64006012 -0.00029205 2.48493958 -0.0004425 C5.18489259 0.00025199 7.88477589 0.00802269 10.5847168 0.01586914 C12.460871 0.01773496 14.33702568 0.01915809 16.21318054 0.02015686 C21.14345655 0.02396909 26.07370295 0.03378832 31.00396729 0.04486084 C36.03804117 0.0551028 41.07211986 0.05966045 46.10620117 0.06469727 C55.97795895 0.07541175 65.84969478 0.09247263 75.72143555 0.11352539 C75.81504957 27.34814277 75.88549829 54.58273589 75.92868423 81.81748199 C75.9492729 94.4642323 75.97732271 107.11088239 76.02319336 119.75756836 C76.06317439 130.78576493 76.08889519 141.81388889 76.09778953 152.84215593 C76.10298521 158.67669704 76.11511957 164.51103048 76.14435577 170.34550476 C76.17170307 175.84811241 76.1798418 181.35042876 76.17386627 186.85309792 C76.17495792 188.86209005 76.18279576 190.87109293 76.19825745 192.88002586 C76.34538894 213.00029838 73.61566379 231.71068347 59.06518555 246.86743164 C36.89426138 268.1145673 7.6588 268.50723103 -21.27856445 268.11352539 C-21.27856445 255.90352539 -21.27856445 243.69352539 -21.27856445 231.11352539 C-9.02856445 230.80102539 -9.02856445 230.80102539 -5.24633789 230.72558594 C6.29842646 230.35291093 17.51866833 228.59393984 26.72143555 221.11352539 C32.40092094 214.65895729 33.6119537 207.15420948 34.26831055 198.84790039 C34.35435547 197.7725 34.44040039 196.69709961 34.52905273 195.58911133 C34.59253906 194.77216797 34.65602539 193.95522461 34.72143555 193.11352539 C32.99812012 193.13709106 32.99812012 193.13709106 31.23999023 193.16113281 C26.92365704 193.21597535 22.60735378 193.25007043 18.29077148 193.27832031 C16.43264565 193.29328444 14.57455438 193.31366312 12.71655273 193.33984375 C-4.54918925 193.5768063 -19.21001051 192.29159922 -32.4309082 180.04321289 C-46.21380045 165.64839519 -44.87687018 147.62628486 -44.80981445 129.01586914 C-44.8125132 126.37276568 -44.81639879 123.72966319 -44.82141113 121.08656311 C-44.82865236 115.56511303 -44.81919229 110.0438782 -44.80004883 104.52246094 C-44.77827581 98.16989276 -44.78534839 91.81783819 -44.80735445 85.46528238 C-44.82780166 79.31268406 -44.8255008 73.16031062 -44.81382751 67.00769234 C-44.81117236 64.40794362 -44.81438698 61.80818164 -44.82374573 59.20844841 C-44.83398104 55.56700498 -44.81831179 51.92652826 -44.79614258 48.28515625 C-44.8042395 47.22663452 -44.81233643 46.16811279 -44.82067871 45.07751465 C-44.69406111 33.76869727 -41.32289069 23.9746365 -34.27856445 15.11352539 C-33.80032227 14.49864258 -33.32208008 13.88375977 -32.8293457 13.25024414 C-24.47752569 3.76240831 -12.23871297 -0.05733208 0 0 Z M1.72143555 40.11352539 C-2.17806527 44.32920195 -3.39055016 47.49516704 -3.42573547 53.14727783 C-3.43289078 53.94055984 -3.44004608 54.73384186 -3.44741821 55.55116272 C-3.45010712 56.41253342 -3.45279602 57.27390411 -3.45556641 58.16137695 C-3.4621376 59.07569992 -3.4687088 59.99002289 -3.47547913 60.93205261 C-3.49517977 63.95608608 -3.50686748 66.98006996 -3.5168457 70.00415039 C-3.52092123 71.03859032 -3.52499676 72.07303024 -3.52919579 73.13881683 C-3.55004262 78.61394551 -3.56435042 84.08904922 -3.57373047 89.56420898 C-3.58479265 95.21109629 -3.61919459 100.85758932 -3.65890217 106.50433731 C-3.68508021 110.85388916 -3.69342337 115.2033472 -3.69701195 119.55297089 C-3.7018747 121.63411879 -3.71347977 123.71526258 -3.73204994 125.79633331 C-3.75646657 128.71390313 -3.75547163 131.63045443 -3.74853516 134.5480957 C-3.76134521 135.40136948 -3.77415527 136.25464325 -3.78735352 137.1337738 C-3.73786482 142.86789467 -2.59265035 147.35946142 0.72143555 152.11352539 C11.0077455 160.47115223 20.34784944 157.11352539 34.72143555 157.11352539 C34.72143555 117.18352539 34.72143555 77.25352539 34.72143555 36.11352539 C10.26381145 33.61737451 10.26381145 33.61737451 1.72143555 40.11352539 Z " fill="#FFFFFF" transform="translate(147.278564453125,143.886474609375)"/>
<path d="M0 0 C65.67 0 131.34 0 199 0 C199 12.21 199 24.42 199 37 C133.33 37 67.66 37 0 37 C0 24.79 0 12.58 0 0 Z " fill="#FFFFFF" transform="translate(253,375)"/>
</svg>
