<?xml version="1.0" encoding="UTF-8"?>
<svg version="1.1" xmlns="http://www.w3.org/2000/svg" width="1200" height="675">
<path d="M0 0 C0.75190109 -0.00014603 1.50380219 -0.00029205 2.27848816 -0.0004425 C4.74574746 0.00025011 7.21292979 0.00801181 9.68017578 0.01586914 C11.39795897 0.01773564 13.1157427 0.01915845 14.83352661 0.02015686 C19.34128301 0.0239638 23.84900688 0.03377843 28.35675049 0.04486084 C32.96195028 0.05511424 37.56715535 0.05966289 42.17236328 0.06469727 C51.19841919 0.07540241 60.22445103 0.09245683 69.25048828 0.11352539 C69.27361513 8.44081487 69.29140511 16.76809102 69.30230045 25.09540462 C69.30752854 28.96172657 69.31462482 32.8280266 69.32592773 36.69433594 C69.33675928 40.4225594 69.34276568 44.15076174 69.34536552 47.87899971 C69.34721929 49.30442195 69.35083899 50.72984298 69.35621834 52.15525627 C69.36343221 54.14515947 69.36389636 56.13508373 69.36401367 58.125 C69.36623428 59.25973251 69.3684549 60.39446503 69.3707428 61.56358337 C69.25048828 64.11352539 69.25048828 64.11352539 68.25048828 65.11352539 C66.44020328 65.21232104 64.62596101 65.24324053 62.81298828 65.23852539 C61.82427734 65.24110352 60.83556641 65.24368164 59.81689453 65.24633789 C57.25048828 65.11352539 57.25048828 65.11352539 55.25048828 64.11352539 C54.5541661 62.28494823 53.94267696 60.42368554 53.37548828 58.55102539 C52.00381723 54.27523027 50.55165691 50.3223038 48.43798828 46.36743164 C47.1652646 43.9517686 46.00299141 41.49094336 44.83081055 39.02539062 C39.31428512 27.59862548 32.90916212 18.02475549 20.43017578 13.44555664 C8.6431816 11.65004677 -1.00616091 12.61795819 -10.93701172 19.23852539 C-28.345864 35.20465511 -28.51546828 67.14708583 -29.5057373 88.81254578 C-35.50289745 157.05334299 -35.50289745 157.05334299 -16.68701172 219.55102539 C-10.58426288 224.87469991 -3.60792731 225.15921385 4.25048828 225.11352539 C9.67116683 224.42483262 13.87779315 223.00417222 17.68798828 218.98852539 C20.63699722 215.04266835 22.04047789 210.84289528 23.25048828 206.11352539 C23.58677246 204.97415527 23.92305664 203.83478516 24.26953125 202.66088867 C25.57378016 197.4081383 25.57457106 192.2401006 25.58642578 186.85180664 C25.59308258 185.78415573 25.59973938 184.71650482 25.6065979 183.61650085 C25.61668452 181.36495678 25.62141616 179.11338305 25.62109375 176.86181641 C25.62545292 173.45366933 25.66177834 170.04683333 25.69970703 166.63891602 C26.29596474 149.20841651 26.29596474 149.20841651 19.97973633 133.3840332 C14.26764099 128.00956473 5.71273719 125.74165243 -1.74951172 124.11352539 C-1.74951172 120.15352539 -1.74951172 116.19352539 -1.74951172 112.11352539 C22.34048828 112.11352539 46.43048828 112.11352539 71.25048828 112.11352539 C71.25048828 172.50352539 71.25048828 232.89352539 71.25048828 295.11352539 C66.96048828 295.11352539 62.67048828 295.11352539 58.25048828 295.11352539 C57.84958984 293.98817383 57.44869141 292.86282227 57.03564453 291.70336914 C52.04658493 278.08450419 46.06976644 265.939909 36.25048828 255.11352539 C36.25048828 254.45352539 36.25048828 253.79352539 36.25048828 253.11352539 C35.69361328 252.84540039 35.13673828 252.57727539 34.56298828 252.30102539 C32.03823494 251.00453043 29.61334344 249.68876216 27.25048828 248.11352539 C27.25048828 247.45352539 27.25048828 246.79352539 27.25048828 246.11352539 C25.94020717 245.6488867 24.62707839 245.19227958 23.31298828 244.73852539 C22.58208984 244.48329102 21.85119141 244.22805664 21.09814453 243.96508789 C13.86556809 241.80225982 7.0559078 240.72601032 -0.49951172 240.73852539 C-1.80069946 240.73767944 -1.80069946 240.73767944 -3.12817383 240.73681641 C-10.58787441 240.86339269 -16.79957234 242.33578076 -23.74951172 245.11352539 C-24.73951172 245.44352539 -25.72951172 245.77352539 -26.74951172 246.11352539 C-27.45625801 247.42605421 -28.11135827 248.76631256 -28.74951172 250.11352539 C-29.5760265 251.18133811 -30.41017337 252.24326274 -31.24951172 253.30102539 C-36.34384628 260.44515137 -36.13530877 268.16722453 -35.35498047 276.66821289 C-34.02174907 284.2547296 -30.5779411 290.09836522 -24.74951172 295.11352539 C-24.12818359 295.67813477 -23.50685547 296.24274414 -22.86669922 296.82446289 C-16.94540401 302.16038291 -10.53410596 306.30120323 -3.68701172 310.36352539 C1.14682042 313.24669692 5.96256997 316.15436698 10.75048828 319.11352539 C14.79541812 321.61303363 18.85572342 324.0825831 22.93847656 326.51953125 C46.13521248 340.36915792 68.39939592 354.16244639 77.25048828 381.11352539 C77.61658203 382.17442383 77.98267578 383.23532227 78.35986328 384.32836914 C81.79802811 398.94056968 79.62082565 414.30631019 74.25048828 428.11352539 C73.78449219 429.3181543 73.78449219 429.3181543 73.30908203 430.54711914 C66.3467065 446.06416236 52.85599341 458.73438907 37.1015625 464.96313477 C32.54152339 466.56156253 27.90958645 467.84007265 23.25048828 469.11352539 C22.27208984 469.46543945 21.29369141 469.81735352 20.28564453 470.17993164 C13.77383354 472.18292112 7.12667352 472.26037868 0.37182617 472.24291992 C-0.90035767 472.2455484 -0.90035767 472.2455484 -2.19824219 472.24822998 C-4.97446801 472.25259731 -7.75062912 472.24973053 -10.52685547 472.24633789 C-12.46358757 472.24701196 -14.40031958 472.24798285 -16.33705139 472.24923706 C-20.3808778 472.25070671 -24.42468204 472.24858143 -28.46850586 472.24389648 C-33.6629228 472.23817283 -38.85728836 472.2414994 -44.05170345 472.24746895 C-48.04324231 472.2510716 -52.03476885 472.24993781 -56.02630806 472.24734116 C-57.94295826 472.24667245 -59.85960956 472.24749837 -61.77625847 472.24982071 C-64.44307327 472.25234525 -67.10980292 472.24851072 -69.77661133 472.24291992 C-70.57396194 472.24494415 -71.37131256 472.24696838 -72.19282532 472.24905396 C-77.63524349 472.22779362 -77.63524349 472.22779362 -78.74951172 471.11352539 C-78.84978967 468.7154339 -78.88569848 466.34613041 -78.87890625 463.94750977 C-78.88065857 463.1979451 -78.88241089 462.44838043 -78.88421631 461.67610168 C-78.88863492 459.1864697 -78.88569681 456.69690816 -78.88232422 454.20727539 C-78.88299726 452.48474107 -78.88396728 450.76220684 -78.88522339 449.03967285 C-78.88670037 445.42479551 -78.88454579 441.80994284 -78.87988281 438.19506836 C-78.87418552 433.55086046 -78.87746452 428.90671035 -78.88345528 424.26250458 C-78.88706087 420.70415813 -78.88592231 417.14582549 -78.88332748 413.58747864 C-78.88265821 411.87457777 -78.88348665 410.16167567 -78.88580704 408.44877625 C-78.88833355 406.05899717 -78.88449302 403.66931298 -78.87890625 401.27954102 C-78.88093048 400.56470047 -78.88295471 399.84985992 -78.88504028 399.11335754 C-78.86377441 394.22778808 -78.86377441 394.22778808 -77.74951172 393.11352539 C-75.72986973 393.04108486 -73.70784048 393.02975351 -71.68701172 393.05102539 C-70.58228516 393.06004883 -69.47755859 393.06907227 -68.33935547 393.07836914 C-67.05738281 393.09577148 -67.05738281 393.09577148 -65.74951172 393.11352539 C-63.03674576 401.11618497 -63.03674576 401.11618497 -61.90576172 405.04321289 C-58.12924322 418.09824667 -53.24505786 430.39198278 -44.74951172 441.11352539 C-44.29576172 441.7180957 -43.84201172 442.32266602 -43.37451172 442.94555664 C-40.84663077 446.19230373 -38.29364362 448.08830716 -34.74951172 450.11352539 C-34.74951172 450.77352539 -34.74951172 451.43352539 -34.74951172 452.11352539 C-31.10132944 453.36158775 -27.43407525 454.54060098 -23.74951172 455.67602539 C-22.94513672 455.92481445 -22.14076172 456.17360352 -21.31201172 456.42993164 C-7.93264619 459.99912214 5.92522345 458.84363132 18.68798828 453.73852539 C26.79612646 448.59677923 30.06826439 441.17163579 32.25048828 432.11352539 C32.5378174 429.33612389 32.58475426 426.59180241 32.56298828 423.80102539 C32.55807373 423.05409424 32.55315918 422.30716309 32.5480957 421.53759766 C32.34797678 412.07043309 29.79041143 404.78290849 24.25048828 397.11352539 C23.16767578 395.59758789 23.16767578 395.59758789 22.06298828 394.05102539 C14.1055545 384.87510956 1.16258461 379.19349527 -9.22949219 373.28125 C-15.47579396 369.71755812 -21.65040505 366.04056859 -27.79345703 362.30200195 C-29.12419768 361.49345908 -30.45696364 360.68824224 -31.79150391 359.88598633 C-40.65892102 354.54884445 -49.02072883 349.05591383 -56.74951172 342.11352539 C-57.55001953 341.39551758 -58.35052734 340.67750977 -59.17529297 339.93774414 C-71.21552701 328.54505209 -78.71169019 313.22938614 -79.68701172 296.61352539 C-79.74809042 294.11418479 -79.77459494 291.61348636 -79.74951172 289.11352539 C-79.74822266 288.29754883 -79.74693359 287.48157227 -79.74560547 286.64086914 C-78.85312356 271.23835876 -70.51322262 256.92071794 -59.63623047 246.47680664 C-52.86551846 240.93380155 -45.13408538 236.65430529 -36.74951172 234.11352539 C-37.26860107 233.83677979 -37.78769043 233.56003418 -38.32250977 233.27490234 C-40.69906689 232.00113135 -43.06798275 230.71373967 -45.43701172 229.42602539 C-46.25363281 228.9909668 -47.07025391 228.5559082 -47.91162109 228.10766602 C-52.54797595 225.57362591 -56.18127874 223.0939974 -59.74951172 219.11352539 C-60.51263672 218.41227539 -61.27576172 217.71102539 -62.06201172 216.98852539 C-76.21575869 201.8473077 -81.21458381 184.9897806 -84.74951172 165.11352539 C-84.9375386 164.14635086 -84.9375386 164.14635086 -85.12936401 163.15963745 C-87.90351743 148.83916504 -88.34332906 134.73678561 -88.31201172 120.17602539 C-88.31319 119.01042084 -88.31436829 117.84481628 -88.31558228 116.64389038 C-88.29388593 98.71886374 -87.07708525 82.31875286 -81.74951172 65.11352539 C-81.51143799 64.25025635 -81.27336426 63.3869873 -81.02807617 62.49755859 C-79.45020282 56.84830933 -77.36852437 51.8208943 -74.56201172 46.67602539 C-74.16981445 45.94738281 -73.77761719 45.21874023 -73.37353516 44.46801758 C-63.20316065 25.9518812 -47.91123431 11.06858809 -27.56640625 4.39770508 C-18.49437402 1.7617341 -9.46164985 -0.04870493 0 0 Z " fill="#000000" transform="translate(120.74951171875,99.886474609375)"/>
<path d="M0 0 C0.85049423 0.00222061 1.70098846 0.00444122 2.57725525 0.00672913 C4.03887085 0.0069104 4.03887085 0.0069104 5.53001404 0.00709534 C6.56130432 0.0122113 7.5925946 0.01732727 8.65513611 0.02259827 C10.06901611 0.02410889 10.06901611 0.02410889 11.51145935 0.02565002 C15.04764515 0.03089975 18.58381367 0.04486088 22.11997986 0.05775452 C30.01935486 0.07837952 37.91872986 0.09900452 46.05747986 0.12025452 C46.38747986 18.93025452 46.71747986 37.74025452 47.05747986 57.12025452 C49.53247986 54.64525452 49.53247986 54.64525452 52.05747986 52.12025452 C52.71747986 52.12025452 53.37747986 52.12025452 54.05747986 52.12025452 C54.05747986 51.46025452 54.05747986 50.80025452 54.05747986 50.12025452 C68.01416601 42.46072828 83.35510246 39.18425831 99.14341736 42.96400452 C106.91505365 45.45902007 112.58597329 49.08756778 118.05747986 55.12025452 C118.55763611 55.64103577 119.05779236 56.16181702 119.57310486 56.69837952 C128.74395624 67.63710586 129.36594479 86.60511945 129.30039978 100.19496155 C129.30229813 101.45317215 129.30419647 102.71138275 129.30615234 104.00772095 C129.31095123 107.42236673 129.30341143 110.83687949 129.2931993 114.25150919 C129.28435264 117.83445466 129.28617741 121.41739678 129.28656006 125.00035095 C129.28562742 131.00355736 129.27699141 137.00671281 129.26329041 143.00990295 C129.24749742 149.95551675 129.24229497 156.90107511 129.24302596 163.84670556 C129.24369999 171.25109131 129.23677516 178.65545565 129.22757936 186.05983496 C129.2254458 188.19338022 129.22473792 190.32692205 129.22434044 192.46046829 C129.22315413 196.42016324 129.21346261 200.37981161 129.20274353 204.3394928 C129.20342331 206.11754555 129.20342331 206.11754555 129.20411682 207.93151855 C129.19985184 209.00242233 129.19558685 210.07332611 129.19119263 211.17668152 C129.18951678 212.11276308 129.18784094 213.04884464 129.18611431 214.01329231 C129.05747986 216.12025452 129.05747986 216.12025452 128.05747986 217.12025452 C126.55329246 217.21337341 125.0447663 217.23771479 123.53770447 217.23377991 C122.09632362 217.23366661 122.09632362 217.23366661 120.62582397 217.23355103 C119.58104385 217.22838974 118.53626373 217.22322845 117.45982361 217.21791077 C115.8638308 217.21578835 115.8638308 217.21578835 114.2355957 217.21362305 C110.82202903 217.20800515 107.40852686 217.19544963 103.99497986 217.18275452 C101.68703809 217.17774182 99.37909531 217.17317852 97.07115173 217.16908264 C91.39990559 217.15802991 85.72869733 217.14127438 80.05747986 217.12025452 C80.05509151 216.40279619 80.05270315 215.68533787 80.05024242 214.94613838 C79.99101231 197.45933482 79.91541117 179.97267801 79.82176495 162.48602486 C79.77686918 154.0294787 79.73744028 145.57297407 79.71104431 137.11634827 C79.68801374 129.74241523 79.65455952 122.3686143 79.6087783 114.99478614 C79.58491404 111.09323115 79.56614088 107.19180643 79.55986595 103.29018021 C79.55378412 99.6112795 79.53367384 95.93271186 79.50320435 92.25393486 C79.49033775 90.2734961 79.49198555 88.29297932 79.49420166 86.3125 C79.50731073 74.21866204 79.50731073 74.21866204 73.93247986 63.99525452 C68.31293825 62.28495925 63.23206809 62.30372906 57.80747986 64.68275452 C52.69707089 67.57390222 50.03199529 71.50074313 48.01342773 76.92668152 C46.44333804 82.59452418 46.75728362 88.45634321 46.75450134 94.29164124 C46.74184235 96.26586311 46.74184235 96.26586311 46.72892761 98.27996826 C46.71072192 101.13040055 46.69863734 103.98076821 46.69138908 106.83124924 C46.67986822 111.33521847 46.65440075 115.83904417 46.6270752 120.34294128 C46.58551395 127.46010283 46.5530522 134.57727131 46.52460104 141.69449627 C46.47349754 154.46018791 46.41156897 167.22582043 46.33926064 179.99140942 C46.31430044 184.47279967 46.29488744 188.95417057 46.2798785 193.43560481 C46.27215061 195.54667206 46.26222556 197.65771524 46.25132751 199.76876831 C46.23811791 202.34793453 46.22854654 204.92712274 46.22314453 207.50631714 C46.21624603 208.63348648 46.20934753 209.76065582 46.20223999 210.92198181 C46.19838508 211.90750471 46.19453016 212.89302761 46.19055843 213.90841484 C46.05747986 216.12025452 46.05747986 216.12025452 45.05747986 217.12025452 C43.58942694 217.21848196 42.11670526 217.24823822 40.64537048 217.24964905 C39.70769836 217.25280121 38.77002625 217.25595337 37.80393982 217.25920105 C36.78417053 217.25717682 35.76440125 217.25515259 34.71372986 217.25306702 C33.15458862 217.25450211 33.15458862 217.25450211 31.56394958 217.25596619 C29.36143432 217.25664814 27.15891707 217.25479278 24.95640564 217.25062561 C21.57208267 217.24527759 18.18789242 217.2505701 14.80357361 217.25697327 C12.66945873 217.25631249 10.53534393 217.25503133 8.40122986 217.25306702 C7.38146057 217.25509125 6.36169128 217.25711548 5.3110199 217.25920105 C3.90451172 217.25447281 3.90451172 217.25447281 2.46958923 217.24964905 C1.6398761 217.24885345 0.81016296 217.24805786 -0.04469299 217.24723816 C-1.94252014 217.12025452 -1.94252014 217.12025452 -2.94252014 216.12025452 C-3.10287574 213.09218407 -3.20212462 210.08439998 -3.25892639 207.05384827 C-3.27970749 206.14522537 -3.30048859 205.23660248 -3.32189941 204.30044556 C-3.38749686 201.38629506 -3.44632694 198.47205148 -3.50502014 195.55775452 C-3.54819568 193.58704161 -3.59180965 191.61633825 -3.63587952 189.64564514 C-3.74318858 184.80394464 -3.84442689 179.96215015 -3.94252014 175.12025452 C-4.34229065 175.79499817 -4.74206116 176.46974182 -5.15394592 177.16493225 C-5.68487854 178.05639954 -6.21581116 178.94786682 -6.76283264 179.86634827 C-7.28635315 180.74734192 -7.80987366 181.62833557 -8.34925842 182.536026 C-10.64895988 186.26608115 -13.19511771 189.71106902 -15.94252014 193.12025452 C-16.50326233 193.83955139 -17.06400452 194.55884827 -17.64173889 195.29994202 C-29.29930511 209.42588179 -46.1160485 217.28989622 -63.94252014 220.12025452 C-68.93104505 220.52705116 -73.87663743 220.59921102 -78.88002014 220.55775452 C-80.19816711 220.54800598 -81.51631409 220.53825745 -82.87440491 220.5282135 C-99.5035864 220.22447946 -114.30458373 216.19689065 -126.69252014 204.53041077 C-127.80627014 203.33738342 -127.80627014 203.33738342 -128.94252014 202.12025452 C-129.45556702 201.58142639 -129.96861389 201.04259827 -130.49720764 200.48744202 C-137.52011308 192.5503122 -142.20310417 184.19604201 -145.75502014 174.24525452 C-146.04497864 173.44386047 -146.33493713 172.64246643 -146.63368225 171.81678772 C-150.78794577 159.58662613 -151.26837679 147.34709128 -151.20326233 134.56336975 C-151.19252118 132.05799756 -151.20322894 129.55333976 -151.21595764 127.04798889 C-151.22926919 114.45659051 -150.02484281 102.99187919 -145.75502014 91.05775452 C-145.45184875 90.19794983 -145.14867737 89.33814514 -144.83631897 88.45228577 C-142.65356809 82.50126972 -140.09984198 77.39693702 -136.42298889 72.21400452 C-134.90216558 70.19167325 -134.90216558 70.19167325 -133.95423889 68.02650452 C-132.78211238 65.81801905 -131.50925579 64.68042639 -129.56752014 63.12025452 C-127.55204839 61.466321 -125.69964744 59.87002204 -123.88002014 57.99525452 C-117.80918681 52.12025452 -117.80918681 52.12025452 -113.94252014 52.12025452 C-113.94252014 51.46025452 -113.94252014 50.80025452 -113.94252014 50.12025452 C-87.54815874 39.02760762 -59.78716031 38.78202739 -32.94252014 49.12025452 C-30.94252014 51.12025452 -30.94252014 51.12025452 -30.70201111 52.95524597 C-30.70645233 53.69693024 -30.71089355 54.4386145 -30.71546936 55.20277405 C-30.71562042 56.04349457 -30.71577148 56.88421509 -30.71592712 57.75041199 C-30.72624969 58.65878815 -30.73657227 59.56716431 -30.74720764 60.50306702 C-30.75003754 61.43247101 -30.75286743 62.361875 -30.75578308 63.31944275 C-30.76699945 66.29484302 -30.79210654 69.26994487 -30.81752014 72.24525452 C-30.82754806 74.25957309 -30.83667424 76.27389638 -30.84486389 78.28822327 C-30.86694354 83.23234908 -30.90148321 88.17625116 -30.94252014 93.12025452 C-35.23252014 93.12025452 -39.52252014 93.12025452 -43.94252014 93.12025452 C-44.80877014 91.38775452 -45.67502014 89.65525452 -46.56752014 87.87025452 C-47.11923889 86.77455139 -47.67095764 85.67884827 -48.23939514 84.54994202 C-49.31690584 82.38009249 -50.3720418 80.19886128 -51.39564514 78.00306702 C-55.47735053 69.36869023 -60.43287991 59.52809366 -69.73548889 55.67494202 C-75.49397332 54.2276769 -80.74304952 53.95273678 -86.04798889 56.76869202 C-95.2998797 64.28507294 -97.42307979 77.45705901 -98.692276 88.68373108 C-98.77485657 89.48778381 -98.85743713 90.29183655 -98.94252014 91.12025452 C-99.03605774 91.96813538 -99.12959534 92.81601624 -99.22596741 93.68959045 C-100.23401734 104.38368541 -100.1285974 115.11496002 -100.12782288 125.84681702 C-100.1300017 129.21673874 -100.14818941 132.58632824 -100.16712952 135.95619202 C-100.68640593 168.25445625 -100.68640593 168.25445625 -87.94252014 197.12025452 C-81.03627017 203.5478535 -71.87858593 202.52747044 -63.07533264 202.39369202 C-49.59871735 201.89528918 -38.10724998 195.84042253 -28.94252014 186.12025452 C-28.22064514 185.76962952 -27.49877014 185.41900452 -26.75502014 185.05775452 C-24.3736949 183.82603456 -24.11134292 182.50103007 -22.94252014 180.12025452 C-22.04705928 178.9577737 -21.12869384 177.81270611 -20.19252014 176.68275452 C-3.65514866 154.90182623 -3.4868007 125.7917954 -3.4693408 99.78363562 C-3.46359109 96.30610979 -3.4402699 92.82869969 -3.41874695 89.35124207 C-3.38057989 82.79758661 -3.3561292 76.24396532 -3.33762228 69.69022763 C-3.30389282 57.9066634 -3.24649623 46.12319991 -3.18363059 34.33975899 C-3.16215132 30.20959706 -3.14687789 26.07947121 -3.13679099 21.9492662 C-3.12816021 18.79905428 -3.11358854 15.64886741 -3.10023499 12.49867249 C-3.09919266 11.35392456 -3.09815033 10.20917664 -3.09707642 9.02973938 C-3.09162308 7.99563934 -3.08616974 6.96153931 -3.08055115 5.89610291 C-3.07799505 4.99253492 -3.07543896 4.08896694 -3.0728054 3.15801811 C-2.90035282 0.46072455 -2.69993054 0.1671431 0 0 Z " fill="#000000" transform="translate(524.9425201416016,354.87974548339844)"/>
<path d="M0 0 C3.71774658 3.24990934 6.51709377 7.00128916 9.328125 11.03515625 C10.3240722 12.37151958 11.32285141 13.70579445 12.328125 15.03515625 C12.65683594 14.55046875 12.98554687 14.06578125 13.32421875 13.56640625 C20.72963027 3.13059598 30.62864303 -5.29736844 43.5234375 -7.68359375 C57.68612906 -9.10380795 71.20891162 -8.96005803 82.97265625 -0.0390625 C95.45141268 10.94969317 98.3026162 24.0315534 99.328125 40.03515625 C99.64459268 49.0866221 99.56950963 58.14641587 99.53091288 67.20191884 C99.51823774 70.68786262 99.51722202 74.17381151 99.51486206 77.65977478 C99.5086958 84.23244479 99.49235223 90.80504665 99.47216308 97.37768692 C99.44965103 104.87248754 99.43877255 112.36729176 99.42877221 119.86211789 C99.40798047 135.25316986 99.37290115 150.6441542 99.328125 166.03515625 C96.02740215 167.41029937 93.50815222 168.28505959 89.92089844 168.27807617 C89.0836322 168.2811528 88.24636597 168.28422943 87.38372803 168.28739929 C86.04909515 168.27662102 86.04909515 168.27662102 84.6875 168.265625 C83.76471252 168.26516678 82.84192505 168.26470856 81.89117432 168.26423645 C79.94794421 168.26122336 78.00471632 168.25336536 76.06152344 168.2409668 C73.07478368 168.22263574 70.08835281 168.22045774 67.1015625 168.22070312 C65.21353897 168.21579046 63.32551754 168.20996324 61.4375 168.203125 C60.09072174 168.20145576 60.09072174 168.20145576 58.71673584 168.19975281 C52.44419489 168.15122614 52.44419489 168.15122614 51.328125 167.03515625 C51.22397937 165.28849825 51.19014337 163.5376193 51.18336487 161.78787231 C51.17301712 160.0805468 51.17301712 160.0805468 51.16246033 158.33872986 C51.15854027 156.44846825 51.15854027 156.44846825 51.15454102 154.52001953 C51.14427537 152.49557759 51.13400764 150.47113567 51.12366188 148.44669414 C51.11341025 146.26240017 51.10556876 144.07810856 51.09832954 141.89380264 C51.08289071 137.33719314 51.05893677 132.78065341 51.03343201 128.22409058 C50.96220908 115.2636965 50.90264937 102.30326095 50.85131836 89.34277344 C50.8229166 82.1907939 50.78747376 75.03888232 50.74466461 67.88697422 C50.71802862 63.36654096 50.70003882 58.84618462 50.68862736 54.3256886 C50.67943004 51.49642515 50.66203403 48.66725392 50.64244843 45.83804512 C50.63154037 43.92101221 50.63022911 42.00393201 50.62931824 40.08686829 C50.69882806 27.45025643 50.69882806 27.45025643 46.328125 15.91015625 C42.67367796 12.48411215 39.62618153 12.75786457 34.796875 12.8203125 C31.55404789 13.10252056 29.82953421 13.96256005 27.328125 16.03515625 C26.461875 16.73640625 25.595625 17.43765625 24.703125 18.16015625 C18.60050549 25.54753776 18.88511603 34.35607232 18.89575195 43.54125977 C18.88671913 44.88248081 18.87638821 46.22369364 18.86486816 47.56489563 C18.83745015 51.17997212 18.82803453 54.79489133 18.82201409 58.41005826 C18.81259053 62.19774606 18.78638413 65.98531819 18.76200867 69.77293396 C18.71844899 76.93371972 18.68983753 84.09448289 18.66668528 91.25536054 C18.63957691 99.41267568 18.59566904 107.56987386 18.55039656 115.72710526 C18.45770127 132.49639616 18.3859516 149.26570807 18.328125 166.03515625 C15.37617668 167.58806409 13.41813369 168.28463571 10.06616211 168.27807617 C8.81983253 168.28269112 8.81983253 168.28269112 7.54832458 168.28739929 C6.65968216 168.28021378 5.77103973 168.27302826 4.85546875 168.265625 C3.93600967 168.26516678 3.0165506 168.26470856 2.06922913 168.26423645 C0.12841499 168.26121926 -1.81239684 168.25334892 -3.75317383 168.2409668 C-6.72681232 168.2227027 -9.70013937 168.22045726 -12.67382812 168.22070312 C-14.55989853 168.21578791 -16.44596682 168.20995958 -18.33203125 168.203125 C-19.66803123 168.20145576 -19.66803123 168.20145576 -21.03102112 168.19975281 C-21.85875534 168.19337296 -22.68648956 168.1869931 -23.53930664 168.18041992 C-24.63040489 168.17470222 -24.63040489 168.17470222 -25.74354553 168.16886902 C-27.671875 168.03515625 -27.671875 168.03515625 -30.671875 167.03515625 C-30.67684022 165.96531667 -30.67684022 165.96531667 -30.68190575 164.87386417 C-30.76323011 147.49592748 -30.85535331 130.11808136 -30.95940208 112.74026585 C-31.0094612 104.33638378 -31.05590474 95.93251113 -31.09375 87.52856445 C-31.12675648 80.2011794 -31.16663515 72.87386897 -31.21466506 65.54656643 C-31.23984424 61.66909977 -31.26165054 57.79168207 -31.27521896 53.91415596 C-31.28811762 50.25912577 -31.31025479 46.60426422 -31.33925819 42.94932747 C-31.35254848 40.97942493 -31.35624032 39.00946482 -31.35957336 37.03952026 C-31.43276229 29.23544138 -32.19311276 22.47144296 -34.671875 15.03515625 C-35.331875 15.03515625 -35.991875 15.03515625 -36.671875 15.03515625 C-36.671875 14.37515625 -36.671875 13.71515625 -36.671875 13.03515625 C-46.90112413 12.42739623 -46.90112413 12.42739623 -55.671875 17.03515625 C-62.69983035 25.42965848 -63.11651321 34.93718565 -63.10424805 45.44946289 C-63.1144397 46.76750916 -63.12463135 48.08555542 -63.13513184 49.44354248 C-63.16254759 53.0317605 -63.17196516 56.61982005 -63.17798591 60.20812917 C-63.18741007 63.9677902 -63.21361651 67.72733474 -63.23799133 71.48692322 C-63.28154937 78.59458485 -63.31016183 85.70222374 -63.33331472 92.80997795 C-63.36042397 100.90683524 -63.40433178 109.00357471 -63.44960344 117.10034764 C-63.54229639 133.74522398 -63.61404712 150.39012148 -63.671875 167.03515625 C-67.14560001 167.63212595 -70.46634812 168.16097151 -73.99316406 168.18041992 C-74.78708557 168.18679977 -75.58100708 168.19317963 -76.39898682 168.19975281 C-77.23669617 168.20086563 -78.07440552 168.20197845 -78.9375 168.203125 C-80.24941315 168.2081176 -80.24941315 168.2081176 -81.58782959 168.21321106 C-83.4267118 168.218253 -85.26560307 168.22062023 -87.10449219 168.22045898 C-89.92658248 168.22265992 -92.74829052 168.24088348 -95.5703125 168.25976562 C-97.35937366 168.26269717 -99.14843668 168.26468356 -100.9375 168.265625 C-102.20620941 168.27640327 -102.20620941 168.27640327 -103.50054932 168.28739929 C-109.44303208 168.26399917 -109.44303208 168.26399917 -111.671875 166.03515625 C-111.91797066 163.14972496 -111.91797066 163.14972496 -111.91238403 159.37875366 C-111.91409288 158.68692446 -111.91580173 157.99509526 -111.91756237 157.28230155 C-111.92086929 154.95290845 -111.90983405 152.62380036 -111.89892578 150.29443359 C-111.89836193 148.6291352 -111.89867772 146.96383631 -111.89981079 145.29853821 C-111.90038631 140.76776616 -111.8885999 136.23709929 -111.87466288 131.70635176 C-111.86218859 126.9751078 -111.86098763 122.24386162 -111.85861206 117.51260376 C-111.85238756 108.5488657 -111.83596365 99.58517623 -111.81591308 90.6214596 C-111.79358422 80.41847026 -111.78256824 70.21547864 -111.77252221 60.01247096 C-111.75159824 39.01999955 -111.71490993 18.02759478 -111.671875 -2.96484375 C-96.821875 -2.96484375 -81.971875 -2.96484375 -66.671875 -2.96484375 C-66.176875 3.96515625 -66.176875 3.96515625 -65.671875 11.03515625 C-64.393125 9.50890625 -63.114375 7.98265625 -61.796875 6.41015625 C-46.31970731 -10.66060437 -18.65688007 -13.81665175 0 0 Z " fill="#000000" transform="translate(749.671875,153.96484375)"/>
<path d="M0 0 C15.84 0 31.68 0 48 0 C48 71.28 48 142.56 48 216 C33.15 216 18.3 216 3 216 C2.67 210.72 2.34 205.44 2 200 C1.175 201.52625 0.35 203.0525 -0.5 204.625 C-5.34995912 212.6666184 -12.22400656 216.94678553 -21 220 C-35.13489539 223.14108787 -48.48117505 220.18127058 -60.89453125 213.0625 C-76.32687682 202.81309313 -84.36992705 185.2767813 -88.6875 167.75 C-94.98955086 135.91748174 -94.91913529 97.68153809 -78 69 C-75.27474369 65.02388434 -72.33736458 61.47370451 -69 58 C-68.08154297 57.02160156 -68.08154297 57.02160156 -67.14453125 56.0234375 C-57.42027934 46.61019578 -44.02878127 41.58019617 -30.625 41.6875 C-29.88185547 41.69313965 -29.13871094 41.6987793 -28.37304688 41.70458984 C-18.45295112 41.92297033 -10.74860835 44.66343873 -3 51 C-2.67 51.66 -2.34 52.32 -2 53 C-1.98969254 52.35076065 -1.97938507 51.7015213 -1.96876526 51.03260803 C-1.86093864 44.30100948 -1.74632219 37.5695513 -1.62768555 30.83813477 C-1.58425994 28.32286504 -1.54259071 25.80756437 -1.50268555 23.29223633 C-1.44516707 19.68561456 -1.38142033 16.07914969 -1.31640625 12.47265625 C-1.29969376 11.34038101 -1.28298126 10.20810577 -1.26576233 9.04151917 C-1.24581711 8.00051559 -1.22587189 6.95951202 -1.20532227 5.88696289 C-1.18977798 4.96540909 -1.1742337 4.04385529 -1.15821838 3.09437561 C-1 1 -1 1 0 0 Z M-32.8671875 60.21484375 C-44.45788576 78.48018549 -42.16606094 104.98799917 -42.13037109 125.62084961 C-42.12502764 129.29349932 -42.13033282 132.96602595 -42.13671875 136.63867188 C-42.33253655 160.73531938 -42.33253655 160.73531938 -39.1875 184.5625 C-39.03474609 185.37267578 -38.88199219 186.18285156 -38.72460938 187.01757812 C-37.45079638 193.26580706 -35.62526147 199.52916568 -30.875 204 C-25.46351355 205.88225616 -20.2389362 205.60279052 -14.75 204.125 C-5.58799798 197.04527117 -3.31207987 184.73221374 -1.67623901 173.84529114 C0.04540075 160.40844415 0.31203528 147.01442161 0.26074219 133.48291016 C0.25003377 130.13555708 0.26070067 126.78874309 0.2734375 123.44140625 C1.53122473 89.8149153 1.53122473 89.8149153 -11 60 C-14.31413754 56.83748967 -16.84823686 56.54220758 -21.375 56.5 C-27.73681783 56.66214095 -27.73681783 56.66214095 -32.8671875 60.21484375 Z " fill="#000000" transform="translate(556,104)"/>
<path d="M0 0 C9.3410652 7.95425177 13.62537687 16.89348153 15.2890625 28.94921875 C15.55206349 33.52211293 15.5425596 38.08126421 15.51611328 42.66064453 C15.51554792 44.01185599 15.51586816 45.36306807 15.51699829 46.71427917 C15.51756794 50.35205573 15.50587716 53.98969817 15.49185038 57.62744379 C15.47927769 61.44041403 15.47816739 65.25338796 15.47579956 69.06637573 C15.46960389 76.27322143 15.45321919 83.48000586 15.43310058 90.68682468 C15.41068175 98.89729075 15.39973316 107.10775988 15.38970971 115.31824899 C15.36885109 132.19528035 15.332199 149.07222739 15.2890625 165.94921875 C-0.5509375 165.94921875 -16.3909375 165.94921875 -32.7109375 165.94921875 C-32.72552002 161.65398193 -32.74010254 157.35874512 -32.75512695 152.93334961 C-32.80544545 138.74791024 -32.87188557 124.5625803 -32.94665241 110.37724972 C-32.99159296 101.77600773 -33.03101164 93.17480698 -33.05737305 84.57348633 C-33.08036724 77.07542968 -33.11378112 69.57750375 -33.15963906 62.0795508 C-33.18355218 58.11046293 -33.20229345 54.14150435 -33.20855141 50.17234612 C-33.21461097 46.43353928 -33.23464194 42.6950632 -33.26521301 38.95637894 C-33.27814736 36.93600058 -33.27642569 34.91554489 -33.2742157 32.89512634 C-33.35409306 25.1683875 -33.5569829 19.46362531 -38.8984375 13.51171875 C-43.4134052 11.00340336 -47.43015998 11.35187226 -52.3359375 12.63671875 C-59.23081053 16.44704332 -62.24001278 20.54911598 -64.7109375 27.94921875 C-65.56117979 31.56550991 -65.84480772 34.92629361 -65.86915588 38.63764954 C-65.88383911 40.33920448 -65.88383911 40.33920448 -65.89881897 42.07513428 C-65.90457443 43.31015686 -65.9103299 44.54517944 -65.91625977 45.81762695 C-65.92615936 47.12533554 -65.93605896 48.43304413 -65.94625854 49.78038025 C-65.97323649 53.35846307 -65.99428442 56.93655898 -66.01426053 60.51468682 C-66.03616407 64.25698229 -66.06353135 67.99923772 -66.09031677 71.74150085 C-66.14018468 78.82450587 -66.18514535 85.90753318 -66.22833914 92.99058169 C-66.27776202 101.05586685 -66.33266138 109.12111183 -66.38801873 117.18635809 C-66.50174815 133.77394125 -66.60860679 150.36156128 -66.7109375 166.94921875 C-70.21722649 167.55228484 -73.56423642 168.07534405 -77.12402344 168.09448242 C-77.9379657 168.10086227 -78.75190796 168.10724213 -79.59051514 168.11381531 C-80.45009827 168.11492813 -81.3096814 168.11604095 -82.1953125 168.1171875 C-83.09211731 168.1205159 -83.98892212 168.1238443 -84.91290283 168.12727356 C-86.79886362 168.1323164 -88.68483326 168.13468271 -90.57080078 168.13452148 C-93.46531577 168.13672208 -96.35945788 168.15494382 -99.25390625 168.17382812 C-101.08854036 168.17675971 -102.92317629 168.17874608 -104.7578125 168.1796875 C-106.05933258 168.19046577 -106.05933258 168.19046577 -107.387146 168.20146179 C-113.48209533 168.17806092 -113.48209533 168.17806092 -115.7109375 165.94921875 C-115.95703316 163.06378746 -115.95703316 163.06378746 -115.95144653 159.29281616 C-115.95315538 158.60098696 -115.95486423 157.90915776 -115.95662487 157.19636405 C-115.95993179 154.86697095 -115.94889655 152.53786286 -115.93798828 150.20849609 C-115.93742443 148.5431977 -115.93774022 146.87789881 -115.93887329 145.21260071 C-115.93944881 140.68182866 -115.9276624 136.15116179 -115.91372538 131.62041426 C-115.90125109 126.8891703 -115.90005013 122.15792412 -115.89767456 117.42666626 C-115.89145006 108.4629282 -115.87502615 99.49923873 -115.85497558 90.5355221 C-115.83264672 80.33253276 -115.82163074 70.12954114 -115.81158471 59.92653346 C-115.79066074 38.93406205 -115.75397243 17.94165728 -115.7109375 -3.05078125 C-100.5309375 -3.05078125 -85.3509375 -3.05078125 -69.7109375 -3.05078125 C-69.2159375 3.87921875 -69.2159375 3.87921875 -68.7109375 10.94921875 C-67.6384375 9.60859375 -66.5659375 8.26796875 -65.4609375 6.88671875 C-49.72206933 -10.70867085 -18.97834745 -14.36932021 0 0 Z " fill="#000000" transform="translate(1150.7109375,154.05078125)"/>
<path d="M0 0 C8.94954205 7.64554436 15.29161129 17.17249054 20.046875 27.86328125 C20.40523437 28.61738281 20.76359375 29.37148437 21.1328125 30.1484375 C31.6268143 53.77966712 30.2937599 85.20538554 25.046875 109.86328125 C24.86511719 110.85457031 24.68335938 111.84585938 24.49609375 112.8671875 C21.25542461 127.65962963 11.31488388 143.98725496 -0.953125 152.86328125 C-1.613125 152.86328125 -2.273125 152.86328125 -2.953125 152.86328125 C-2.953125 153.52328125 -2.953125 154.18328125 -2.953125 154.86328125 C-21.85009624 164.75698347 -41.69098122 169.78325721 -62.87109375 163.96484375 C-76.56819074 159.06930338 -87.99159896 151.37573674 -96.953125 139.86328125 C-97.45328125 139.24582031 -97.9534375 138.62835938 -98.46875 137.9921875 C-115.63518319 114.8175027 -116.35686905 80.1000387 -112.57421875 52.75390625 C-111.75310688 47.61033758 -110.61122497 42.79730344 -108.953125 37.86328125 C-108.65946045 36.95280029 -108.65946045 36.95280029 -108.35986328 36.02392578 C-105.23208252 26.43939492 -101.48314282 18.68649868 -94.953125 10.86328125 C-94.39882812 10.14785156 -93.84453125 9.43242187 -93.2734375 8.6953125 C-84.22804469 -2.49241019 -70.20776322 -10.6101925 -55.9609375 -12.890625 C-35.56859086 -14.55908972 -16.91666107 -12.23996509 0 0 Z M-55.953125 4.86328125 C-63.97068462 20.08709982 -63.11233932 39.78899071 -63.12109375 56.48828125 C-63.12432183 57.96639027 -63.12768695 59.444499 -63.13117981 60.92260742 C-63.13712178 64.00521584 -63.13902499 67.08779643 -63.13842773 70.17041016 C-63.13834675 73.2847274 -63.14525232 76.39889668 -63.15893555 79.51318359 C-65.60403927 118.31177182 -65.60403927 118.31177182 -51.640625 152.23828125 C-47.39436172 154.80578928 -43.80296347 155.21012596 -38.953125 154.30078125 C-33.82016084 151.84123592 -30.20104419 149.48661602 -27.69140625 144.2109375 C-24.95853032 136.15454117 -24.09910768 127.96192464 -23.34765625 119.5390625 C-22.953125 115.86328125 -22.953125 115.86328125 -21.953125 113.86328125 C-21.85579193 111.55136928 -21.82515198 109.23656694 -21.82373047 106.92260742 C-21.82197815 106.20858261 -21.82022583 105.4945578 -21.81842041 104.75889587 C-21.81400863 102.39132273 -21.81693845 100.02382394 -21.8203125 97.65625 C-21.81963904 96.01198818 -21.81866867 94.36772645 -21.81741333 92.72346497 C-21.81593709 89.27258356 -21.81808773 85.82172801 -21.82275391 82.37084961 C-21.82843773 77.95238519 -21.82518029 73.53398169 -21.81918144 69.11551952 C-21.81556239 65.71742802 -21.81672084 62.31935087 -21.81930923 58.92125893 C-21.81997548 57.29260564 -21.81916065 55.66395105 -21.81682968 54.0352993 C-21.81428262 51.75421084 -21.81817328 49.4732199 -21.82373047 47.19213867 C-21.82452606 45.89467209 -21.82532166 44.59720551 -21.82614136 43.26042175 C-21.93632157 40.31281632 -22.28133406 37.72388077 -22.953125 34.86328125 C-23.1707157 33.37295637 -23.37508142 31.8806427 -23.56640625 30.38671875 C-24.91108194 14.14753875 -24.91108194 14.14753875 -32.953125 0.86328125 C-33.613125 0.86328125 -34.273125 0.86328125 -34.953125 0.86328125 C-34.953125 0.20328125 -34.953125 -0.45671875 -34.953125 -1.13671875 C-43.69139287 -4.04947471 -50.3344251 -2.60230611 -55.953125 4.86328125 Z " fill="#000000" transform="translate(331.953125,159.13671875)"/>
<path d="M0 0 C15.57242843 16.62938058 13.3015075 39.61079674 13.23571944 60.72911406 C13.22683234 64.18924987 13.22869827 67.64938268 13.2290802 71.10952759 C13.22814982 76.90051569 13.21954187 82.6914507 13.20581055 88.48242188 C13.1899874 95.18045538 13.18481634 101.87843134 13.1855461 108.57648218 C13.18621996 115.72761838 13.17930016 122.87873241 13.1700995 130.02986193 C13.16796696 132.08766164 13.16725823 134.14545779 13.16686058 136.20325851 C13.16567463 140.01882734 13.15598527 143.8343478 13.14526367 147.64990234 C13.14571686 148.79158371 13.14617004 149.93326508 13.14663696 151.10954285 C13.14237198 152.14100937 13.13810699 153.17247589 13.13371277 154.23519897 C13.13203692 155.13658789 13.13036108 156.0379768 13.12863445 156.96668053 C13 159 13 159 12 160 C10.64905018 160.09268999 9.29332909 160.11747326 7.93920898 160.11352539 C7.07839218 160.11344986 6.21757538 160.11337433 5.33067322 160.11329651 C4.39526199 160.10813522 3.45985077 160.10297394 2.49609375 160.09765625 C1.54307877 160.0962413 0.59006378 160.09482635 -0.39183044 160.09336853 C-3.44875165 160.08775152 -6.50560077 160.07519616 -9.5625 160.0625 C-11.62955624 160.05748719 -13.69661362 160.05292391 -15.76367188 160.04882812 C-20.84247588 160.03777656 -25.9212257 160.02050055 -31 160 C-31.495 152.575 -31.495 152.575 -32 145 C-33.1446875 146.7634375 -33.1446875 146.7634375 -34.3125 148.5625 C-40.39940282 156.6401781 -49.2716921 160.93634146 -59 163 C-62.96911837 163.41582208 -66.88645763 163.47840325 -70.875 163.4375 C-71.93420654 163.42775146 -72.99341309 163.41800293 -74.0847168 163.40795898 C-86.00831477 163.136989 -94.35559024 160.67033258 -103.44921875 152.6953125 C-112.79924981 142.81549408 -116.12162823 132.30105823 -117 119 C-117.05414063 118.30390625 -117.10828125 117.6078125 -117.1640625 116.890625 C-117.76117386 102.45138667 -113.28197684 90.92948292 -104.2734375 79.8828125 C-102.60452912 78.10317087 -100.88602813 76.54670089 -99 75 C-98.34257812 74.4534375 -97.68515625 73.906875 -97.0078125 73.34375 C-85.45638147 64.55027309 -71.49900054 59.15047752 -57.67578125 55.11328125 C-46.71392646 51.93876068 -46.71392646 51.93876068 -38 45 C-36.12208228 39.63254172 -36.7753051 33.57134476 -36.75976562 27.94799805 C-36.75011052 25.8366682 -36.71908629 23.72633401 -36.6875 21.61523438 C-36.62855877 14.17890808 -36.91442639 7.84703477 -40 1 C-44.90857603 -3.04957523 -50.94245059 -2.57848357 -57 -2 C-66.23222438 -0.57536023 -73.34324177 4.23340854 -79.0078125 11.6171875 C-83.83469389 18.99333092 -87.73043617 26.82609043 -91 35 C-95.62 35 -100.24 35 -105 35 C-105.04934926 29.34001954 -105.08569529 23.68016364 -105.10986328 18.02001953 C-105.11993582 16.09356506 -105.13359443 14.16712592 -105.15087891 12.24072266 C-105.17507241 9.47554748 -105.18647036 6.710574 -105.1953125 3.9453125 C-105.20563507 3.0806839 -105.21595764 2.2160553 -105.22659302 1.32522583 C-105.22699106 -0.78453521 -105.12265243 -2.89380718 -105 -5 C-102.713429 -7.286571 -101.61672435 -7.51151934 -98.51953125 -8.21875 C-97.60937256 -8.42790039 -96.69921387 -8.63705078 -95.76147461 -8.85253906 C-94.78831299 -9.06620117 -93.81515137 -9.27986328 -92.8125 -9.5 C-91.8232251 -9.72139648 -90.8339502 -9.94279297 -89.81469727 -10.17089844 C-82.89722259 -11.68130819 -76.03351738 -12.8418255 -68.99609375 -13.640625 C-66.07461008 -13.94988843 -66.07461008 -13.94988843 -63.5234375 -14.50390625 C-42.01697516 -18.7319569 -16.50451591 -14.97063896 0 0 Z M-58.8125 72.875 C-69.75820674 85.28992913 -68.72489299 105.4692455 -68 121 C-67.3361927 133.4678294 -67.3361927 133.4678294 -61.11328125 143.84765625 C-57.22328844 145.96881684 -53.29485447 145.5757355 -49 145 C-44.61436549 143.68182252 -41.94552018 141.47014536 -39.6875 137.5 C-35.60703167 127.65677409 -35.71965119 116.9659919 -35.8046875 106.484375 C-35.80842927 105.13389295 -35.81127072 103.78340813 -35.81326294 102.43292236 C-35.82080802 98.92144949 -35.84037498 95.41014872 -35.8626709 91.89874268 C-35.883329 88.2984042 -35.89230682 84.69803723 -35.90234375 81.09765625 C-35.92363201 74.06503484 -35.95765388 67.0325288 -36 60 C-42.55329932 60 -54.14490205 68.58152249 -58.8125 72.875 Z " fill="#000000" transform="translate(335,412)"/>
<path d="M0 0 C8.66511063 8.58242827 13.46608018 18.71680484 13.99804783 30.95601463 C13.99712604 31.93864595 13.99620424 32.92127728 13.99525452 33.9336853 C13.99731651 35.63730225 13.99731651 35.63730225 13.99942017 37.37533569 C13.99582489 38.606763 13.99222961 39.83819031 13.98852539 41.10693359 C13.98867142 42.41478821 13.98881744 43.72264282 13.9889679 45.07012939 C13.98925407 48.64405413 13.98338642 52.2179451 13.97639394 55.79186201 C13.97013045 59.53145646 13.96955423 63.27105174 13.96836853 67.01065063 C13.96526404 74.08656852 13.95706255 81.16247091 13.94701904 88.23838198 C13.9358305 96.29640677 13.93034055 104.35443232 13.92532361 112.41246295 C13.91487919 128.9833177 13.89729685 145.55415687 13.875 162.125 C8.91678411 162.87202399 4.1227276 163.27287625 -0.88671875 163.2578125 C-1.95633598 163.25924759 -1.95633598 163.25924759 -3.04756165 163.26071167 C-4.54253224 163.26138746 -6.03750587 163.25957543 -7.5324707 163.25537109 C-9.81663578 163.24999026 -12.10060638 163.25534868 -14.38476562 163.26171875 C-15.84375043 163.26105833 -17.30273512 163.25977791 -18.76171875 163.2578125 C-20.07873779 163.25668457 -21.39575684 163.25555664 -22.75268555 163.25439453 C-26.125 163.125 -26.125 163.125 -30.125 162.125 C-30.455 157.835 -30.785 153.545 -31.125 149.125 C-31.90875 150.15625 -32.6925 151.1875 -33.5 152.25 C-40.02167538 159.86633011 -50.26592948 164.83406724 -60.125 166.125 C-76.83310274 167.1357757 -89.91871737 165.52451154 -103.16015625 154.41796875 C-113.1355185 144.35491101 -115.51491398 129.42092634 -115.57592773 115.89916992 C-115.30045437 100.17156277 -109.16455043 88.8805855 -97.88671875 77.95703125 C-83.9654984 65.86077761 -65.12015289 60.50935174 -47.97265625 54.72265625 C-46.82667969 54.31917969 -45.68070313 53.91570312 -44.5 53.5 C-43.05753906 53.01660156 -43.05753906 53.01660156 -41.5859375 52.5234375 C-38.18964275 50.59347953 -37.00502808 48.54249935 -35.125 45.125 C-34.75284269 42.31887959 -34.58486799 39.92258192 -34.62890625 37.12890625 C-34.6267234 36.00125099 -34.6267234 36.00125099 -34.62449646 34.85081482 C-34.6261489 33.26826077 -34.63763659 31.68568956 -34.65844727 30.10327148 C-34.68737732 27.69770074 -34.67904849 25.29434166 -34.66601562 22.88867188 C-34.67225517 21.34373942 -34.6806478 19.79881385 -34.69140625 18.25390625 C-34.68847061 17.5432753 -34.68553497 16.83264435 -34.68251038 16.10047913 C-34.77733204 11.01086321 -35.81607422 7.57015313 -38.125 3.125 C-42.76673117 -0.73120743 -47.47238386 -0.55477244 -53.2890625 -0.40234375 C-62.4652703 0.85915121 -69.94644027 5.17846234 -76 12.125 C-81.88604148 20.06840552 -86.46117238 28.96543094 -90.125 38.125 C-94.415 38.125 -98.705 38.125 -103.125 38.125 C-103.125 24.265 -103.125 10.405 -103.125 -3.875 C-93.0625 -6.25 -93.0625 -6.25 -89.93334961 -6.98583984 C-86.06063823 -7.90405385 -82.22578288 -8.84535798 -78.40625 -9.96875 C-54.36354427 -16.60911634 -19.98964689 -16.8263021 0 0 Z M-45 67.3125 C-45.70769531 67.69986328 -46.41539062 68.08722656 -47.14453125 68.48632812 C-51.44279745 70.90760471 -54.80649408 73.4075796 -58.125 77.125 C-59.20007813 78.32189453 -59.20007813 78.32189453 -60.296875 79.54296875 C-67.30451452 89.44051089 -66.50197949 102.89408416 -66.5 114.5 C-66.50181274 115.19477448 -66.50362549 115.88954895 -66.50549316 116.6053772 C-66.95425429 132.36729316 -66.95425429 132.36729316 -60.1015625 145.90625 C-56.0563338 148.40054122 -51.65902398 147.86099777 -47.125 147.125 C-41.82454122 145.28136216 -39.56519146 140.91908531 -37.125 136.125 C-33.73533827 128.00873594 -33.72872109 120.03913935 -33.83203125 111.3671875 C-33.83763965 109.96900899 -33.84190385 108.5708245 -33.84489441 107.17263794 C-33.85624555 103.52623677 -33.88562618 99.8802049 -33.91900635 96.23394775 C-33.94991963 92.49976596 -33.96344475 88.76552339 -33.97851562 85.03125 C-34.01050749 77.7289999 -34.06158267 70.42705207 -34.125 63.125 C-38.46922704 63.125 -41.28460334 65.20041415 -45 67.3125 Z " fill="#000000" transform="translate(988.125,158.875)"/>
<path d="M0 0 C2.60595523 0.42845101 5.21480702 0.83414009 7.82470703 1.23779297 C9.48507425 1.50340458 11.14523956 1.77028223 12.80517578 2.03857422 C13.58416229 2.15949432 14.3631488 2.28041443 15.16574097 2.40499878 C17.01928962 2.71719498 18.85665575 3.12291267 20.68798828 3.54638672 C21.84209082 5.8545918 21.80901798 7.15422948 21.80151367 9.72070312 C21.80140038 11.01181503 21.80140038 11.01181503 21.80128479 12.32901001 C21.7961235 13.25925995 21.79096222 14.18950989 21.78564453 15.14794922 C21.78422958 16.09954926 21.78281464 17.05114929 21.78135681 18.03158569 C21.7757484 21.07821769 21.76319448 24.12477684 21.75048828 27.17138672 C21.74547436 29.23388566 21.74091127 31.29638575 21.73681641 33.35888672 C21.72577624 38.42141489 21.70850595 43.48388844 21.68798828 48.54638672 C17.06798828 48.54638672 12.44798828 48.54638672 7.68798828 48.54638672 C7.35798828 47.20576172 7.02798828 45.86513672 6.68798828 44.48388672 C4.80642513 38.10849311 1.64233749 32.54655657 -1.56982422 26.76904297 C-3.31201172 23.54638672 -3.31201172 23.54638672 -4.31201172 20.54638672 C-5.79701172 20.05138672 -5.79701172 20.05138672 -7.31201172 19.54638672 C-8.11638672 18.72138672 -8.92076172 17.89638672 -9.74951172 17.04638672 C-12.14896648 14.70545524 -13.08335286 13.90512659 -16.31201172 13.54638672 C-16.31201172 12.88638672 -16.31201172 12.22638672 -16.31201172 11.54638672 C-26.38978081 10.05338389 -34.62840031 10.11714452 -44.31201172 13.54638672 C-45.30201172 13.87638672 -46.29201172 14.20638672 -47.31201172 14.54638672 C-48.48154587 16.97021749 -48.48154587 16.97021749 -49.31201172 19.54638672 C-49.64201172 20.20638672 -49.97201172 20.86638672 -50.31201172 21.54638672 C-51.41394725 31.72551395 -51.41394725 31.72551395 -47.93701172 40.98388672 C-46.27227346 42.83555685 -46.27227346 42.83555685 -44.31201172 44.54638672 C-43.58498047 45.20896484 -42.85794922 45.87154297 -42.10888672 46.55419922 C-36.95991237 50.92252262 -31.45479933 54.38684782 -25.58544922 57.69873047 C24.07035347 85.72640908 24.07035347 85.72640908 31.19384766 109.18652344 C35.11720562 123.65139524 32.82643004 137.80301194 25.50048828 150.85888672 C16.05659478 164.25468643 2.84607101 172.31816662 -13.08300781 175.51464844 C-35.97296432 179.23510381 -64.97271454 178.69179979 -86.31201172 169.54638672 C-86.31201172 153.70638672 -86.31201172 137.86638672 -86.31201172 121.54638672 C-82.02201172 121.54638672 -77.73201172 121.54638672 -73.31201172 121.54638672 C-72.59013672 123.27888672 -71.86826172 125.01138672 -71.12451172 126.79638672 C-70.43228516 128.441875 -70.43228516 128.441875 -69.72607422 130.12060547 C-68.83581791 132.27738664 -67.97237528 134.44562549 -67.14794922 136.62841797 C-62.71519562 148.13246897 -57.24536952 156.48355619 -46.12451172 162.30810547 C-42.71667811 163.80849888 -40.04428991 164.47852712 -36.31201172 164.54638672 C-35.48185547 164.59408203 -34.65169922 164.64177734 -33.79638672 164.69091797 C-24.47947815 165.04225391 -16.79409752 163.49456797 -9.68701172 157.24169922 C-5.23292252 151.75000969 -4.8914704 143.82522772 -5.55810547 137.04248047 C-6.98404477 129.58469174 -10.35143691 125.18238934 -16.31201172 120.54638672 C-16.31201172 119.88638672 -16.31201172 119.22638672 -16.31201172 118.54638672 C-16.87146484 118.27697266 -17.43091797 118.00755859 -18.00732422 117.72998047 C-20.47645287 116.46193643 -22.81981624 115.05796432 -25.18701172 113.60888672 C-28.05540354 111.86751443 -30.85806939 110.27814786 -33.87451172 108.79638672 C-36.31201172 107.54638672 -36.31201172 107.54638672 -37.31201172 105.54638672 C-37.98748047 105.28212891 -38.66294922 105.01787109 -39.35888672 104.74560547 C-43.42043869 103.09627153 -46.9040132 100.75589443 -50.56201172 98.35888672 C-51.32054443 97.86348389 -52.07907715 97.36808105 -52.8605957 96.85766602 C-58.21699247 93.32983426 -63.4589381 89.75304684 -68.31201172 85.54638672 C-68.98232422 84.97017578 -69.65263672 84.39396484 -70.34326172 83.80029297 C-79.91362215 74.94770957 -85.83927098 64.55521967 -86.51904297 51.60107422 C-86.97625758 37.41313341 -84.5764556 26.78949494 -75.31201172 15.54638672 C-65.8645825 5.96854821 -55.38943273 1.99050675 -42.49951172 -0.76611328 C-41.71842041 -0.93796143 -40.9373291 -1.10980957 -40.13256836 -1.28686523 C-26.60714657 -3.91883177 -13.42396876 -2.21620906 0 0 Z " fill="#000000" transform="translate(767.31201171875,398.45361328125)"/>
<path d="M0 0 C15.84 0 31.68 0 48 0 C48 71.28 48 142.56 48 216 C42.37429939 218.25028025 42.37429939 218.25028025 38.80810547 218.24291992 C38.01733612 218.24599655 37.22656677 218.24907318 36.41183472 218.25224304 C35.15223434 218.24146477 35.15223434 218.24146477 33.8671875 218.23046875 C32.99353546 218.23001053 32.11988342 218.22955231 31.21975708 218.2290802 C29.37907548 218.22606741 27.53839621 218.21821032 25.69775391 218.20581055 C22.87783807 218.18751841 20.05825032 218.18530128 17.23828125 218.18554688 C15.44791382 218.18063252 13.65754862 218.17480456 11.8671875 218.16796875 C11.02340546 218.16685593 10.17962341 218.1657431 9.31027222 218.16459656 C5.96199429 218.13736587 3.19792347 218.06597449 0 217 C0 145.39 0 73.78 0 0 Z " fill="#000000" transform="translate(388,104)"/>
</svg>
