<?xml version="1.0" encoding="UTF-8"?>
<svg version="1.1" xmlns="http://www.w3.org/2000/svg" width="980" height="980">
<path d="M0 0 C0.89154785 0.31727051 1.7830957 0.63454102 2.70166016 0.96142578 C33.88951648 12.18100414 62.17915403 28.22203866 88 49 C89.02609375 49.81984375 90.0521875 50.6396875 91.109375 51.484375 C99.11838579 58.04459885 106.47834331 65.26865698 113.8125 72.5625 C114.30055115 73.04528412 114.78860229 73.52806824 115.29144287 74.02548218 C121.98880531 80.66689468 128.17282622 87.57881037 134 95 C134.53810303 95.67877197 135.07620605 96.35754395 135.63061523 97.05688477 C143.86399065 107.54768692 151.14545336 118.56786593 158 130 C158.44085937 130.73444336 158.88171875 131.46888672 159.3359375 132.22558594 C180.25224334 167.48223783 192.78356379 208.32106125 197 249 C197.0942627 249.89106445 197.18852539 250.78212891 197.28564453 251.70019531 C198.11866952 260.45962449 198.24314904 269.20882448 198.25 278 C198.25101212 279.17835922 198.25101212 279.17835922 198.25204468 280.38052368 C198.19112148 325.44945398 188.23295486 371.07372459 167.02099609 411.05517578 C165.98262599 413.03309455 164.98287617 415.0270975 163.98828125 417.02734375 C155.53904626 433.79899594 144.85465288 449.45196998 133 464 C132.18402344 465.01964844 131.36804688 466.03929687 130.52734375 467.08984375 C123.96782983 475.10931218 116.73662587 482.47303126 109.4375 489.8125 C108.95471588 490.30055115 108.47193176 490.78860229 107.97451782 491.29144287 C101.33310532 497.98880531 94.42118963 504.17282622 87 510 C86.32122803 510.53810303 85.64245605 511.07620605 84.94311523 511.63061523 C33.18355966 552.25247106 -30.75771398 574.28798923 -96.5 574.1875 C-97.69302734 574.18609512 -97.69302734 574.18609512 -98.91015625 574.18466187 C-111.3741349 574.15293299 -123.65100686 573.83089493 -136 572 C-137.55098389 571.77401123 -137.55098389 571.77401123 -139.13330078 571.54345703 C-166.26490996 567.45190189 -191.84169219 559.89800617 -217 549 C-217.78375 548.66532715 -218.5675 548.3306543 -219.375 547.98583984 C-238.53366373 539.7279426 -256.32766261 528.47457187 -273 516 C-273.61810547 515.53883789 -274.23621094 515.07767578 -274.87304688 514.60253906 C-294.33830834 499.96723842 -313.34641914 482.45578432 -328 463 C-328.92362263 461.81573773 -329.84817138 460.63219741 -330.7734375 459.44921875 C-338.55418932 449.40018854 -345.46674374 438.89628029 -352 428 C-352.66128906 426.89833496 -352.66128906 426.89833496 -353.3359375 425.77441406 C-374.25224334 390.51776217 -386.78356379 349.67893875 -391 309 C-391.14139404 307.66340332 -391.14139404 307.66340332 -391.28564453 306.29980469 C-392.11866954 297.54037539 -392.24314822 288.79117576 -392.25 280 C-392.25067474 279.21475952 -392.25134949 278.42951904 -392.25204468 277.6204834 C-392.16182803 210.91412615 -368.79114408 145.9340024 -327 94 C-326.18015625 92.97390625 -325.3603125 91.9478125 -324.515625 90.890625 C-317.95540115 82.88161421 -310.73134302 75.52165669 -303.4375 68.1875 C-302.71332382 67.45542328 -302.71332382 67.45542328 -301.97451782 66.70855713 C-295.33310532 60.01119469 -288.42118963 53.82717378 -281 48 C-280.32122803 47.46189697 -279.64245605 46.92379395 -278.94311523 46.36938477 C-268.45302055 38.13656458 -257.44420043 30.83399922 -246 24 C-245.2167334 23.53207031 -244.4334668 23.06414062 -243.62646484 22.58203125 C-171.28850845 -20.07689988 -78.93091577 -28.2286113 0 0 Z " fill="#FEFE00" transform="translate(587,211)"/>
<path d="M0 0 C0.84691406 0.7528125 1.69382812 1.505625 2.56640625 2.28125 C3.29988281 2.9309375 4.03335938 3.580625 4.7890625 4.25 C20.41749603 18.94494328 27.11318852 40.04615998 28.00488281 60.97705078 C28.23311826 68.70533767 28.22575224 76.43749311 28.19842529 84.168396 C28.17975833 89.9536928 28.19017402 95.73865006 28.22428513 101.52386284 C28.23033734 103.52299799 28.21653922 105.52216188 28.20230103 107.52125549 C28.20595673 108.73119675 28.20961243 109.941138 28.21337891 111.18774414 C28.20940094 112.2472377 28.20542297 113.30673126 28.20132446 114.39833069 C28.6583783 118.00752012 29.97625139 120.69109514 32.56640625 123.28125 C40.72278618 124.0982273 48.05593404 123.00099545 55.83227539 120.7043457 C60.62880438 119.32786512 64.6254739 118.94232216 69.56640625 119.28125 C70.22640625 119.94125 70.88640625 120.60125 71.56640625 121.28125 C71.46965631 124.18374812 70.66683452 125.18378714 68.58203125 127.20703125 C64.71849336 129.8644647 60.80289529 131.12744447 56.37890625 132.59375 C46.01848935 136.23299167 37.14672907 140.38067725 31.56640625 150.28125 C30.62769839 153.07445551 30.62769839 153.07445551 30.56640625 156.28125 C30.49292969 157.07273437 30.41945313 157.86421875 30.34375 158.6796875 C29.39842925 175.59850509 42.19155796 192.78803288 52.97851562 204.86181641 C59.2310689 211.60788363 65.75286433 217.37241766 73.56640625 222.28125 C74.31921875 222.79042969 75.07203125 223.29960938 75.84765625 223.82421875 C80.9090625 227.10569714 86.13692375 229.45625138 91.75390625 231.59375 C92.41922363 231.84842041 93.08454102 232.10309082 93.77001953 232.36547852 C97.06109787 233.56598994 99.92765524 234.3320221 103.4296875 234.82421875 C106.56640625 235.28125 106.56640625 235.28125 108.56640625 237.28125 C108.56640625 239.15625 108.56640625 239.15625 107.56640625 241.28125 C103.43094395 244.42272878 99.69945836 246.10218392 94.69140625 247.40625 C94.05082275 247.57382812 93.41023926 247.74140625 92.75024414 247.9140625 C86.59987909 249.43954968 80.43187627 250.08564315 74.125 250.59375 C69.25696782 251.53422603 65.96402991 253.58413556 62.81640625 257.40625 C61.29262124 260.91095553 60.7341476 264.30329706 60.19140625 268.07421875 C59.56640625 270.28125 59.56640625 270.28125 56.56640625 272.28125 C54.54678345 272.5328064 54.54678345 272.5328064 52.20947266 272.53662109 C51.33070465 272.54358002 50.45193665 272.55053894 49.54653931 272.55770874 C48.59661102 272.55671173 47.64668274 272.55571472 46.66796875 272.5546875 C44.64061974 272.5750022 42.61327604 272.59585341 40.5859375 272.6171875 C37.40246108 272.63963728 34.21919604 272.6561984 31.03564453 272.66210938 C14.42653912 272.71406966 1.7068253 273.8333552 -12.43359375 283.28125 C-30.71024639 295.42812518 -51.51976744 308.45215324 -74.43359375 305.28125 C-91.55146206 301.6368772 -106.41292705 292.29996509 -120.46484375 282.2578125 C-124.87150019 279.32390702 -129.50009968 277.17406976 -134.43359375 275.28125 C-135.65054932 274.76353027 -135.65054932 274.76353027 -136.89208984 274.23535156 C-141.83236735 272.90441233 -146.53926657 273.02255349 -151.6328125 273.04296875 C-153.83268855 273.02756188 -156.03255848 273.01125921 -158.23242188 272.99414062 C-161.68902113 272.97762782 -165.1451708 272.96879897 -168.60180664 272.97583008 C-171.94599198 272.97843846 -175.28880937 272.95042868 -178.6328125 272.91796875 C-180.189076 272.93327888 -180.189076 272.93327888 -181.77677917 272.94889832 C-184.42409407 272.91258548 -186.84666798 272.84433098 -189.43359375 272.28125 C-192.16603514 269.23724705 -192.75081604 266.79994064 -192.87109375 262.78125 C-193.23419604 258.50233865 -194.17893477 256.2646874 -197.43359375 253.28125 C-201.73114497 251.08894487 -206.0207141 250.87931356 -210.74609375 250.53125 C-220.98563667 249.59646322 -232.37472389 247.0644696 -240.43359375 240.28125 C-240.40625 238.421875 -240.40625 238.421875 -239.43359375 236.28125 C-236.87378132 235.33476473 -234.51132227 234.65271696 -231.87109375 234.03125 C-205.11292864 226.94528621 -183.51433282 208.61393545 -169.45166016 185.04492188 C-163.08445541 174.01454128 -159.49928287 164.8057297 -162.12109375 151.96875 C-165.05720214 143.71968357 -170.8059173 139.99800871 -178.43359375 136.28125 C-182.25615176 134.72407447 -186.11619451 133.26673999 -190.01245117 131.90454102 C-195.05711555 130.07733543 -198.50013672 127.94537797 -202.43359375 124.28125 C-202.10359375 122.63125 -201.77359375 120.98125 -201.43359375 119.28125 C-195.50805771 118.86542291 -190.89611881 119.60005091 -185.18359375 121.28125 C-178.44835909 123.22101797 -171.39450449 124.84212274 -164.43359375 123.28125 C-161.87649419 121.63040129 -160.86395858 120.87803171 -159.43359375 118.28125 C-158.68988067 113.82619227 -158.78470229 109.40569081 -158.83203125 104.8984375 C-158.82651871 103.56103224 -158.818383 102.2236355 -158.80776978 100.88626099 C-158.78489003 97.35883409 -158.78908016 93.83202617 -158.80157471 90.30456543 C-158.8220291 84.04409738 -158.81045006 77.78379825 -158.76953125 71.5234375 C-158.76540663 70.85287071 -158.76128201 70.18230392 -158.75703239 69.49141693 C-158.62890523 53.6983776 -157.23746872 38.74190734 -150.43359375 24.28125 C-149.99144531 23.34023438 -149.54929687 22.39921875 -149.09375 21.4296875 C-139.78965428 3.13077348 -123.99363262 -10.64759715 -104.5078125 -17.1015625 C-101.16497801 -18.07102041 -97.82243354 -18.92758118 -94.43359375 -19.71875 C-93.01691789 -20.11455041 -91.60024964 -20.51037809 -90.18359375 -20.90625 C-59.10810318 -27.63927296 -24.35185629 -20.78394563 0 0 Z " fill="#FDFDFD" transform="translate(555.43359375,348.71875)"/>
<path d="M0 0 C1.17272461 0.00164658 1.17272461 0.00164658 2.36914062 0.00332642 C20.12838323 0.07456421 37.47463101 2.33524996 53.5 10.5 C54.53769531 11.00144531 55.57539062 11.50289063 56.64453125 12.01953125 C79.74298796 23.71946128 97.9678457 42.89236293 106.5 67.5 C110.31355126 80.21684219 110.66000356 93.1695573 110.59765625 106.36328125 C110.59553383 108.10027534 110.59553383 108.10027534 110.59336853 109.87236023 C110.58783497 113.51910138 110.57529552 117.16577785 110.5625 120.8125 C110.55747639 123.30663973 110.55291501 125.80078043 110.54882812 128.29492188 C110.53788743 134.36330279 110.52121718 140.43164677 110.5 146.5 C111.48347412 146.21632568 112.46694824 145.93265137 113.48022461 145.64038086 C120.36740028 143.6981615 126.85237992 141.95157508 134.0625 142.0625 C135.98255859 142.06443359 135.98255859 142.06443359 137.94140625 142.06640625 C145.47429147 142.98424408 149.63518268 147.04246186 154.3125 152.6875 C156.38877804 157.60500063 156.6080244 162.70777851 154.62109375 167.71484375 C149.37010698 176.74376819 141.18155416 181.44014815 131.609375 184.9375 C130.90482178 185.1953125 130.20026855 185.453125 129.47436523 185.71875 C128.0610462 186.22949206 126.643959 186.72995498 125.22290039 187.21875 C120.49806141 188.90337226 115.86465777 190.77068447 113.5 195.5 C111.82725366 206.5819445 120.22830936 216.73253904 126.47216797 225.33178711 C139.43517263 242.54790328 155.71551195 253.02045315 176.5 258.5 C182.61372545 260.36394069 188.04786752 262.69118941 191.63671875 268.265625 C193.6691004 273.52590691 193.59035381 280.38944751 191.73046875 285.6953125 C186.10927963 294.55414765 173.55593205 298.98925892 163.8515625 301.41015625 C157.01108241 302.92873596 150.5092447 303.86890762 143.5 303.5 C143.5825 304.675625 143.665 305.85125 143.75 307.0625 C143.73336232 311.77096464 142.39806063 314.83031951 139.5 318.5 C133.03143716 324.824817 127.35051629 326.83445277 118.54389954 326.8384552 C117.545858 326.8260228 116.54781647 326.81359039 115.51953125 326.80078125 C113.36392923 326.80842615 111.20833008 326.81691653 109.05273438 326.82617188 C105.68686342 326.8239686 102.32157203 326.81257456 98.95581055 326.78491211 C81.25198997 326.36365704 81.25198997 326.36365704 65.5 333.5 C64.82622314 333.92933838 64.15244629 334.35867676 63.45825195 334.80102539 C61.68293038 335.94479852 59.96793714 337.14725893 58.25 338.375 C40.09445779 350.807829 19.79873117 360.17126014 -2.5 358.5 C-3.50804687 358.49871094 -4.51609375 358.49742187 -5.5546875 358.49609375 C-24.51694865 358.10214096 -42.14818883 346.33623801 -57.26464844 336.00073242 C-58.99887194 334.81632022 -60.74426113 333.65225028 -62.5 332.5 C-63.05445801 332.13197266 -63.60891602 331.76394531 -64.18017578 331.38476562 C-71.98932478 326.52733578 -80.21219239 326.22623083 -89.1953125 326.4453125 C-91.23046215 326.47058886 -93.26561874 326.49531195 -95.30078125 326.51953125 C-98.47174296 326.56922359 -101.64233352 326.62536371 -104.81298828 326.69189453 C-107.89878634 326.75245648 -110.9841085 326.7878744 -114.0703125 326.8203125 C-115.48305954 326.86069138 -115.48305954 326.86069138 -116.92434692 326.90188599 C-123.02613102 326.94814348 -126.50927956 326.06895013 -131.5 322.5 C-136.07465565 317.71740545 -139.36179096 313.35632012 -139.6875 306.625 C-139.5946875 305.078125 -139.5946875 305.078125 -139.5 303.5 C-141.418125 303.561875 -141.418125 303.561875 -143.375 303.625 C-156.80977154 303.60397532 -173.67688382 299.034201 -183.5 289.5 C-187.22987127 285.56851406 -187.84539128 282.32135575 -188.0625 277.0625 C-187.89838695 272.09383606 -187.3217215 268.83591179 -184.1796875 264.96484375 C-179.74111068 261.09399187 -175.56792999 258.9824607 -169.875 257.5625 C-144.18307784 250.59245172 -126.87717309 235.00357921 -113.26171875 212.578125 C-109.67260739 206.30712778 -108.03015287 202.66516875 -108.5 195.5 C-109.15615831 192.42901476 -109.15615831 192.42901476 -111.3359375 191.43359375 C-112.05007813 191.12550781 -112.76421875 190.81742188 -113.5 190.5 C-114.09039062 190.18160156 -114.68078125 189.86320313 -115.2890625 189.53515625 C-118.94438369 187.59861375 -122.44310088 186.15583475 -126.4375 185.0625 C-136.26420622 182.2441042 -144.28290799 177.10396673 -149.4375 168.125 C-150.95451761 162.94929287 -151.64860569 158.46191374 -149.65625 153.32421875 C-146.78147337 148.16710256 -143.19967555 144.30559065 -137.5 142.5 C-134.75473413 142.17853363 -132.18621701 141.9796925 -129.4375 141.9375 C-128.78426758 141.92267578 -128.13103516 141.90785156 -127.45800781 141.89257812 C-119.89846068 142.04340994 -112.71226346 144.42112574 -105.5 146.5 C-105.50888245 145.77575836 -105.51776489 145.05151672 -105.5269165 144.30532837 C-105.60791641 137.39444062 -105.66839018 130.48362608 -105.70724869 123.57238197 C-105.7278997 120.02135172 -105.75579008 116.4707218 -105.80175781 112.91992188 C-106.20232528 81.11286436 -101.16735986 53.47580942 -78.64404297 29.62280273 C-57.78616974 8.27140125 -29.24351003 -0.16993901 0 0 Z M-22.5 17.5 C-23.68335938 17.74492187 -24.86671875 17.98984375 -26.0859375 18.2421875 C-46.6994426 23.12547068 -65.06274429 33.66915869 -76.73046875 51.859375 C-87.88135519 70.20089989 -90.70723722 88.60762506 -90.8359375 109.7421875 C-90.84031767 110.4140465 -90.84469784 111.08590549 -90.84921074 111.77812386 C-90.88456312 118.07787104 -90.88266591 124.37745817 -90.86035156 130.67724609 C-90.84942999 134.16183374 -90.86259495 137.64567728 -90.89024734 141.13016129 C-90.89826821 143.07611637 -90.8784345 145.02212273 -90.85800171 146.96798706 C-90.94024122 156.70775624 -90.94024122 156.70775624 -93.86230469 159.79711914 C-98.80685054 162.98928939 -103.83595233 162.17944521 -109.5 161.5 C-113.39242477 160.58390407 -117.18397842 159.51943019 -121.01953125 158.390625 C-125.38475351 157.27359843 -129.02804226 157.1861784 -133.5 157.5 C-133.83 159.15 -134.16 160.8 -134.5 162.5 C-129.65933437 167.07129962 -124.89764 169.17386706 -118.6875 171.4375 C-100.27072914 178.48517505 -100.27072914 178.48517505 -95.5 186.5 C-92.45121085 195.34148853 -92.22813185 204.1872529 -96.1171875 212.78125 C-109.05491809 238.21814403 -127.48963185 258.76174657 -154.5 269.5 C-158.35071846 270.7529418 -162.23899017 271.84995916 -166.18066406 272.77832031 C-168.47399623 273.31458376 -168.47399623 273.31458376 -171.5 274.5 C-172.59510491 276.53096073 -172.59510491 276.53096073 -172.5 278.5 C-162.60558416 285.3499802 -152.68824358 287.87102262 -140.81884766 288.72924805 C-135.31178854 289.17856877 -130.93002202 290.32135957 -126.6875 294.125 C-125.17399847 297.15200307 -125.04630658 299.82807143 -124.90625 303.18359375 C-124.3285409 306.47764658 -123.7670754 307.96296057 -121.5 310.5 C-117.99495718 311.24565365 -114.51508431 311.10020921 -110.9453125 311.03125 C-109.8927829 311.03451294 -108.8402533 311.03777588 -107.75582886 311.0411377 C-103.25381215 311.05428312 -98.75278728 311.00995586 -94.25097656 310.97021484 C-69.82375573 310.81651708 -69.82375573 310.81651708 -59.5 316.5 C-58.62730469 316.97679199 -57.75460937 317.45358398 -56.85546875 317.94482422 C-53.23994058 320.00281118 -49.79785112 322.30241196 -46.33203125 324.6015625 C-29.38152597 335.79084152 -10.54263959 347.00038584 10.56396484 343.12060547 C28.29226206 339.17504106 43.23668219 329.69371309 58.13671875 319.73828125 C72.15445109 310.7768646 86.01407672 310.90491352 102.125 310.875 C105.28809554 310.85863833 108.45089716 310.83665975 111.61386108 310.80337524 C113.5692075 310.78378203 115.52468956 310.77440638 117.48013306 310.77645874 C118.35890106 310.76949982 119.23766907 310.76254089 120.14306641 310.75537109 C121.30003525 310.75348282 121.30003525 310.75348282 122.4803772 310.7515564 C124.81408184 310.61388201 124.81408184 310.61388201 127.5 308.5 C128.33862835 305.79080437 128.33862835 305.79080437 128.875 302.6875 C130.06429855 297.5624815 131.04894923 294.63596759 135.5 291.5 C140.68533301 288.93624799 145.08378829 287.97339908 150.8125 287.5 C160.75922576 286.48298971 168.56041665 284.88618661 176.5 278.5 C176.00243908 275.74358584 176.00243908 275.74358584 174.5 273.5 C173.08845901 273.22251758 171.67020201 272.97906484 170.25 272.75 C147.22879045 268.23090054 125.87532313 252.09806912 112.6875 232.9375 C111.27569319 230.8021422 109.87868636 228.65689019 108.5 226.5 C107.9225 225.62214844 107.345 224.74429688 106.75 223.83984375 C99.93506157 213.08927837 96.77660254 202.94602376 99.125 190.25 C102.23003973 181.78170983 108.51882424 177.26596796 116.5 173.5 C120.59464015 171.90413113 124.72937814 170.42253256 128.89916992 169.03515625 C133.27023361 167.53746915 136.65499189 166.36388154 139.5 162.5 C139.30984746 160.28155374 139.08477845 159.08477845 137.5 157.5 C131.88063844 157.20585676 127.21150892 157.90721479 121.8125 159.5 C114.80818919 161.40141755 107.76320524 162.72339269 100.5 161.5 C97.9720249 159.61090314 97.52153879 158.56461638 96.5 155.5 C96.40789243 153.54623409 96.37487509 151.58948058 96.37402344 149.63354492 C96.37021667 148.42345261 96.36640991 147.21336029 96.36248779 145.96659851 C96.36146057 144.65117569 96.36043335 143.33575287 96.359375 141.98046875 C96.34741446 139.89418371 96.33205025 137.80793917 96.31666946 135.72167683 C96.27897152 130.59396663 96.24734337 125.4664879 96.24951172 120.33862305 C96.24740993 92.87574417 94.83038809 66.89079768 75.5 45.5 C74.89671875 44.81550781 74.2934375 44.13101563 73.671875 43.42578125 C61.54747962 30.46082904 45.45897515 22.95247305 28.5 18.5 C27.38496094 18.19964844 26.26992188 17.89929688 25.12109375 17.58984375 C9.71773888 13.95458437 -7.03407085 14.28869729 -22.5 17.5 Z " fill="#050502" transform="translate(487.5,310.5)"/>
<path d="M0 0 C0.66 0.33 1.32 0.66 2 1 C-0.64 3.64 -3.28 6.28 -6 9 C-6.33 8.34 -6.66 7.68 -7 7 C-4.78071806 4.09197539 -3.07030857 2.04687238 0 0 Z " fill="#292900" transform="translate(346,455)"/>
</svg>
